STARTFONT 2.1
COMMENT "Mangled by FontForge, fixed by gbdfed."
FONT -srmrfm-kernel8x16-Medium-R-Normal--16-160-75-75-C-80-ISO10646-1
SIZE 16 75 75
FONTBOUNDINGBOX 8 19 0 -4
STARTPROPERTIES 31
FOUNDRY "srmrfm"
FAMILY_NAME "kernel8x16"
WEIGHT_NAME "Medium"
SLANT "R"
SETWIDTH_NAME "Normal"
ADD_STYLE_NAME ""
PIXEL_SIZE 16
POINT_SIZE 160
RESOLUTION_X 75
RESOLUTION_Y 75
SPACING "C"
AVERAGE_WIDTH 80
CHARSET_REGISTRY "ISO10646"
CHARSET_ENCODING "1"
FONTNAME_REGISTRY ""
CHARSET_COLLECTIONS "ASCII ISOLatin1Encoding ISO8859-2 ISO8859-5 ISO8859-7 ISO8859-9 ISO8859-8 ISO8859-6 ISO8859-4 ISO10646-1"
FONT_NAME "8x16"
FACE_NAME "kernel8x16"
COPYRIGHT "Copyright (c) 2019, sudo_rm_-rf_mind"
FONT_VERSION "000.5"
FONT_ASCENT 13
FONT_DESCENT 3
UNDERLINE_POSITION -2
UNDERLINE_THICKNESS 1
X_HEIGHT 6
CAP_HEIGHT 9
NORM_SPACE 0
FIGURE_WIDTH 8
AVG_LOWERCASE_WIDTH 8
AVG_UPPERCASE_WIDTH "8"
_GBDFED_INFO "Edited with gbdfed 1.6."
ENDPROPERTIES
CHARS 770
STARTCHAR space
ENCODING 32
SWIDTH 480 0
DWIDTH 8 0
BBX 8 19 0 -4
BITMAP
00
00
00
00
00
00
00
00
00
00
00
00
00
00
00
00
00
00
00
ENDCHAR
STARTCHAR exclam
ENCODING 33
SWIDTH 480 0
DWIDTH 8 0
BBX 8 19 0 -4
BITMAP
00
00
00
00
00
18
3C
3C
3C
18
18
18
00
18
18
00
00
00
00
ENDCHAR
STARTCHAR quotedbl
ENCODING 34
SWIDTH 480 0
DWIDTH 8 0
BBX 8 19 0 -4
BITMAP
00
00
00
00
66
66
66
24
00
00
00
00
00
00
00
00
00
00
00
ENDCHAR
STARTCHAR numbersign
ENCODING 35
SWIDTH 480 0
DWIDTH 8 0
BBX 8 19 0 -4
BITMAP
00
00
00
00
00
00
6C
6C
FE
6C
6C
6C
FE
6C
6C
00
00
00
00
ENDCHAR
STARTCHAR dollar
ENCODING 36
SWIDTH 480 0
DWIDTH 8 0
BBX 8 19 0 -4
BITMAP
00
00
00
18
18
7C
C6
C2
C0
7C
06
06
86
C6
7C
18
18
00
00
ENDCHAR
STARTCHAR percent
ENCODING 37
SWIDTH 480 0
DWIDTH 8 0
BBX 8 19 0 -4
BITMAP
00
00
00
00
00
00
00
C2
C6
0C
18
30
60
C6
86
00
00
00
00
ENDCHAR
STARTCHAR ampersand
ENCODING 38
SWIDTH 480 0
DWIDTH 8 0
BBX 8 19 0 -4
BITMAP
00
00
00
00
00
38
6C
6C
38
76
DC
CC
CC
CC
76
00
00
00
00
ENDCHAR
STARTCHAR quotesingle
ENCODING 39
SWIDTH 480 0
DWIDTH 8 0
BBX 8 19 0 -4
BITMAP
00
00
00
00
30
30
30
60
00
00
00
00
00
00
00
00
00
00
00
ENDCHAR
STARTCHAR parenleft
ENCODING 40
SWIDTH 480 0
DWIDTH 8 0
BBX 8 19 0 -4
BITMAP
00
00
00
00
00
0C
18
30
30
30
30
30
30
18
0C
00
00
00
00
ENDCHAR
STARTCHAR parenright
ENCODING 41
SWIDTH 480 0
DWIDTH 8 0
BBX 8 19 0 -4
BITMAP
00
00
00
00
00
30
18
0C
0C
0C
0C
0C
0C
18
30
00
00
00
00
ENDCHAR
STARTCHAR asterisk
ENCODING 42
SWIDTH 480 0
DWIDTH 8 0
BBX 8 19 0 -4
BITMAP
00
00
00
00
00
00
00
00
66
3C
FF
3C
66
00
00
00
00
00
00
ENDCHAR
STARTCHAR plus
ENCODING 43
SWIDTH 480 0
DWIDTH 8 0
BBX 8 19 0 -4
BITMAP
00
00
00
00
00
00
00
00
18
18
7E
18
18
00
00
00
00
00
00
ENDCHAR
STARTCHAR comma
ENCODING 44
SWIDTH 480 0
DWIDTH 8 0
BBX 8 19 0 -4
BITMAP
00
00
00
00
00
00
00
00
00
00
00
00
18
18
18
30
00
00
00
ENDCHAR
STARTCHAR hyphen
ENCODING 45
SWIDTH 480 0
DWIDTH 8 0
BBX 8 19 0 -4
BITMAP
00
00
00
00
00
00
00
00
00
00
FE
00
00
00
00
00
00
00
00
ENDCHAR
STARTCHAR period
ENCODING 46
SWIDTH 480 0
DWIDTH 8 0
BBX 8 19 0 -4
BITMAP
00
00
00
00
00
00
00
00
00
00
00
00
00
18
18
00
00
00
00
ENDCHAR
STARTCHAR slash
ENCODING 47
SWIDTH 480 0
DWIDTH 8 0
BBX 8 19 0 -4
BITMAP
00
00
00
00
00
00
00
02
06
0C
18
30
60
C0
80
00
00
00
00
ENDCHAR
STARTCHAR zero
ENCODING 48
SWIDTH 480 0
DWIDTH 8 0
BBX 8 19 0 -4
BITMAP
00
00
00
00
00
38
6C
C6
C6
D6
D6
C6
C6
6C
38
00
00
00
00
ENDCHAR
STARTCHAR one
ENCODING 49
SWIDTH 480 0
DWIDTH 8 0
BBX 8 19 0 -4
BITMAP
00
00
00
00
00
18
38
78
18
18
18
18
18
18
7E
00
00
00
00
ENDCHAR
STARTCHAR two
ENCODING 50
SWIDTH 480 0
DWIDTH 8 0
BBX 8 19 0 -4
BITMAP
00
00
00
00
00
7C
C6
06
0C
18
30
60
C0
C6
FE
00
00
00
00
ENDCHAR
STARTCHAR three
ENCODING 51
SWIDTH 480 0
DWIDTH 8 0
BBX 8 19 0 -4
BITMAP
00
00
00
00
00
7C
C6
06
06
3C
06
06
06
C6
7C
00
00
00
00
ENDCHAR
STARTCHAR four
ENCODING 52
SWIDTH 480 0
DWIDTH 8 0
BBX 8 19 0 -4
BITMAP
00
00
00
00
00
0C
1C
3C
6C
CC
FE
0C
0C
0C
1E
00
00
00
00
ENDCHAR
STARTCHAR five
ENCODING 53
SWIDTH 480 0
DWIDTH 8 0
BBX 8 19 0 -4
BITMAP
00
00
00
00
00
FE
C0
C0
C0
FC
06
06
06
C6
7C
00
00
00
00
ENDCHAR
STARTCHAR six
ENCODING 54
SWIDTH 480 0
DWIDTH 8 0
BBX 8 19 0 -4
BITMAP
00
00
00
00
00
38
60
C0
C0
FC
C6
C6
C6
C6
7C
00
00
00
00
ENDCHAR
STARTCHAR seven
ENCODING 55
SWIDTH 480 0
DWIDTH 8 0
BBX 8 19 0 -4
BITMAP
00
00
00
00
00
FE
C6
06
06
0C
18
30
30
30
30
00
00
00
00
ENDCHAR
STARTCHAR eight
ENCODING 56
SWIDTH 480 0
DWIDTH 8 0
BBX 8 19 0 -4
BITMAP
00
00
00
00
00
7C
C6
C6
C6
7C
C6
C6
C6
C6
7C
00
00
00
00
ENDCHAR
STARTCHAR nine
ENCODING 57
SWIDTH 480 0
DWIDTH 8 0
BBX 8 19 0 -4
BITMAP
00
00
00
00
00
7C
C6
C6
C6
7E
06
06
06
0C
78
00
00
00
00
ENDCHAR
STARTCHAR colon
ENCODING 58
SWIDTH 480 0
DWIDTH 8 0
BBX 8 19 0 -4
BITMAP
00
00
00
00
00
00
00
18
18
00
00
00
18
18
00
00
00
00
00
ENDCHAR
STARTCHAR semicolon
ENCODING 59
SWIDTH 480 0
DWIDTH 8 0
BBX 8 19 0 -4
BITMAP
00
00
00
00
00
00
00
18
18
00
00
00
18
18
30
00
00
00
00
ENDCHAR
STARTCHAR less
ENCODING 60
SWIDTH 480 0
DWIDTH 8 0
BBX 8 19 0 -4
BITMAP
00
00
00
00
00
00
06
0C
18
30
60
30
18
0C
06
00
00
00
00
ENDCHAR
STARTCHAR equal
ENCODING 61
SWIDTH 480 0
DWIDTH 8 0
BBX 8 19 0 -4
BITMAP
00
00
00
00
00
00
00
00
7E
00
00
7E
00
00
00
00
00
00
00
ENDCHAR
STARTCHAR greater
ENCODING 62
SWIDTH 480 0
DWIDTH 8 0
BBX 8 19 0 -4
BITMAP
00
00
00
00
00
00
60
30
18
0C
06
0C
18
30
60
00
00
00
00
ENDCHAR
STARTCHAR question
ENCODING 63
SWIDTH 480 0
DWIDTH 8 0
BBX 8 19 0 -4
BITMAP
00
00
00
00
00
7C
C6
C6
0C
18
18
18
00
18
18
00
00
00
00
ENDCHAR
STARTCHAR at
ENCODING 64
SWIDTH 480 0
DWIDTH 8 0
BBX 8 19 0 -4
BITMAP
00
00
00
00
00
00
7C
C6
C6
DE
DE
DE
DC
C0
7C
00
00
00
00
ENDCHAR
STARTCHAR A
ENCODING 65
SWIDTH 480 0
DWIDTH 8 0
BBX 8 19 0 -4
BITMAP
00
00
00
00
00
10
38
6C
C6
C6
FE
C6
C6
C6
C6
00
00
00
00
ENDCHAR
STARTCHAR B
ENCODING 66
SWIDTH 480 0
DWIDTH 8 0
BBX 8 19 0 -4
BITMAP
00
00
00
00
00
FC
66
66
66
7C
66
66
66
66
FC
00
00
00
00
ENDCHAR
STARTCHAR C
ENCODING 67
SWIDTH 480 0
DWIDTH 8 0
BBX 8 19 0 -4
BITMAP
00
00
00
00
00
3C
66
C2
C0
C0
C0
C0
C2
66
3C
00
00
00
00
ENDCHAR
STARTCHAR D
ENCODING 68
SWIDTH 480 0
DWIDTH 8 0
BBX 8 19 0 -4
BITMAP
00
00
00
00
00
F8
6C
66
66
66
66
66
66
6C
F8
00
00
00
00
ENDCHAR
STARTCHAR E
ENCODING 69
SWIDTH 480 0
DWIDTH 8 0
BBX 8 19 0 -4
BITMAP
00
00
00
00
00
FE
66
62
68
78
68
60
62
66
FE
00
00
00
00
ENDCHAR
STARTCHAR F
ENCODING 70
SWIDTH 480 0
DWIDTH 8 0
BBX 8 19 0 -4
BITMAP
00
00
00
00
00
FE
66
62
68
78
68
60
60
60
F0
00
00
00
00
ENDCHAR
STARTCHAR G
ENCODING 71
SWIDTH 480 0
DWIDTH 8 0
BBX 8 19 0 -4
BITMAP
00
00
00
00
00
3C
66
C2
C0
C0
DE
C6
C6
66
3A
00
00
00
00
ENDCHAR
STARTCHAR H
ENCODING 72
SWIDTH 480 0
DWIDTH 8 0
BBX 8 19 0 -4
BITMAP
00
00
00
00
00
C6
C6
C6
C6
FE
C6
C6
C6
C6
C6
00
00
00
00
ENDCHAR
STARTCHAR I
ENCODING 73
SWIDTH 480 0
DWIDTH 8 0
BBX 8 19 0 -4
BITMAP
00
00
00
00
00
3C
18
18
18
18
18
18
18
18
3C
00
00
00
00
ENDCHAR
STARTCHAR J
ENCODING 74
SWIDTH 480 0
DWIDTH 8 0
BBX 8 19 0 -4
BITMAP
00
00
00
00
00
1E
0C
0C
0C
0C
0C
CC
CC
CC
78
00
00
00
00
ENDCHAR
STARTCHAR K
ENCODING 75
SWIDTH 480 0
DWIDTH 8 0
BBX 8 19 0 -4
BITMAP
00
00
00
00
00
E6
66
66
6C
78
78
6C
66
66
E6
00
00
00
00
ENDCHAR
STARTCHAR L
ENCODING 76
SWIDTH 480 0
DWIDTH 8 0
BBX 8 19 0 -4
BITMAP
00
00
00
00
00
F0
60
60
60
60
60
60
62
66
FE
00
00
00
00
ENDCHAR
STARTCHAR M
ENCODING 77
SWIDTH 480 0
DWIDTH 8 0
BBX 8 19 0 -4
BITMAP
00
00
00
00
00
C6
EE
FE
FE
D6
C6
C6
C6
C6
C6
00
00
00
00
ENDCHAR
STARTCHAR N
ENCODING 78
SWIDTH 480 0
DWIDTH 8 0
BBX 8 19 0 -4
BITMAP
00
00
00
00
00
C6
E6
F6
FE
DE
CE
C6
C6
C6
C6
00
00
00
00
ENDCHAR
STARTCHAR O
ENCODING 79
SWIDTH 480 0
DWIDTH 8 0
BBX 8 19 0 -4
BITMAP
00
00
00
00
00
7C
C6
C6
C6
C6
C6
C6
C6
C6
7C
00
00
00
00
ENDCHAR
STARTCHAR P
ENCODING 80
SWIDTH 480 0
DWIDTH 8 0
BBX 8 19 0 -4
BITMAP
00
00
00
00
00
FC
66
66
66
7C
60
60
60
60
F0
00
00
00
00
ENDCHAR
STARTCHAR Q
ENCODING 81
SWIDTH 480 0
DWIDTH 8 0
BBX 8 19 0 -4
BITMAP
00
00
00
00
00
7C
C6
C6
C6
C6
C6
C6
D6
DE
7C
0C
0E
00
00
ENDCHAR
STARTCHAR R
ENCODING 82
SWIDTH 480 0
DWIDTH 8 0
BBX 8 19 0 -4
BITMAP
00
00
00
00
00
FC
66
66
66
7C
6C
66
66
66
E6
00
00
00
00
ENDCHAR
STARTCHAR S
ENCODING 83
SWIDTH 480 0
DWIDTH 8 0
BBX 8 19 0 -4
BITMAP
00
00
00
00
00
7C
C6
C6
60
38
0C
06
C6
C6
7C
00
00
00
00
ENDCHAR
STARTCHAR T
ENCODING 84
SWIDTH 480 0
DWIDTH 8 0
BBX 8 19 0 -4
BITMAP
00
00
00
00
00
7E
7E
5A
18
18
18
18
18
18
3C
00
00
00
00
ENDCHAR
STARTCHAR U
ENCODING 85
SWIDTH 480 0
DWIDTH 8 0
BBX 8 19 0 -4
BITMAP
00
00
00
00
00
C6
C6
C6
C6
C6
C6
C6
C6
C6
7C
00
00
00
00
ENDCHAR
STARTCHAR V
ENCODING 86
SWIDTH 480 0
DWIDTH 8 0
BBX 8 19 0 -4
BITMAP
00
00
00
00
00
C6
C6
C6
C6
C6
C6
C6
6C
38
10
00
00
00
00
ENDCHAR
STARTCHAR W
ENCODING 87
SWIDTH 480 0
DWIDTH 8 0
BBX 8 19 0 -4
BITMAP
00
00
00
00
00
C6
C6
C6
C6
D6
D6
D6
FE
EE
6C
00
00
00
00
ENDCHAR
STARTCHAR X
ENCODING 88
SWIDTH 480 0
DWIDTH 8 0
BBX 8 19 0 -4
BITMAP
00
00
00
00
00
C6
C6
6C
7C
38
38
7C
6C
C6
C6
00
00
00
00
ENDCHAR
STARTCHAR Y
ENCODING 89
SWIDTH 480 0
DWIDTH 8 0
BBX 8 19 0 -4
BITMAP
00
00
00
00
00
66
66
66
66
3C
18
18
18
18
3C
00
00
00
00
ENDCHAR
STARTCHAR Z
ENCODING 90
SWIDTH 480 0
DWIDTH 8 0
BBX 8 19 0 -4
BITMAP
00
00
00
00
00
FE
C6
86
0C
18
30
60
C2
C6
FE
00
00
00
00
ENDCHAR
STARTCHAR bracketleft
ENCODING 91
SWIDTH 480 0
DWIDTH 8 0
BBX 8 19 0 -4
BITMAP
00
00
00
00
00
3C
30
30
30
30
30
30
30
30
3C
00
00
00
00
ENDCHAR
STARTCHAR backslash
ENCODING 92
SWIDTH 480 0
DWIDTH 8 0
BBX 8 19 0 -4
BITMAP
00
00
00
00
00
00
80
C0
E0
70
38
1C
0E
06
02
00
00
00
00
ENDCHAR
STARTCHAR bracketright
ENCODING 93
SWIDTH 480 0
DWIDTH 8 0
BBX 8 19 0 -4
BITMAP
00
00
00
00
00
3C
0C
0C
0C
0C
0C
0C
0C
0C
3C
00
00
00
00
ENDCHAR
STARTCHAR asciicircum
ENCODING 94
SWIDTH 480 0
DWIDTH 8 0
BBX 8 19 0 -4
BITMAP
00
00
00
10
38
6C
C6
00
00
00
00
00
00
00
00
00
00
00
00
ENDCHAR
STARTCHAR underscore
ENCODING 95
SWIDTH 480 0
DWIDTH 8 0
BBX 8 19 0 -4
BITMAP
00
00
00
00
00
00
00
00
00
00
00
00
00
00
00
00
FF
00
00
ENDCHAR
STARTCHAR grave
ENCODING 96
SWIDTH 480 0
DWIDTH 8 0
BBX 8 19 0 -4
BITMAP
00
00
00
00
30
18
0C
00
00
00
00
00
00
00
00
00
00
00
00
ENDCHAR
STARTCHAR a
ENCODING 97
SWIDTH 480 0
DWIDTH 8 0
BBX 8 19 0 -4
BITMAP
00
00
00
00
00
00
00
00
78
0C
7C
CC
CC
CC
76
00
00
00
00
ENDCHAR
STARTCHAR b
ENCODING 98
SWIDTH 480 0
DWIDTH 8 0
BBX 8 19 0 -4
BITMAP
00
00
00
00
00
E0
60
60
78
6C
66
66
66
66
7C
00
00
00
00
ENDCHAR
STARTCHAR c
ENCODING 99
SWIDTH 480 0
DWIDTH 8 0
BBX 8 19 0 -4
BITMAP
00
00
00
00
00
00
00
00
7C
C6
C0
C0
C0
C6
7C
00
00
00
00
ENDCHAR
STARTCHAR d
ENCODING 100
SWIDTH 480 0
DWIDTH 8 0
BBX 8 19 0 -4
BITMAP
00
00
00
00
00
1C
0C
0C
3C
6C
CC
CC
CC
CC
76
00
00
00
00
ENDCHAR
STARTCHAR e
ENCODING 101
SWIDTH 480 0
DWIDTH 8 0
BBX 8 19 0 -4
BITMAP
00
00
00
00
00
00
00
00
7C
C6
FE
C0
C0
C6
7C
00
00
00
00
ENDCHAR
STARTCHAR f
ENCODING 102
SWIDTH 480 0
DWIDTH 8 0
BBX 8 19 0 -4
BITMAP
00
00
00
00
00
1C
36
32
30
78
30
30
30
30
78
00
00
00
00
ENDCHAR
STARTCHAR g
ENCODING 103
SWIDTH 480 0
DWIDTH 8 0
BBX 8 19 0 -4
BITMAP
00
00
00
00
00
00
00
00
76
CC
CC
CC
CC
CC
7C
0C
CC
78
00
ENDCHAR
STARTCHAR h
ENCODING 104
SWIDTH 480 0
DWIDTH 8 0
BBX 8 19 0 -4
BITMAP
00
00
00
00
00
E0
60
60
6C
76
66
66
66
66
E6
00
00
00
00
ENDCHAR
STARTCHAR i
ENCODING 105
SWIDTH 480 0
DWIDTH 8 0
BBX 8 19 0 -4
BITMAP
00
00
00
00
00
18
18
00
38
18
18
18
18
18
3C
00
00
00
00
ENDCHAR
STARTCHAR j
ENCODING 106
SWIDTH 480 0
DWIDTH 8 0
BBX 8 19 0 -4
BITMAP
00
00
00
00
00
06
06
00
0E
06
06
06
06
06
06
66
66
3C
00
ENDCHAR
STARTCHAR k
ENCODING 107
SWIDTH 480 0
DWIDTH 8 0
BBX 8 19 0 -4
BITMAP
00
00
00
00
00
E0
60
60
66
6C
78
78
6C
66
E6
00
00
00
00
ENDCHAR
STARTCHAR l
ENCODING 108
SWIDTH 480 0
DWIDTH 8 0
BBX 8 19 0 -4
BITMAP
00
00
00
00
00
38
18
18
18
18
18
18
18
18
3C
00
00
00
00
ENDCHAR
STARTCHAR m
ENCODING 109
SWIDTH 480 0
DWIDTH 8 0
BBX 8 19 0 -4
BITMAP
00
00
00
00
00
00
00
00
EC
FE
D6
D6
D6
D6
C6
00
00
00
00
ENDCHAR
STARTCHAR n
ENCODING 110
SWIDTH 480 0
DWIDTH 8 0
BBX 8 19 0 -4
BITMAP
00
00
00
00
00
00
00
00
DC
66
66
66
66
66
66
00
00
00
00
ENDCHAR
STARTCHAR o
ENCODING 111
SWIDTH 480 0
DWIDTH 8 0
BBX 8 19 0 -4
BITMAP
00
00
00
00
00
00
00
00
7C
C6
C6
C6
C6
C6
7C
00
00
00
00
ENDCHAR
STARTCHAR p
ENCODING 112
SWIDTH 480 0
DWIDTH 8 0
BBX 8 19 0 -4
BITMAP
00
00
00
00
00
00
00
00
DC
66
66
66
66
66
7C
60
60
F0
00
ENDCHAR
STARTCHAR q
ENCODING 113
SWIDTH 480 0
DWIDTH 8 0
BBX 8 19 0 -4
BITMAP
00
00
00
00
00
00
00
00
76
CC
CC
CC
CC
CC
7C
0C
0C
1E
00
ENDCHAR
STARTCHAR r
ENCODING 114
SWIDTH 480 0
DWIDTH 8 0
BBX 8 19 0 -4
BITMAP
00
00
00
00
00
00
00
00
DC
76
66
60
60
60
F0
00
00
00
00
ENDCHAR
STARTCHAR s
ENCODING 115
SWIDTH 480 0
DWIDTH 8 0
BBX 8 19 0 -4
BITMAP
00
00
00
00
00
00
00
00
7C
C6
60
38
0C
C6
7C
00
00
00
00
ENDCHAR
STARTCHAR t
ENCODING 116
SWIDTH 480 0
DWIDTH 8 0
BBX 8 19 0 -4
BITMAP
00
00
00
00
00
10
30
30
FC
30
30
30
30
36
1C
00
00
00
00
ENDCHAR
STARTCHAR u
ENCODING 117
SWIDTH 480 0
DWIDTH 8 0
BBX 8 19 0 -4
BITMAP
00
00
00
00
00
00
00
00
CC
CC
CC
CC
CC
CC
76
00
00
00
00
ENDCHAR
STARTCHAR v
ENCODING 118
SWIDTH 480 0
DWIDTH 8 0
BBX 8 19 0 -4
BITMAP
00
00
00
00
00
00
00
00
C6
C6
C6
C6
C6
6C
38
00
00
00
00
ENDCHAR
STARTCHAR w
ENCODING 119
SWIDTH 480 0
DWIDTH 8 0
BBX 8 19 0 -4
BITMAP
00
00
00
00
00
00
00
00
C6
C6
D6
D6
D6
FE
6C
00
00
00
00
ENDCHAR
STARTCHAR x
ENCODING 120
SWIDTH 480 0
DWIDTH 8 0
BBX 8 19 0 -4
BITMAP
00
00
00
00
00
00
00
00
C6
6C
38
38
38
6C
C6
00
00
00
00
ENDCHAR
STARTCHAR y
ENCODING 121
SWIDTH 480 0
DWIDTH 8 0
BBX 8 19 0 -4
BITMAP
00
00
00
00
00
00
00
00
C6
C6
C6
C6
C6
C6
7E
06
0C
F8
00
ENDCHAR
STARTCHAR z
ENCODING 122
SWIDTH 480 0
DWIDTH 8 0
BBX 8 19 0 -4
BITMAP
00
00
00
00
00
00
00
00
FE
CC
18
30
60
C6
FE
00
00
00
00
ENDCHAR
STARTCHAR braceleft
ENCODING 123
SWIDTH 480 0
DWIDTH 8 0
BBX 8 19 0 -4
BITMAP
00
00
00
00
00
0E
18
18
18
70
18
18
18
18
0E
00
00
00
00
ENDCHAR
STARTCHAR bar
ENCODING 124
SWIDTH 480 0
DWIDTH 8 0
BBX 8 19 0 -4
BITMAP
00
00
00
00
00
18
18
18
18
18
18
18
18
18
18
00
00
00
00
ENDCHAR
STARTCHAR braceright
ENCODING 125
SWIDTH 480 0
DWIDTH 8 0
BBX 8 19 0 -4
BITMAP
00
00
00
00
00
70
18
18
18
0E
18
18
18
18
70
00
00
00
00
ENDCHAR
STARTCHAR asciitilde
ENCODING 126
SWIDTH 480 0
DWIDTH 8 0
BBX 8 19 0 -4
BITMAP
00
00
00
00
76
DC
00
00
00
00
00
00
00
00
00
00
00
00
00
ENDCHAR
STARTCHAR uni007F
ENCODING 127
SWIDTH 480 0
DWIDTH 8 0
BBX 8 19 0 -4
BITMAP
00
00
00
00
00
00
00
10
38
6C
C6
C6
C6
FE
00
00
00
00
00
ENDCHAR
STARTCHAR uni00A0
ENCODING 160
SWIDTH 480 0
DWIDTH 8 0
BBX 8 19 0 -4
BITMAP
00
00
00
00
00
00
00
00
00
00
00
00
00
00
00
00
00
00
00
ENDCHAR
STARTCHAR exclamdown
ENCODING 161
SWIDTH 480 0
DWIDTH 8 0
BBX 8 19 0 -4
BITMAP
00
00
00
00
00
18
18
00
18
18
18
3C
3C
3C
18
00
00
00
00
ENDCHAR
STARTCHAR cent
ENCODING 162
SWIDTH 480 0
DWIDTH 8 0
BBX 8 19 0 -4
BITMAP
00
00
00
00
00
18
18
7C
C6
C0
C0
C6
7C
18
18
00
00
00
00
ENDCHAR
STARTCHAR sterling
ENCODING 163
SWIDTH 480 0
DWIDTH 8 0
BBX 8 19 0 -4
BITMAP
00
00
00
00
38
6C
64
60
F0
60
60
60
60
E6
FC
00
00
00
00
ENDCHAR
STARTCHAR currency
ENCODING 164
SWIDTH 480 0
DWIDTH 8 0
BBX 8 19 0 -4
BITMAP
00
00
00
00
00
00
00
C6
7C
C6
C6
C6
7C
C6
00
00
00
00
00
ENDCHAR
STARTCHAR yen
ENCODING 165
SWIDTH 480 0
DWIDTH 8 0
BBX 8 19 0 -4
BITMAP
00
00
00
00
00
00
66
66
3C
18
7E
18
7E
18
18
00
00
00
00
ENDCHAR
STARTCHAR brokenbar
ENCODING 166
SWIDTH 480 0
DWIDTH 8 0
BBX 8 19 0 -4
BITMAP
00
00
00
00
18
18
18
18
18
00
00
18
18
18
18
18
00
00
00
ENDCHAR
STARTCHAR section
ENCODING 167
SWIDTH 480 0
DWIDTH 8 0
BBX 8 19 0 -4
BITMAP
00
00
00
00
7C
C6
60
38
6C
C6
C6
6C
38
0C
C6
7C
00
00
00
ENDCHAR
STARTCHAR dieresis
ENCODING 168
SWIDTH 480 0
DWIDTH 8 0
BBX 8 19 0 -4
BITMAP
00
00
00
00
C6
00
00
00
00
00
00
00
00
00
00
00
00
00
00
ENDCHAR
STARTCHAR copyright
ENCODING 169
SWIDTH 480 0
DWIDTH 8 0
BBX 8 19 0 -4
BITMAP
00
00
00
00
00
7C
82
9A
A2
A2
A2
9A
82
7C
00
00
00
00
00
ENDCHAR
STARTCHAR ordfeminine
ENCODING 170
SWIDTH 480 0
DWIDTH 8 0
BBX 8 19 0 -4
BITMAP
00
00
00
00
00
3C
6C
6C
3E
00
7E
00
00
00
00
00
00
00
00
ENDCHAR
STARTCHAR guillemotleft
ENCODING 171
SWIDTH 480 0
DWIDTH 8 0
BBX 8 19 0 -4
BITMAP
00
00
00
00
00
00
00
00
36
6C
D8
6C
36
00
00
00
00
00
00
ENDCHAR
STARTCHAR logicalnot
ENCODING 172
SWIDTH 480 0
DWIDTH 8 0
BBX 8 19 0 -4
BITMAP
00
00
00
00
00
00
00
00
00
FE
06
06
06
06
00
00
00
00
00
ENDCHAR
STARTCHAR uni00AD
ENCODING 173
SWIDTH 480 0
DWIDTH 8 0
BBX 8 19 0 -4
BITMAP
00
00
00
00
00
00
00
00
00
00
FE
00
00
00
00
00
00
00
00
ENDCHAR
STARTCHAR registered
ENCODING 174
SWIDTH 480 0
DWIDTH 8 0
BBX 8 19 0 -4
BITMAP
00
00
00
00
00
7C
82
B2
AA
B2
AA
AA
82
7C
00
00
00
00
00
ENDCHAR
STARTCHAR macron
ENCODING 175
SWIDTH 480 0
DWIDTH 8 0
BBX 8 19 0 -4
BITMAP
00
00
00
00
FF
00
00
00
00
00
00
00
00
00
00
00
00
00
00
ENDCHAR
STARTCHAR degree
ENCODING 176
SWIDTH 480 0
DWIDTH 8 0
BBX 8 19 0 -4
BITMAP
00
00
00
00
38
6C
6C
38
00
00
00
00
00
00
00
00
00
00
00
ENDCHAR
STARTCHAR plusminus
ENCODING 177
SWIDTH 480 0
DWIDTH 8 0
BBX 8 19 0 -4
BITMAP
00
00
00
00
00
00
00
18
18
7E
18
18
00
00
7E
00
00
00
00
ENDCHAR
STARTCHAR uni00B2
ENCODING 178
SWIDTH 480 0
DWIDTH 8 0
BBX 8 19 0 -4
BITMAP
00
00
00
00
3C
66
0C
18
32
7E
00
00
00
00
00
00
00
00
00
ENDCHAR
STARTCHAR uni00B3
ENCODING 179
SWIDTH 480 0
DWIDTH 8 0
BBX 8 19 0 -4
BITMAP
00
00
00
00
7C
06
3C
06
06
7C
00
00
00
00
00
00
00
00
00
ENDCHAR
STARTCHAR acute
ENCODING 180
SWIDTH 480 0
DWIDTH 8 0
BBX 8 19 0 -4
BITMAP
00
00
00
00
0C
18
30
00
00
00
00
00
00
00
00
00
00
00
00
ENDCHAR
STARTCHAR mu
ENCODING 181
SWIDTH 480 0
DWIDTH 8 0
BBX 8 19 0 -4
BITMAP
00
00
00
00
00
00
00
00
66
66
66
66
66
66
7C
60
60
C0
00
ENDCHAR
STARTCHAR paragraph
ENCODING 182
SWIDTH 480 0
DWIDTH 8 0
BBX 8 19 0 -4
BITMAP
00
00
00
00
00
7F
DB
DB
DB
7B
1B
1B
1B
1B
1B
00
00
00
00
ENDCHAR
STARTCHAR periodcentered
ENCODING 183
SWIDTH 480 0
DWIDTH 8 0
BBX 8 19 0 -4
BITMAP
00
00
00
00
00
00
00
00
00
00
18
00
00
00
00
00
00
00
00
ENDCHAR
STARTCHAR cedilla
ENCODING 184
SWIDTH 480 0
DWIDTH 8 0
BBX 8 19 0 -4
BITMAP
00
00
00
00
00
00
00
00
00
00
00
00
00
00
18
0C
78
00
00
ENDCHAR
STARTCHAR uni00B9
ENCODING 185
SWIDTH 480 0
DWIDTH 8 0
BBX 8 19 0 -4
BITMAP
00
00
00
00
18
38
18
18
18
3C
00
00
00
00
00
00
00
00
00
ENDCHAR
STARTCHAR ordmasculine
ENCODING 186
SWIDTH 480 0
DWIDTH 8 0
BBX 8 19 0 -4
BITMAP
00
00
00
00
00
38
6C
6C
38
00
7C
00
00
00
00
00
00
00
00
ENDCHAR
STARTCHAR guillemotright
ENCODING 187
SWIDTH 480 0
DWIDTH 8 0
BBX 8 19 0 -4
BITMAP
00
00
00
00
00
00
00
00
D8
6C
36
6C
D8
00
00
00
00
00
00
ENDCHAR
STARTCHAR onequarter
ENCODING 188
SWIDTH 480 0
DWIDTH 8 0
BBX 8 19 0 -4
BITMAP
00
00
00
00
60
E0
62
66
6C
18
30
66
CE
9A
3F
06
06
00
00
ENDCHAR
STARTCHAR onehalf
ENCODING 189
SWIDTH 480 0
DWIDTH 8 0
BBX 8 19 0 -4
BITMAP
00
00
00
00
60
E0
62
66
6C
18
30
60
DC
86
0C
18
3E
00
00
ENDCHAR
STARTCHAR threequarters
ENCODING 190
SWIDTH 480 0
DWIDTH 8 0
BBX 8 19 0 -4
BITMAP
00
00
00
00
E0
30
62
36
EC
18
30
66
CE
9A
3F
06
06
00
00
ENDCHAR
STARTCHAR questiondown
ENCODING 191
SWIDTH 480 0
DWIDTH 8 0
BBX 8 19 0 -4
BITMAP
00
00
00
00
00
30
30
00
30
30
60
C0
C6
C6
7C
00
00
00
00
ENDCHAR
STARTCHAR Agrave
ENCODING 192
SWIDTH 480 0
DWIDTH 8 0
BBX 8 19 0 -4
BITMAP
00
00
00
0C
06
10
38
6C
C6
C6
FE
C6
C6
C6
C6
00
00
00
00
ENDCHAR
STARTCHAR Aacute
ENCODING 193
SWIDTH 480 0
DWIDTH 8 0
BBX 8 19 0 -4
BITMAP
00
00
00
60
C0
10
38
6C
C6
C6
FE
C6
C6
C6
C6
00
00
00
00
ENDCHAR
STARTCHAR Acircumflex
ENCODING 194
SWIDTH 480 0
DWIDTH 8 0
BBX 8 19 0 -4
BITMAP
00
00
00
7C
C6
10
38
6C
C6
C6
FE
C6
C6
C6
C6
00
00
00
00
ENDCHAR
STARTCHAR Atilde
ENCODING 195
SWIDTH 480 0
DWIDTH 8 0
BBX 8 19 0 -4
BITMAP
00
00
00
76
DC
00
38
6C
C6
C6
FE
C6
C6
C6
C6
00
00
00
00
ENDCHAR
STARTCHAR Adieresis
ENCODING 196
SWIDTH 480 0
DWIDTH 8 0
BBX 8 19 0 -4
BITMAP
00
00
00
00
C6
00
10
38
6C
C6
C6
FE
C6
C6
C6
00
00
00
00
ENDCHAR
STARTCHAR Aring
ENCODING 197
SWIDTH 480 0
DWIDTH 8 0
BBX 8 19 0 -4
BITMAP
00
00
00
38
6C
38
10
38
6C
C6
C6
FE
C6
C6
C6
00
00
00
00
ENDCHAR
STARTCHAR AE
ENCODING 198
SWIDTH 480 0
DWIDTH 8 0
BBX 8 19 0 -4
BITMAP
00
00
00
00
00
3E
6C
CC
CC
FE
CC
CC
CC
CC
CE
00
00
00
00
ENDCHAR
STARTCHAR Ccedilla
ENCODING 199
SWIDTH 480 0
DWIDTH 8 0
BBX 8 19 0 -4
BITMAP
00
00
00
00
00
3C
66
C2
C0
C0
C0
C0
C2
66
3C
18
70
00
00
ENDCHAR
STARTCHAR Egrave
ENCODING 200
SWIDTH 480 0
DWIDTH 8 0
BBX 8 19 0 -4
BITMAP
00
00
00
30
18
00
FE
66
62
68
78
68
62
66
FE
00
00
00
00
ENDCHAR
STARTCHAR Eacute
ENCODING 201
SWIDTH 480 0
DWIDTH 8 0
BBX 8 19 0 -4
BITMAP
00
00
00
0C
18
00
FE
66
62
68
78
68
62
66
FE
00
00
00
00
ENDCHAR
STARTCHAR Ecircumflex
ENCODING 202
SWIDTH 480 0
DWIDTH 8 0
BBX 8 19 0 -4
BITMAP
00
00
00
38
6C
00
FE
66
62
68
78
68
62
66
FE
00
00
00
00
ENDCHAR
STARTCHAR Edieresis
ENCODING 203
SWIDTH 480 0
DWIDTH 8 0
BBX 8 19 0 -4
BITMAP
00
00
00
00
C6
00
FE
66
62
68
78
68
62
66
FE
00
00
00
00
ENDCHAR
STARTCHAR Igrave
ENCODING 204
SWIDTH 480 0
DWIDTH 8 0
BBX 8 19 0 -4
BITMAP
00
00
00
30
18
00
3C
18
18
18
18
18
18
18
3C
00
00
00
00
ENDCHAR
STARTCHAR Iacute
ENCODING 205
SWIDTH 480 0
DWIDTH 8 0
BBX 8 19 0 -4
BITMAP
00
00
00
0C
18
00
3C
18
18
18
18
18
18
18
3C
00
00
00
00
ENDCHAR
STARTCHAR Icircumflex
ENCODING 206
SWIDTH 480 0
DWIDTH 8 0
BBX 8 19 0 -4
BITMAP
00
00
00
3C
66
00
3C
18
18
18
18
18
18
18
3C
00
00
00
00
ENDCHAR
STARTCHAR Idieresis
ENCODING 207
SWIDTH 480 0
DWIDTH 8 0
BBX 8 19 0 -4
BITMAP
00
00
00
00
66
00
3C
18
18
18
18
18
18
18
3C
00
00
00
00
ENDCHAR
STARTCHAR Eth
ENCODING 208
SWIDTH 480 0
DWIDTH 8 0
BBX 8 19 0 -4
BITMAP
00
00
00
00
00
F8
6C
66
66
F6
66
66
66
6C
F8
00
00
00
00
ENDCHAR
STARTCHAR Ntilde
ENCODING 209
SWIDTH 480 0
DWIDTH 8 0
BBX 8 19 0 -4
BITMAP
00
00
00
76
DC
00
C6
E6
F6
FE
DE
CE
C6
C6
C6
00
00
00
00
ENDCHAR
STARTCHAR Ograve
ENCODING 210
SWIDTH 480 0
DWIDTH 8 0
BBX 8 19 0 -4
BITMAP
00
00
00
30
18
00
7C
C6
C6
C6
C6
C6
C6
C6
7C
00
00
00
00
ENDCHAR
STARTCHAR Oacute
ENCODING 211
SWIDTH 480 0
DWIDTH 8 0
BBX 8 19 0 -4
BITMAP
00
00
00
18
30
00
7C
C6
C6
C6
C6
C6
C6
C6
7C
00
00
00
00
ENDCHAR
STARTCHAR Ocircumflex
ENCODING 212
SWIDTH 480 0
DWIDTH 8 0
BBX 8 19 0 -4
BITMAP
00
00
00
38
6C
00
7C
C6
C6
C6
C6
C6
C6
C6
7C
00
00
00
00
ENDCHAR
STARTCHAR Otilde
ENCODING 213
SWIDTH 480 0
DWIDTH 8 0
BBX 8 19 0 -4
BITMAP
00
00
00
76
DC
00
7C
C6
C6
C6
C6
C6
C6
C6
7C
00
00
00
00
ENDCHAR
STARTCHAR Odieresis
ENCODING 214
SWIDTH 480 0
DWIDTH 8 0
BBX 8 19 0 -4
BITMAP
00
00
00
00
C6
00
7C
C6
C6
C6
C6
C6
C6
C6
7C
00
00
00
00
ENDCHAR
STARTCHAR multiply
ENCODING 215
SWIDTH 480 0
DWIDTH 8 0
BBX 8 19 0 -4
BITMAP
00
00
00
00
00
00
00
00
C6
6C
38
38
6C
C6
00
00
00
00
00
ENDCHAR
STARTCHAR Oslash
ENCODING 216
SWIDTH 480 0
DWIDTH 8 0
BBX 8 19 0 -4
BITMAP
00
00
00
00
04
7C
CE
CE
D6
D6
D6
D6
E6
E6
7C
40
00
00
00
ENDCHAR
STARTCHAR Ugrave
ENCODING 217
SWIDTH 480 0
DWIDTH 8 0
BBX 8 19 0 -4
BITMAP
00
00
00
30
18
00
C6
C6
C6
C6
C6
C6
C6
C6
7C
00
00
00
00
ENDCHAR
STARTCHAR Uacute
ENCODING 218
SWIDTH 480 0
DWIDTH 8 0
BBX 8 19 0 -4
BITMAP
00
00
00
18
30
00
C6
C6
C6
C6
C6
C6
C6
C6
7C
00
00
00
00
ENDCHAR
STARTCHAR Ucircumflex
ENCODING 219
SWIDTH 480 0
DWIDTH 8 0
BBX 8 19 0 -4
BITMAP
00
00
00
38
6C
00
C6
C6
C6
C6
C6
C6
C6
C6
7C
00
00
00
00
ENDCHAR
STARTCHAR Udieresis
ENCODING 220
SWIDTH 480 0
DWIDTH 8 0
BBX 8 19 0 -4
BITMAP
00
00
00
00
C6
00
C6
C6
C6
C6
C6
C6
C6
C6
7C
00
00
00
00
ENDCHAR
STARTCHAR Yacute
ENCODING 221
SWIDTH 480 0
DWIDTH 8 0
BBX 8 19 0 -4
BITMAP
00
00
00
0C
18
00
66
66
66
66
3C
18
18
18
3C
00
00
00
00
ENDCHAR
STARTCHAR Thorn
ENCODING 222
SWIDTH 480 0
DWIDTH 8 0
BBX 8 19 0 -4
BITMAP
00
00
00
00
00
F0
60
7C
66
66
66
66
7C
60
F0
00
00
00
00
ENDCHAR
STARTCHAR germandbls
ENCODING 223
SWIDTH 480 0
DWIDTH 8 0
BBX 8 19 0 -4
BITMAP
00
00
00
00
00
78
CC
CC
CC
D8
CC
C6
C6
C6
CC
00
00
00
00
ENDCHAR
STARTCHAR agrave
ENCODING 224
SWIDTH 480 0
DWIDTH 8 0
BBX 8 19 0 -4
BITMAP
00
00
00
00
60
30
18
00
78
0C
7C
CC
CC
CC
76
00
00
00
00
ENDCHAR
STARTCHAR aacute
ENCODING 225
SWIDTH 480 0
DWIDTH 8 0
BBX 8 19 0 -4
BITMAP
00
00
00
00
18
30
60
00
78
0C
7C
CC
CC
CC
76
00
00
00
00
ENDCHAR
STARTCHAR acircumflex
ENCODING 226
SWIDTH 480 0
DWIDTH 8 0
BBX 8 19 0 -4
BITMAP
00
00
00
00
10
38
6C
00
78
0C
7C
CC
CC
CC
76
00
00
00
00
ENDCHAR
STARTCHAR atilde
ENCODING 227
SWIDTH 480 0
DWIDTH 8 0
BBX 8 19 0 -4
BITMAP
00
00
00
00
00
76
DC
00
78
0C
7C
CC
CC
CC
76
00
00
00
00
ENDCHAR
STARTCHAR adieresis
ENCODING 228
SWIDTH 480 0
DWIDTH 8 0
BBX 8 19 0 -4
BITMAP
00
00
00
00
00
CC
00
00
78
0C
7C
CC
CC
CC
76
00
00
00
00
ENDCHAR
STARTCHAR aring
ENCODING 229
SWIDTH 480 0
DWIDTH 8 0
BBX 8 19 0 -4
BITMAP
00
00
00
00
38
6C
38
00
78
0C
7C
CC
CC
CC
76
00
00
00
00
ENDCHAR
STARTCHAR ae
ENCODING 230
SWIDTH 480 0
DWIDTH 8 0
BBX 8 19 0 -4
BITMAP
00
00
00
00
00
00
00
00
EC
36
36
7E
D8
D8
6E
00
00
00
00
ENDCHAR
STARTCHAR ccedilla
ENCODING 231
SWIDTH 480 0
DWIDTH 8 0
BBX 8 19 0 -4
BITMAP
00
00
00
00
00
00
00
00
7C
C6
C0
C0
C0
C6
7C
18
70
00
00
ENDCHAR
STARTCHAR egrave
ENCODING 232
SWIDTH 480 0
DWIDTH 8 0
BBX 8 19 0 -4
BITMAP
00
00
00
00
60
30
18
00
7C
C6
FE
C0
C0
C6
7C
00
00
00
00
ENDCHAR
STARTCHAR eacute
ENCODING 233
SWIDTH 480 0
DWIDTH 8 0
BBX 8 19 0 -4
BITMAP
00
00
00
00
0C
18
30
00
7C
C6
FE
C0
C0
C6
7C
00
00
00
00
ENDCHAR
STARTCHAR ecircumflex
ENCODING 234
SWIDTH 480 0
DWIDTH 8 0
BBX 8 19 0 -4
BITMAP
00
00
00
00
10
38
6C
00
7C
C6
FE
C0
C0
C6
7C
00
00
00
00
ENDCHAR
STARTCHAR edieresis
ENCODING 235
SWIDTH 480 0
DWIDTH 8 0
BBX 8 19 0 -4
BITMAP
00
00
00
00
00
C6
00
00
7C
C6
FE
C0
C0
C6
7C
00
00
00
00
ENDCHAR
STARTCHAR igrave
ENCODING 236
SWIDTH 480 0
DWIDTH 8 0
BBX 8 19 0 -4
BITMAP
00
00
00
00
60
30
18
00
38
18
18
18
18
18
3C
00
00
00
00
ENDCHAR
STARTCHAR iacute
ENCODING 237
SWIDTH 480 0
DWIDTH 8 0
BBX 8 19 0 -4
BITMAP
00
00
00
00
0C
18
30
00
38
18
18
18
18
18
3C
00
00
00
00
ENDCHAR
STARTCHAR icircumflex
ENCODING 238
SWIDTH 480 0
DWIDTH 8 0
BBX 8 19 0 -4
BITMAP
00
00
00
00
18
3C
66
00
38
18
18
18
18
18
3C
00
00
00
00
ENDCHAR
STARTCHAR idieresis
ENCODING 239
SWIDTH 480 0
DWIDTH 8 0
BBX 8 19 0 -4
BITMAP
00
00
00
00
00
66
00
00
38
18
18
18
18
18
3C
00
00
00
00
ENDCHAR
STARTCHAR eth
ENCODING 240
SWIDTH 480 0
DWIDTH 8 0
BBX 8 19 0 -4
BITMAP
00
00
00
00
00
34
18
2C
06
3E
66
66
66
66
3C
00
00
00
00
ENDCHAR
STARTCHAR ntilde
ENCODING 241
SWIDTH 480 0
DWIDTH 8 0
BBX 8 19 0 -4
BITMAP
00
00
00
00
00
76
DC
00
DC
66
66
66
66
66
66
00
00
00
00
ENDCHAR
STARTCHAR ograve
ENCODING 242
SWIDTH 480 0
DWIDTH 8 0
BBX 8 19 0 -4
BITMAP
00
00
00
00
60
30
18
00
7C
C6
C6
C6
C6
C6
7C
00
00
00
00
ENDCHAR
STARTCHAR oacute
ENCODING 243
SWIDTH 480 0
DWIDTH 8 0
BBX 8 19 0 -4
BITMAP
00
00
00
00
18
30
60
00
7C
C6
C6
C6
C6
C6
7C
00
00
00
00
ENDCHAR
STARTCHAR ocircumflex
ENCODING 244
SWIDTH 480 0
DWIDTH 8 0
BBX 8 19 0 -4
BITMAP
00
00
00
00
10
38
6C
00
7C
C6
C6
C6
C6
C6
7C
00
00
00
00
ENDCHAR
STARTCHAR otilde
ENCODING 245
SWIDTH 480 0
DWIDTH 8 0
BBX 8 19 0 -4
BITMAP
00
00
00
00
00
76
DC
00
7C
C6
C6
C6
C6
C6
7C
00
00
00
00
ENDCHAR
STARTCHAR odieresis
ENCODING 246
SWIDTH 480 0
DWIDTH 8 0
BBX 8 19 0 -4
BITMAP
00
00
00
00
00
C6
00
00
7C
C6
C6
C6
C6
C6
7C
00
00
00
00
ENDCHAR
STARTCHAR divide
ENCODING 247
SWIDTH 480 0
DWIDTH 8 0
BBX 8 19 0 -4
BITMAP
00
00
00
00
00
00
00
18
18
00
7E
00
18
18
00
00
00
00
00
ENDCHAR
STARTCHAR oslash
ENCODING 248
SWIDTH 480 0
DWIDTH 8 0
BBX 8 19 0 -4
BITMAP
00
00
00
00
00
00
00
00
7C
CE
DE
F6
E6
C6
7C
00
00
00
00
ENDCHAR
STARTCHAR ugrave
ENCODING 249
SWIDTH 480 0
DWIDTH 8 0
BBX 8 19 0 -4
BITMAP
00
00
00
00
60
30
18
00
CC
CC
CC
CC
CC
CC
76
00
00
00
00
ENDCHAR
STARTCHAR uacute
ENCODING 250
SWIDTH 480 0
DWIDTH 8 0
BBX 8 19 0 -4
BITMAP
00
00
00
00
18
30
60
00
CC
CC
CC
CC
CC
CC
76
00
00
00
00
ENDCHAR
STARTCHAR ucircumflex
ENCODING 251
SWIDTH 480 0
DWIDTH 8 0
BBX 8 19 0 -4
BITMAP
00
00
00
00
30
78
CC
00
CC
CC
CC
CC
CC
CC
76
00
00
00
00
ENDCHAR
STARTCHAR udieresis
ENCODING 252
SWIDTH 480 0
DWIDTH 8 0
BBX 8 19 0 -4
BITMAP
00
00
00
00
00
CC
00
00
CC
CC
CC
CC
CC
CC
76
00
00
00
00
ENDCHAR
STARTCHAR yacute
ENCODING 253
SWIDTH 480 0
DWIDTH 8 0
BBX 8 19 0 -4
BITMAP
00
00
00
00
0C
18
30
00
C6
C6
C6
C6
C6
C6
7E
06
0C
F8
00
ENDCHAR
STARTCHAR thorn
ENCODING 254
SWIDTH 480 0
DWIDTH 8 0
BBX 8 19 0 -4
BITMAP
00
00
00
00
00
E0
60
60
7C
66
66
66
66
66
7C
60
60
F0
00
ENDCHAR
STARTCHAR ydieresis
ENCODING 255
SWIDTH 480 0
DWIDTH 8 0
BBX 8 19 0 -4
BITMAP
00
00
00
00
00
C6
00
00
C6
C6
C6
C6
C6
C6
7E
06
0C
78
00
ENDCHAR
STARTCHAR Amacron
ENCODING 256
SWIDTH 480 0
DWIDTH 8 0
BBX 8 19 0 -4
BITMAP
00
00
00
7C
00
10
38
6C
C6
C6
FE
C6
C6
C6
C6
00
00
00
00
ENDCHAR
STARTCHAR amacron
ENCODING 257
SWIDTH 480 0
DWIDTH 8 0
BBX 8 19 0 -4
BITMAP
00
00
00
00
00
00
7C
00
78
0C
7C
CC
CC
CC
76
00
00
00
00
ENDCHAR
STARTCHAR Abreve
ENCODING 258
SWIDTH 480 0
DWIDTH 8 0
BBX 8 19 0 -4
BITMAP
00
00
00
C6
7C
00
10
38
6C
C6
C6
FE
C6
C6
C6
00
00
00
00
ENDCHAR
STARTCHAR abreve
ENCODING 259
SWIDTH 480 0
DWIDTH 8 0
BBX 8 19 0 -4
BITMAP
00
00
00
00
00
C6
7C
00
78
0C
7C
CC
CC
CC
76
00
00
00
00
ENDCHAR
STARTCHAR Aogonek
ENCODING 260
SWIDTH 480 0
DWIDTH 8 0
BBX 8 19 0 -4
BITMAP
00
00
00
00
00
10
38
6C
C6
C6
FE
C6
C6
C6
C6
18
30
1E
00
ENDCHAR
STARTCHAR aogonek
ENCODING 261
SWIDTH 480 0
DWIDTH 8 0
BBX 8 19 0 -4
BITMAP
00
00
00
00
00
00
00
00
78
0C
7C
CC
CC
CC
76
18
30
1E
00
ENDCHAR
STARTCHAR Cacute
ENCODING 262
SWIDTH 480 0
DWIDTH 8 0
BBX 8 19 0 -4
BITMAP
00
00
00
0C
18
00
3C
66
C2
C0
C0
C0
C2
66
3C
00
00
00
00
ENDCHAR
STARTCHAR cacute
ENCODING 263
SWIDTH 480 0
DWIDTH 8 0
BBX 8 19 0 -4
BITMAP
00
00
00
00
0C
18
30
00
7C
C6
C0
C0
C0
C6
7C
00
00
00
00
ENDCHAR
STARTCHAR Ccircumflex
ENCODING 264
SWIDTH 480 0
DWIDTH 8 0
BBX 8 19 0 -4
BITMAP
00
00
00
38
6C
00
3C
66
C2
C0
C0
C0
C2
66
3C
00
00
00
00
ENDCHAR
STARTCHAR ccircumflex
ENCODING 265
SWIDTH 480 0
DWIDTH 8 0
BBX 8 19 0 -4
BITMAP
00
00
00
00
10
38
6C
00
7C
C6
C0
C0
C0
C6
7C
00
00
00
00
ENDCHAR
STARTCHAR Cdotaccent
ENCODING 266
SWIDTH 480 0
DWIDTH 8 0
BBX 8 19 0 -4
BITMAP
00
00
00
18
18
00
3C
66
C2
C0
C0
C0
C2
66
3C
00
00
00
00
ENDCHAR
STARTCHAR cdotaccent
ENCODING 267
SWIDTH 480 0
DWIDTH 8 0
BBX 8 19 0 -4
BITMAP
00
00
00
00
00
18
18
00
7C
C6
C0
C0
C0
C6
7C
00
00
00
00
ENDCHAR
STARTCHAR Ccaron
ENCODING 268
SWIDTH 480 0
DWIDTH 8 0
BBX 8 19 0 -4
BITMAP
00
00
00
66
3C
00
3C
66
C2
C0
C0
C0
C2
66
3C
00
00
00
00
ENDCHAR
STARTCHAR ccaron
ENCODING 269
SWIDTH 480 0
DWIDTH 8 0
BBX 8 19 0 -4
BITMAP
00
00
00
00
00
6C
38
00
7C
C6
C0
C0
C0
C6
7C
00
00
00
00
ENDCHAR
STARTCHAR Dcaron
ENCODING 270
SWIDTH 480 0
DWIDTH 8 0
BBX 8 19 0 -4
BITMAP
00
00
00
6C
38
00
F8
6C
66
66
66
66
66
6C
F8
00
00
00
00
ENDCHAR
STARTCHAR dcaron
ENCODING 271
SWIDTH 480 0
DWIDTH 8 0
BBX 8 19 0 -4
BITMAP
00
00
00
6C
38
00
1C
0C
0C
3C
6C
CC
CC
CC
76
00
00
00
00
ENDCHAR
STARTCHAR Dcroat
ENCODING 272
SWIDTH 480 0
DWIDTH 8 0
BBX 8 19 0 -4
BITMAP
00
00
00
00
00
F8
6C
66
66
F6
66
66
66
6C
F8
00
00
00
00
ENDCHAR
STARTCHAR dcroat
ENCODING 273
SWIDTH 480 0
DWIDTH 8 0
BBX 8 19 0 -4
BITMAP
00
00
00
00
00
0C
0C
7E
0C
3C
6C
CC
CC
CC
76
00
00
00
00
ENDCHAR
STARTCHAR Emacron
ENCODING 274
SWIDTH 480 0
DWIDTH 8 0
BBX 8 19 0 -4
BITMAP
00
00
00
7C
00
FE
66
62
68
78
68
60
62
66
FE
00
00
00
00
ENDCHAR
STARTCHAR emacron
ENCODING 275
SWIDTH 480 0
DWIDTH 8 0
BBX 8 19 0 -4
BITMAP
00
00
00
00
00
00
7C
00
7C
C6
FE
C0
C0
C6
7C
00
00
00
00
ENDCHAR
STARTCHAR Ebreve
ENCODING 276
SWIDTH 480 0
DWIDTH 8 0
BBX 8 19 0 -4
BITMAP
C6
7C
00
00
00
FE
66
62
68
78
68
60
62
66
FE
00
00
00
00
ENDCHAR
STARTCHAR ebreve
ENCODING 277
SWIDTH 480 0
DWIDTH 8 0
BBX 8 19 0 -4
BITMAP
C6
7C
00
00
00
00
00
00
7C
C6
FE
C0
C0
C6
7C
00
00
00
00
ENDCHAR
STARTCHAR Edotaccent
ENCODING 278
SWIDTH 480 0
DWIDTH 8 0
BBX 8 19 0 -4
BITMAP
00
00
00
18
18
00
FE
66
62
68
78
68
62
66
FE
00
00
00
00
ENDCHAR
STARTCHAR edotaccent
ENCODING 279
SWIDTH 480 0
DWIDTH 8 0
BBX 8 19 0 -4
BITMAP
00
00
00
00
00
18
18
00
7C
C6
FE
C0
C0
C6
7C
00
00
00
00
ENDCHAR
STARTCHAR Eogonek
ENCODING 280
SWIDTH 480 0
DWIDTH 8 0
BBX 8 19 0 -4
BITMAP
00
00
00
00
00
FE
66
62
68
78
68
60
62
66
FE
18
30
1E
00
ENDCHAR
STARTCHAR eogonek
ENCODING 281
SWIDTH 480 0
DWIDTH 8 0
BBX 8 19 0 -4
BITMAP
00
00
00
00
00
00
00
00
7C
C6
FE
C0
C0
C6
7C
30
60
3C
00
ENDCHAR
STARTCHAR Ecaron
ENCODING 282
SWIDTH 480 0
DWIDTH 8 0
BBX 8 19 0 -4
BITMAP
00
00
00
6C
38
00
FE
66
62
68
78
68
62
66
FE
00
00
00
00
ENDCHAR
STARTCHAR ecaron
ENCODING 283
SWIDTH 480 0
DWIDTH 8 0
BBX 8 19 0 -4
BITMAP
00
00
00
00
00
66
3C
00
7C
C6
FE
C0
C0
C6
7C
00
00
00
00
ENDCHAR
STARTCHAR Gcircumflex
ENCODING 284
SWIDTH 480 0
DWIDTH 8 0
BBX 8 19 0 -4
BITMAP
00
00
00
1C
36
00
3C
66
C2
C0
DE
C6
C6
66
3A
00
00
00
00
ENDCHAR
STARTCHAR gcircumflex
ENCODING 285
SWIDTH 480 0
DWIDTH 8 0
BBX 8 19 0 -4
BITMAP
00
00
00
00
10
38
6C
00
76
CC
CC
CC
CC
CC
7C
0C
CC
78
00
ENDCHAR
STARTCHAR Gbreve
ENCODING 286
SWIDTH 480 0
DWIDTH 8 0
BBX 8 19 0 -4
BITMAP
00
00
00
66
3C
00
3C
66
C2
C0
DE
C6
C6
66
3A
00
00
00
00
ENDCHAR
STARTCHAR gbreve
ENCODING 287
SWIDTH 480 0
DWIDTH 8 0
BBX 8 19 0 -4
BITMAP
00
00
00
66
3C
00
00
00
76
CC
CC
CC
CC
CC
7C
0C
CC
78
00
ENDCHAR
STARTCHAR Gdotaccent
ENCODING 288
SWIDTH 480 0
DWIDTH 8 0
BBX 8 19 0 -4
BITMAP
00
00
00
18
18
00
3C
66
C2
C0
DE
C6
C6
66
3A
00
00
00
00
ENDCHAR
STARTCHAR gdotaccent
ENCODING 289
SWIDTH 480 0
DWIDTH 8 0
BBX 8 19 0 -4
BITMAP
00
00
00
00
00
30
30
00
76
CC
CC
CC
CC
CC
7C
0C
CC
78
00
ENDCHAR
STARTCHAR uni0122
ENCODING 290
SWIDTH 480 0
DWIDTH 8 0
BBX 8 19 0 -4
BITMAP
00
00
00
00
00
3C
66
C2
C0
C0
DE
C6
C6
66
3E
0C
78
00
00
ENDCHAR
STARTCHAR uni0123
ENCODING 291
SWIDTH 480 0
DWIDTH 8 0
BBX 8 19 0 -4
BITMAP
00
00
00
00
3C
60
30
00
76
CC
CC
CC
CC
CC
7C
0C
CC
78
00
ENDCHAR
STARTCHAR Hcircumflex
ENCODING 292
SWIDTH 480 0
DWIDTH 8 0
BBX 8 19 0 -4
BITMAP
00
00
00
38
6C
00
C6
C6
C6
FE
C6
C6
C6
C6
C6
00
00
00
00
ENDCHAR
STARTCHAR hcircumflex
ENCODING 293
SWIDTH 480 0
DWIDTH 8 0
BBX 8 19 0 -4
BITMAP
00
00
00
1C
36
00
E0
60
60
6C
76
66
66
66
E6
00
00
00
00
ENDCHAR
STARTCHAR Hbar
ENCODING 294
SWIDTH 480 0
DWIDTH 8 0
BBX 8 19 0 -4
BITMAP
00
00
00
00
00
66
FF
66
66
7E
66
66
66
66
66
00
00
00
00
ENDCHAR
STARTCHAR hbar
ENCODING 295
SWIDTH 480 0
DWIDTH 8 0
BBX 8 19 0 -4
BITMAP
00
00
00
00
00
E0
60
F0
60
6C
76
66
66
66
E6
00
00
00
00
ENDCHAR
STARTCHAR Itilde
ENCODING 296
SWIDTH 480 0
DWIDTH 8 0
BBX 8 19 0 -4
BITMAP
00
00
00
76
DC
00
3C
18
18
18
18
18
18
18
3C
00
00
00
00
ENDCHAR
STARTCHAR itilde
ENCODING 297
SWIDTH 480 0
DWIDTH 8 0
BBX 8 19 0 -4
BITMAP
00
00
00
00
00
76
DC
00
38
18
18
18
18
18
3C
00
00
00
00
ENDCHAR
STARTCHAR Imacron
ENCODING 298
SWIDTH 480 0
DWIDTH 8 0
BBX 8 19 0 -4
BITMAP
00
00
00
3C
00
3C
18
18
18
18
18
18
18
18
3C
00
00
00
00
ENDCHAR
STARTCHAR imacron
ENCODING 299
SWIDTH 480 0
DWIDTH 8 0
BBX 8 19 0 -4
BITMAP
00
00
00
00
00
00
7C
00
38
18
18
18
18
18
3C
00
00
00
00
ENDCHAR
STARTCHAR Ibreve
ENCODING 300
SWIDTH 480 0
DWIDTH 8 0
BBX 8 19 0 -4
BITMAP
C6
7C
00
00
00
3C
18
18
18
18
18
18
18
18
3C
00
00
00
00
ENDCHAR
STARTCHAR ibreve
ENCODING 301
SWIDTH 480 0
DWIDTH 8 0
BBX 8 19 0 -4
BITMAP
00
00
00
00
63
3E
00
00
38
18
18
18
18
18
3C
00
00
00
00
ENDCHAR
STARTCHAR Iogonek
ENCODING 302
SWIDTH 480 0
DWIDTH 8 0
BBX 8 19 0 -4
BITMAP
00
00
00
00
00
3C
18
18
18
18
18
18
18
18
3C
30
1E
00
00
ENDCHAR
STARTCHAR iogonek
ENCODING 303
SWIDTH 480 0
DWIDTH 8 0
BBX 8 19 0 -4
BITMAP
00
00
00
00
00
18
18
00
38
18
18
18
18
18
3C
30
1C
00
00
ENDCHAR
STARTCHAR Idotaccent
ENCODING 304
SWIDTH 480 0
DWIDTH 8 0
BBX 8 19 0 -4
BITMAP
00
00
00
18
18
00
3C
18
18
18
18
18
18
18
3C
00
00
00
00
ENDCHAR
STARTCHAR dotlessi
ENCODING 305
SWIDTH 480 0
DWIDTH 8 0
BBX 8 19 0 -4
BITMAP
00
00
00
00
00
00
00
00
38
18
18
18
18
18
3C
00
00
00
00
ENDCHAR
STARTCHAR Jcircumflex
ENCODING 308
SWIDTH 480 0
DWIDTH 8 0
BBX 8 19 0 -4
BITMAP
00
00
00
1C
36
00
1E
0C
0C
0C
0C
CC
CC
CC
78
00
00
00
00
ENDCHAR
STARTCHAR jcircumflex
ENCODING 309
SWIDTH 480 0
DWIDTH 8 0
BBX 8 19 0 -4
BITMAP
00
00
00
00
00
0E
1B
00
0E
06
06
06
06
06
06
66
66
3C
00
ENDCHAR
STARTCHAR uni0136
ENCODING 310
SWIDTH 480 0
DWIDTH 8 0
BBX 8 19 0 -4
BITMAP
00
00
00
00
00
E6
66
66
6C
78
78
6C
66
66
E6
18
F0
00
00
ENDCHAR
STARTCHAR uni0137
ENCODING 311
SWIDTH 480 0
DWIDTH 8 0
BBX 8 19 0 -4
BITMAP
00
00
00
00
00
E0
60
60
66
6C
78
78
6C
66
E6
18
F0
00
00
ENDCHAR
STARTCHAR kgreenlandic
ENCODING 312
SWIDTH 480 0
DWIDTH 8 0
BBX 8 19 0 -4
BITMAP
00
00
00
00
00
00
00
00
E6
6C
78
78
6C
66
E6
00
00
00
00
ENDCHAR
STARTCHAR Lacute
ENCODING 313
SWIDTH 480 0
DWIDTH 8 0
BBX 8 19 0 -4
BITMAP
00
00
00
00
00
F6
6C
60
60
60
60
60
62
66
FE
00
00
00
00
ENDCHAR
STARTCHAR lacute
ENCODING 314
SWIDTH 480 0
DWIDTH 8 0
BBX 8 19 0 -4
BITMAP
00
00
00
00
00
E6
6C
60
60
60
60
60
60
60
F0
00
00
00
00
ENDCHAR
STARTCHAR uni013B
ENCODING 315
SWIDTH 480 0
DWIDTH 8 0
BBX 8 19 0 -4
BITMAP
00
00
00
00
00
F0
60
60
60
60
60
60
62
66
FE
0C
78
00
00
ENDCHAR
STARTCHAR uni013C
ENCODING 316
SWIDTH 480 0
DWIDTH 8 0
BBX 8 19 0 -4
BITMAP
00
00
00
00
00
38
18
18
18
18
18
18
18
18
3C
0C
78
00
00
ENDCHAR
STARTCHAR Lcaron
ENCODING 317
SWIDTH 480 0
DWIDTH 8 0
BBX 8 19 0 -4
BITMAP
00
00
00
00
1B
EE
60
60
60
60
60
60
62
66
FE
00
00
00
00
ENDCHAR
STARTCHAR lcaron
ENCODING 318
SWIDTH 480 0
DWIDTH 8 0
BBX 8 19 0 -4
BITMAP
00
00
00
00
1B
EE
60
60
60
60
60
60
60
60
F0
00
00
00
00
ENDCHAR
STARTCHAR Ldot
ENCODING 319
SWIDTH 480 0
DWIDTH 8 0
BBX 8 19 0 -4
BITMAP
00
00
00
00
00
F0
60
60
60
60
6C
60
62
66
FE
00
00
00
00
ENDCHAR
STARTCHAR ldot
ENCODING 320
SWIDTH 480 0
DWIDTH 8 0
BBX 8 19 0 -4
BITMAP
00
00
00
00
00
38
18
18
18
18
1B
18
18
18
3C
00
00
00
00
ENDCHAR
STARTCHAR Lslash
ENCODING 321
SWIDTH 480 0
DWIDTH 8 0
BBX 8 19 0 -4
BITMAP
00
00
00
00
00
F0
64
6C
78
70
E0
E0
62
66
FE
00
00
00
00
ENDCHAR
STARTCHAR lslash
ENCODING 322
SWIDTH 480 0
DWIDTH 8 0
BBX 8 19 0 -4
BITMAP
00
00
00
00
00
38
1A
1E
1C
18
38
78
58
18
3C
00
00
00
00
ENDCHAR
STARTCHAR Nacute
ENCODING 323
SWIDTH 480 0
DWIDTH 8 0
BBX 8 19 0 -4
BITMAP
00
00
00
0C
18
00
C6
E6
F6
FE
DE
CE
C6
C6
C6
00
00
00
00
ENDCHAR
STARTCHAR nacute
ENCODING 324
SWIDTH 480 0
DWIDTH 8 0
BBX 8 19 0 -4
BITMAP
00
00
00
00
0C
18
30
00
DC
66
66
66
66
66
66
00
00
00
00
ENDCHAR
STARTCHAR uni0145
ENCODING 325
SWIDTH 480 0
DWIDTH 8 0
BBX 8 19 0 -4
BITMAP
00
00
00
00
00
00
C6
E6
F6
FE
DE
CE
C6
C6
C6
18
70
00
00
ENDCHAR
STARTCHAR uni0146
ENCODING 326
SWIDTH 480 0
DWIDTH 8 0
BBX 8 19 0 -4
BITMAP
00
00
00
00
00
00
00
00
DC
66
66
66
66
66
66
18
70
00
00
ENDCHAR
STARTCHAR Ncaron
ENCODING 327
SWIDTH 480 0
DWIDTH 8 0
BBX 8 19 0 -4
BITMAP
00
00
00
6C
38
00
C6
E6
F6
FE
DE
CE
C6
C6
C6
00
00
00
00
ENDCHAR
STARTCHAR ncaron
ENCODING 328
SWIDTH 480 0
DWIDTH 8 0
BBX 8 19 0 -4
BITMAP
00
00
00
00
00
6C
38
00
DC
66
66
66
66
66
66
00
00
00
00
ENDCHAR
STARTCHAR napostrophe
ENCODING 329
SWIDTH 480 0
DWIDTH 8 0
BBX 8 19 0 -4
BITMAP
00
00
00
00
60
60
60
C0
6E
33
33
33
33
33
33
00
00
00
00
ENDCHAR
STARTCHAR Eng
ENCODING 330
SWIDTH 480 0
DWIDTH 8 0
BBX 8 19 0 -4
BITMAP
00
00
00
00
00
DC
FE
E6
C6
C6
C6
C6
C6
C6
DC
00
00
00
00
ENDCHAR
STARTCHAR eng
ENCODING 331
SWIDTH 480 0
DWIDTH 8 0
BBX 8 19 0 -4
BITMAP
00
00
00
00
00
00
00
DC
FE
E6
C6
C6
C6
06
1C
00
00
00
00
ENDCHAR
STARTCHAR Omacron
ENCODING 332
SWIDTH 480 0
DWIDTH 8 0
BBX 8 19 0 -4
BITMAP
00
00
00
7C
00
7C
C6
C6
C6
C6
C6
C6
C6
C6
7C
00
00
00
00
ENDCHAR
STARTCHAR omacron
ENCODING 333
SWIDTH 480 0
DWIDTH 8 0
BBX 8 19 0 -4
BITMAP
00
00
00
00
00
00
7C
00
7C
C6
C6
C6
C6
C6
7C
00
00
00
00
ENDCHAR
STARTCHAR obreve
ENCODING 335
SWIDTH 480 0
DWIDTH 8 0
BBX 8 19 0 -4
BITMAP
00
00
00
00
00
C6
7C
00
7C
C6
C6
C6
C6
C6
FC
00
00
00
00
ENDCHAR
STARTCHAR Ohungarumlaut
ENCODING 336
SWIDTH 480 0
DWIDTH 8 0
BBX 8 19 0 -4
BITMAP
00
00
00
36
6C
00
7C
C6
C6
C6
C6
C6
C6
C6
7C
00
00
00
00
ENDCHAR
STARTCHAR ohungarumlaut
ENCODING 337
SWIDTH 480 0
DWIDTH 8 0
BBX 8 19 0 -4
BITMAP
00
00
00
00
00
36
6C
00
7C
C6
C6
C6
C6
C6
7C
00
00
00
00
ENDCHAR
STARTCHAR oe
ENCODING 339
SWIDTH 480 0
DWIDTH 8 0
BBX 8 19 0 -4
BITMAP
00
00
00
00
00
00
00
00
00
00
00
00
00
00
00
00
00
00
00
ENDCHAR
STARTCHAR Racute
ENCODING 340
SWIDTH 480 0
DWIDTH 8 0
BBX 8 19 0 -4
BITMAP
00
00
00
18
30
00
FC
66
66
66
7C
6C
66
66
F6
00
00
00
00
ENDCHAR
STARTCHAR racute
ENCODING 341
SWIDTH 480 0
DWIDTH 8 0
BBX 8 19 0 -4
BITMAP
00
00
00
00
0C
18
30
00
DC
76
66
60
60
60
F0
00
00
00
00
ENDCHAR
STARTCHAR uni0156
ENCODING 342
SWIDTH 480 0
DWIDTH 8 0
BBX 8 19 0 -4
BITMAP
00
00
00
00
00
FC
66
66
66
7C
6C
66
66
66
F6
18
78
00
00
ENDCHAR
STARTCHAR uni0157
ENCODING 343
SWIDTH 480 0
DWIDTH 8 0
BBX 8 19 0 -4
BITMAP
00
00
00
00
00
00
00
00
DC
76
66
60
60
60
F0
18
F0
00
00
ENDCHAR
STARTCHAR Rcaron
ENCODING 344
SWIDTH 480 0
DWIDTH 8 0
BBX 8 19 0 -4
BITMAP
00
00
00
6C
38
00
FC
66
66
66
7C
6C
66
66
F6
00
00
00
00
ENDCHAR
STARTCHAR rcaron
ENCODING 345
SWIDTH 480 0
DWIDTH 8 0
BBX 8 19 0 -4
BITMAP
00
00
00
00
00
6C
38
00
DC
76
66
60
60
60
F0
00
00
00
00
ENDCHAR
STARTCHAR Sacute
ENCODING 346
SWIDTH 480 0
DWIDTH 8 0
BBX 8 19 0 -4
BITMAP
00
00
00
18
30
00
7C
C6
C6
60
38
0C
C6
C6
7C
00
00
00
00
ENDCHAR
STARTCHAR sacute
ENCODING 347
SWIDTH 480 0
DWIDTH 8 0
BBX 8 19 0 -4
BITMAP
00
00
00
00
00
0C
18
00
7C
C6
60
38
0C
C6
7C
00
00
00
00
ENDCHAR
STARTCHAR Scircumflex
ENCODING 348
SWIDTH 480 0
DWIDTH 8 0
BBX 8 19 0 -4
BITMAP
00
00
00
38
6C
00
7C
C6
C6
60
38
0C
C6
C6
7C
00
00
00
00
ENDCHAR
STARTCHAR scircumflex
ENCODING 349
SWIDTH 480 0
DWIDTH 8 0
BBX 8 19 0 -4
BITMAP
00
00
00
00
10
38
6C
00
7C
C6
60
38
0C
C6
7C
00
00
00
00
ENDCHAR
STARTCHAR Scedilla
ENCODING 350
SWIDTH 480 0
DWIDTH 8 0
BBX 8 19 0 -4
BITMAP
00
00
00
00
00
7C
C6
C6
60
38
0C
06
C6
C6
7C
18
0C
78
00
ENDCHAR
STARTCHAR scedilla
ENCODING 351
SWIDTH 480 0
DWIDTH 8 0
BBX 8 19 0 -4
BITMAP
00
00
00
00
00
00
00
00
7C
C6
60
38
0C
C6
7C
18
0C
78
00
ENDCHAR
STARTCHAR Scaron
ENCODING 352
SWIDTH 480 0
DWIDTH 8 0
BBX 8 19 0 -4
BITMAP
00
00
00
6C
38
00
7C
C6
C0
60
38
0C
06
C6
7C
00
00
00
00
ENDCHAR
STARTCHAR scaron
ENCODING 353
SWIDTH 480 0
DWIDTH 8 0
BBX 8 19 0 -4
BITMAP
00
00
00
00
00
6C
38
00
7C
C6
60
38
0C
C6
7C
00
00
00
00
ENDCHAR
STARTCHAR uni0162
ENCODING 354
SWIDTH 480 0
DWIDTH 8 0
BBX 8 19 0 -4
BITMAP
00
00
00
00
00
7E
7E
5A
18
18
18
18
18
18
3C
18
0C
78
00
ENDCHAR
STARTCHAR uni0163
ENCODING 355
SWIDTH 480 0
DWIDTH 8 0
BBX 8 19 0 -4
BITMAP
00
00
00
00
00
10
30
30
FC
30
30
30
30
36
1C
18
0C
78
00
ENDCHAR
STARTCHAR Tcaron
ENCODING 356
SWIDTH 480 0
DWIDTH 8 0
BBX 8 19 0 -4
BITMAP
00
00
00
66
3C
00
7E
7E
5A
18
18
18
18
18
3C
00
00
00
00
ENDCHAR
STARTCHAR tcaron
ENCODING 357
SWIDTH 480 0
DWIDTH 8 0
BBX 8 19 0 -4
BITMAP
00
00
00
6C
38
00
10
30
30
FC
30
30
30
36
1C
00
00
00
00
ENDCHAR
STARTCHAR Tbar
ENCODING 358
SWIDTH 480 0
DWIDTH 8 0
BBX 8 19 0 -4
BITMAP
00
00
00
00
00
7E
7E
5A
18
1E
3C
78
18
18
3C
00
00
00
00
ENDCHAR
STARTCHAR tbar
ENCODING 359
SWIDTH 480 0
DWIDTH 8 0
BBX 8 19 0 -4
BITMAP
00
00
00
00
00
10
30
30
FC
30
3C
78
F0
36
1C
00
00
00
00
ENDCHAR
STARTCHAR Utilde
ENCODING 360
SWIDTH 480 0
DWIDTH 8 0
BBX 8 19 0 -4
BITMAP
00
00
00
76
DC
00
C6
C6
C6
C6
C6
C6
C6
C6
7C
00
00
00
00
ENDCHAR
STARTCHAR utilde
ENCODING 361
SWIDTH 480 0
DWIDTH 8 0
BBX 8 19 0 -4
BITMAP
00
00
00
00
00
76
DC
00
CC
CC
CC
CC
CC
CC
76
00
00
00
00
ENDCHAR
STARTCHAR Umacron
ENCODING 362
SWIDTH 480 0
DWIDTH 8 0
BBX 8 19 0 -4
BITMAP
00
00
00
7C
00
C6
C6
C6
C6
C6
C6
C6
C6
C6
7C
00
00
00
00
ENDCHAR
STARTCHAR umacron
ENCODING 363
SWIDTH 480 0
DWIDTH 8 0
BBX 8 19 0 -4
BITMAP
00
00
00
00
00
00
78
00
CC
CC
CC
CC
CC
CC
76
00
00
00
00
ENDCHAR
STARTCHAR Ubreve
ENCODING 364
SWIDTH 480 0
DWIDTH 8 0
BBX 8 19 0 -4
BITMAP
00
00
00
C6
7C
00
C6
C6
C6
C6
C6
C6
C6
C6
7C
00
00
00
00
ENDCHAR
STARTCHAR ubreve
ENCODING 365
SWIDTH 480 0
DWIDTH 8 0
BBX 8 19 0 -4
BITMAP
00
00
00
00
00
CC
78
00
CC
CC
CC
CC
CC
CC
76
00
00
00
00
ENDCHAR
STARTCHAR Uring
ENCODING 366
SWIDTH 480 0
DWIDTH 8 0
BBX 8 19 0 -4
BITMAP
00
00
00
38
6C
38
00
C6
C6
C6
C6
C6
C6
C6
7C
00
00
00
00
ENDCHAR
STARTCHAR uring
ENCODING 367
SWIDTH 480 0
DWIDTH 8 0
BBX 8 19 0 -4
BITMAP
00
00
00
00
78
CC
78
00
CC
CC
CC
CC
CC
CC
76
00
00
00
00
ENDCHAR
STARTCHAR Uhungarumlaut
ENCODING 368
SWIDTH 480 0
DWIDTH 8 0
BBX 8 19 0 -4
BITMAP
00
00
00
36
6C
00
C6
C6
C6
C6
C6
C6
C6
C6
7C
00
00
00
00
ENDCHAR
STARTCHAR uhungarumlaut
ENCODING 369
SWIDTH 480 0
DWIDTH 8 0
BBX 8 19 0 -4
BITMAP
00
00
00
00
00
36
6C
00
CC
CC
CC
CC
CC
CC
76
00
00
00
00
ENDCHAR
STARTCHAR Uogonek
ENCODING 370
SWIDTH 480 0
DWIDTH 8 0
BBX 8 19 0 -4
BITMAP
00
00
00
00
00
C6
C6
C6
C6
C6
C6
C6
C6
C6
7C
60
3C
00
00
ENDCHAR
STARTCHAR uogonek
ENCODING 371
SWIDTH 480 0
DWIDTH 8 0
BBX 8 19 0 -4
BITMAP
00
00
00
00
00
00
00
00
CC
CC
CC
CC
CC
CC
76
60
3C
00
00
ENDCHAR
STARTCHAR Ydieresis
ENCODING 376
SWIDTH 480 0
DWIDTH 8 0
BBX 8 19 0 -4
BITMAP
00
00
00
C6
00
66
66
66
66
3C
18
18
18
18
BC
00
00
00
00
ENDCHAR
STARTCHAR Zacute
ENCODING 377
SWIDTH 480 0
DWIDTH 8 0
BBX 8 19 0 -4
BITMAP
00
00
00
18
30
00
FE
86
0C
18
30
60
C2
C6
FE
00
00
00
00
ENDCHAR
STARTCHAR zacute
ENCODING 378
SWIDTH 480 0
DWIDTH 8 0
BBX 8 19 0 -4
BITMAP
00
00
00
00
0C
18
30
00
FE
CC
18
30
60
C6
FE
00
00
00
00
ENDCHAR
STARTCHAR Zdotaccent
ENCODING 379
SWIDTH 480 0
DWIDTH 8 0
BBX 8 19 0 -4
BITMAP
00
00
00
18
18
00
FE
86
0C
18
30
60
C2
C6
FE
00
00
00
00
ENDCHAR
STARTCHAR zdotaccent
ENCODING 380
SWIDTH 480 0
DWIDTH 8 0
BBX 8 19 0 -4
BITMAP
00
00
00
00
00
18
18
00
FE
CC
18
30
60
C6
FE
00
00
00
00
ENDCHAR
STARTCHAR Zcaron
ENCODING 381
SWIDTH 480 0
DWIDTH 8 0
BBX 8 19 0 -4
BITMAP
00
00
00
6C
38
00
FE
C6
8C
18
30
60
C2
C6
FE
00
00
00
00
ENDCHAR
STARTCHAR zcaron
ENCODING 382
SWIDTH 480 0
DWIDTH 8 0
BBX 8 19 0 -4
BITMAP
00
00
00
00
00
6C
38
00
FE
CC
18
30
60
C6
FE
00
00
00
00
ENDCHAR
STARTCHAR uni018F
ENCODING 399
SWIDTH 480 0
DWIDTH 8 0
BBX 8 19 0 -4
BITMAP
00
00
00
00
00
00
00
7E
C3
03
03
FF
C3
C3
7E
00
00
00
00
ENDCHAR
STARTCHAR uni01DD
ENCODING 477
SWIDTH 480 0
DWIDTH 8 0
BBX 8 19 0 -4
BITMAP
00
00
00
00
00
00
00
00
7C
C6
06
06
FE
C6
7C
00
00
00
00
ENDCHAR
STARTCHAR uni0200
ENCODING 512
SWIDTH 480 0
DWIDTH 8 0
BBX 8 19 0 -4
BITMAP
00
00
CC
66
33
10
38
6C
C6
C6
FE
C6
C6
C6
C6
00
00
00
00
ENDCHAR
STARTCHAR uni0201
ENCODING 513
SWIDTH 480 0
DWIDTH 8 0
BBX 8 19 0 -4
BITMAP
00
00
00
00
CC
66
33
00
78
0C
7C
CC
CC
CC
76
00
00
00
00
ENDCHAR
STARTCHAR uni0204
ENCODING 516
SWIDTH 480 0
DWIDTH 8 0
BBX 8 19 0 -4
BITMAP
00
00
CC
66
33
FE
66
62
68
78
68
60
62
66
FE
00
00
00
00
ENDCHAR
STARTCHAR uni0205
ENCODING 517
SWIDTH 480 0
DWIDTH 8 0
BBX 8 19 0 -4
BITMAP
00
00
00
00
CC
66
33
00
7C
C6
FE
C0
C0
C6
7C
00
00
00
00
ENDCHAR
STARTCHAR uni0208
ENCODING 520
SWIDTH 480 0
DWIDTH 8 0
BBX 8 19 0 -4
BITMAP
00
00
8C
C6
63
3C
18
18
18
18
18
18
18
18
3C
00
00
00
00
ENDCHAR
STARTCHAR uni0209
ENCODING 521
SWIDTH 480 0
DWIDTH 8 0
BBX 8 19 0 -4
BITMAP
00
00
98
CC
66
18
18
00
38
18
18
18
18
18
3C
00
00
00
00
ENDCHAR
STARTCHAR uni020C
ENCODING 524
SWIDTH 480 0
DWIDTH 8 0
BBX 8 19 0 -4
BITMAP
00
00
CC
66
33
7C
C6
C6
C6
C6
C6
C6
C6
C6
7C
00
00
00
00
ENDCHAR
STARTCHAR uni020D
ENCODING 525
SWIDTH 480 0
DWIDTH 8 0
BBX 8 19 0 -4
BITMAP
00
00
00
00
CC
66
33
00
7C
C6
C6
C6
C6
C6
7C
00
00
00
00
ENDCHAR
STARTCHAR uni0210
ENCODING 528
SWIDTH 480 0
DWIDTH 8 0
BBX 8 19 0 -4
BITMAP
00
00
CC
66
33
FC
66
66
66
7C
6C
66
66
66
E6
00
00
00
00
ENDCHAR
STARTCHAR uni0211
ENCODING 529
SWIDTH 480 0
DWIDTH 8 0
BBX 8 19 0 -4
BITMAP
00
00
00
00
CC
66
33
00
DC
76
66
60
60
60
F0
00
00
00
00
ENDCHAR
STARTCHAR uni0214
ENCODING 532
SWIDTH 480 0
DWIDTH 8 0
BBX 8 19 0 -4
BITMAP
00
00
CC
66
33
C6
C6
C6
C6
C6
C6
C6
C6
C6
7C
00
00
00
00
ENDCHAR
STARTCHAR uni0215
ENCODING 533
SWIDTH 480 0
DWIDTH 8 0
BBX 8 19 0 -4
BITMAP
00
00
00
00
CC
66
33
00
CC
CC
CC
CC
CC
CC
76
00
00
00
00
ENDCHAR
STARTCHAR uni0258
ENCODING 600
SWIDTH 480 0
DWIDTH 8 0
BBX 8 19 0 -4
BITMAP
00
00
00
00
00
00
00
00
7C
C6
FE
06
06
C6
7C
00
00
00
00
ENDCHAR
STARTCHAR uni0259
ENCODING 601
SWIDTH 480 0
DWIDTH 8 0
BBX 8 19 0 -4
BITMAP
00
00
00
00
00
00
00
00
7C
C6
06
06
FE
C6
7C
00
00
00
00
ENDCHAR
STARTCHAR caron
ENCODING 711
SWIDTH 480 0
DWIDTH 8 0
BBX 8 19 0 -4
BITMAP
00
00
00
00
6C
38
00
00
00
00
00
00
00
00
00
00
00
00
00
ENDCHAR
STARTCHAR breve
ENCODING 728
SWIDTH 480 0
DWIDTH 8 0
BBX 8 19 0 -4
BITMAP
00
00
00
00
C6
7C
00
00
00
00
00
00
00
00
00
00
00
00
00
ENDCHAR
STARTCHAR dotaccent
ENCODING 729
SWIDTH 480 0
DWIDTH 8 0
BBX 8 19 0 -4
BITMAP
00
00
00
00
18
18
00
00
00
00
00
00
00
00
00
00
00
00
00
ENDCHAR
STARTCHAR ogonek
ENCODING 731
SWIDTH 480 0
DWIDTH 8 0
BBX 8 19 0 -4
BITMAP
00
00
00
00
00
00
00
00
00
00
00
00
00
00
00
30
60
3C
00
ENDCHAR
STARTCHAR uni0376
ENCODING 886
SWIDTH 480 0
DWIDTH 8 0
BBX 8 19 0 -4
BITMAP
00
00
00
00
00
C6
CE
DE
FE
F6
E6
C6
C6
C6
C6
00
00
00
00
ENDCHAR
STARTCHAR uni0377
ENCODING 887
SWIDTH 480 0
DWIDTH 8 0
BBX 8 19 0 -4
BITMAP
00
00
00
00
00
00
00
00
C6
CE
DE
F6
E6
C6
C6
00
00
00
00
ENDCHAR
STARTCHAR tonos
ENCODING 900
SWIDTH 480 0
DWIDTH 8 0
BBX 8 19 0 -4
BITMAP
00
00
00
06
0C
18
00
00
00
00
00
00
00
00
00
00
00
00
00
ENDCHAR
STARTCHAR dieresistonos
ENCODING 901
SWIDTH 480 0
DWIDTH 8 0
BBX 8 19 0 -4
BITMAP
00
00
00
06
0C
18
C3
00
00
00
00
00
00
00
00
00
00
00
00
ENDCHAR
STARTCHAR Alphatonos
ENCODING 902
SWIDTH 480 0
DWIDTH 8 0
BBX 8 19 0 -4
BITMAP
00
00
00
00
C0
90
B8
6C
C6
C6
FE
C6
C6
C6
C6
00
00
00
00
ENDCHAR
STARTCHAR Epsilontonos
ENCODING 904
SWIDTH 480 0
DWIDTH 8 0
BBX 8 19 0 -4
BITMAP
00
00
00
00
00
BF
B1
30
30
3E
30
30
31
31
3F
00
00
00
00
ENDCHAR
STARTCHAR Etatonos
ENCODING 905
SWIDTH 480 0
DWIDTH 8 0
BBX 8 19 0 -4
BITMAP
00
00
00
00
00
B3
B3
33
33
3F
33
33
33
33
00
00
00
00
00
ENDCHAR
STARTCHAR Iotatonos
ENCODING 906
SWIDTH 480 0
DWIDTH 8 0
BBX 8 19 0 -4
BITMAP
00
00
00
00
00
BC
98
18
18
18
18
18
18
18
3C
00
00
00
00
ENDCHAR
STARTCHAR Omicrontonos
ENCODING 908
SWIDTH 480 0
DWIDTH 8 0
BBX 8 19 0 -4
BITMAP
00
00
00
00
00
9E
B3
33
33
33
33
33
33
1E
00
00
00
00
00
ENDCHAR
STARTCHAR Upsilontonos
ENCODING 910
SWIDTH 480 0
DWIDTH 8 0
BBX 8 19 0 -4
BITMAP
00
00
00
00
00
B3
B3
33
33
1E
0C
0C
0C
0C
1E
00
00
00
00
ENDCHAR
STARTCHAR Omegatonos
ENCODING 911
SWIDTH 480 0
DWIDTH 8 0
BBX 8 19 0 -4
BITMAP
00
00
00
00
00
9E
B3
21
21
21
21
21
33
12
33
00
00
00
00
ENDCHAR
STARTCHAR iotadieresistonos
ENCODING 912
SWIDTH 480 0
DWIDTH 8 0
BBX 8 19 0 -4
BITMAP
00
00
00
0C
08
00
66
00
18
18
18
18
18
18
0E
00
00
00
00
ENDCHAR
STARTCHAR Alpha
ENCODING 913
SWIDTH 480 0
DWIDTH 8 0
BBX 8 19 0 -4
BITMAP
00
00
00
00
00
10
38
6C
C6
C6
FE
C6
C6
C6
C6
00
00
00
00
ENDCHAR
STARTCHAR Beta
ENCODING 914
SWIDTH 480 0
DWIDTH 8 0
BBX 8 19 0 -4
BITMAP
00
00
00
00
00
FC
66
66
66
7C
66
66
66
66
FC
00
00
00
00
ENDCHAR
STARTCHAR Gamma
ENCODING 915
SWIDTH 480 0
DWIDTH 8 0
BBX 8 19 0 -4
BITMAP
00
00
00
00
00
FE
62
60
60
60
60
60
60
60
F0
00
00
00
00
ENDCHAR
STARTCHAR uni0394
ENCODING 916
SWIDTH 480 0
DWIDTH 8 0
BBX 8 19 0 -4
BITMAP
00
00
00
00
00
10
38
6C
C6
C6
C6
C6
C6
C6
FE
00
00
00
00
ENDCHAR
STARTCHAR Epsilon
ENCODING 917
SWIDTH 480 0
DWIDTH 8 0
BBX 8 19 0 -4
BITMAP
00
00
00
00
00
FE
66
62
68
78
68
60
62
66
FE
00
00
00
00
ENDCHAR
STARTCHAR Zeta
ENCODING 918
SWIDTH 480 0
DWIDTH 8 0
BBX 8 19 0 -4
BITMAP
00
00
00
00
00
FE
C6
86
0C
18
30
60
C2
C6
FE
00
00
00
00
ENDCHAR
STARTCHAR Eta
ENCODING 919
SWIDTH 480 0
DWIDTH 8 0
BBX 8 19 0 -4
BITMAP
00
00
00
00
00
C6
C6
C6
C6
FE
C6
C6
C6
C6
C6
00
00
00
00
ENDCHAR
STARTCHAR Theta
ENCODING 920
SWIDTH 480 0
DWIDTH 8 0
BBX 8 19 0 -4
BITMAP
00
00
00
00
00
7C
C6
C6
C6
FE
C6
C6
C6
C6
7C
00
00
00
00
ENDCHAR
STARTCHAR Iota
ENCODING 921
SWIDTH 480 0
DWIDTH 8 0
BBX 8 19 0 -4
BITMAP
00
00
00
00
00
3C
18
18
18
18
18
18
18
18
3C
00
00
00
00
ENDCHAR
STARTCHAR Kappa
ENCODING 922
SWIDTH 480 0
DWIDTH 8 0
BBX 8 19 0 -4
BITMAP
00
00
00
00
00
E6
66
66
6C
78
78
6C
66
66
E6
00
00
00
00
ENDCHAR
STARTCHAR Lambda
ENCODING 923
SWIDTH 480 0
DWIDTH 8 0
BBX 8 19 0 -4
BITMAP
00
00
00
00
00
10
38
6C
C6
C6
C6
C6
C6
C6
C6
00
00
00
00
ENDCHAR
STARTCHAR Mu
ENCODING 924
SWIDTH 480 0
DWIDTH 8 0
BBX 8 19 0 -4
BITMAP
00
00
00
00
00
C6
EE
FE
FE
D6
C6
C6
C6
C6
C6
00
00
00
00
ENDCHAR
STARTCHAR Nu
ENCODING 925
SWIDTH 480 0
DWIDTH 8 0
BBX 8 19 0 -4
BITMAP
00
00
00
00
00
C6
E6
F6
FE
DE
CE
C6
C6
C6
C6
00
00
00
00
ENDCHAR
STARTCHAR Xi
ENCODING 926
SWIDTH 480 0
DWIDTH 8 0
BBX 8 19 0 -4
BITMAP
00
00
00
00
00
FE
82
00
00
7C
00
00
00
82
FE
00
00
00
00
ENDCHAR
STARTCHAR Omicron
ENCODING 927
SWIDTH 480 0
DWIDTH 8 0
BBX 8 19 0 -4
BITMAP
00
00
00
00
00
7C
C6
C6
C6
C6
C6
C6
C6
C6
7C
00
00
00
00
ENDCHAR
STARTCHAR Pi
ENCODING 928
SWIDTH 480 0
DWIDTH 8 0
BBX 8 19 0 -4
BITMAP
00
00
00
00
00
FE
C6
C6
C6
C6
C6
C6
C6
C6
C6
00
00
00
00
ENDCHAR
STARTCHAR Rho
ENCODING 929
SWIDTH 480 0
DWIDTH 8 0
BBX 8 19 0 -4
BITMAP
00
00
00
00
00
FC
66
66
66
7C
60
60
60
60
F0
00
00
00
00
ENDCHAR
STARTCHAR Sigma
ENCODING 931
SWIDTH 480 0
DWIDTH 8 0
BBX 8 19 0 -4
BITMAP
00
00
00
00
00
FE
C0
60
30
18
18
30
60
C0
FE
00
00
00
00
ENDCHAR
STARTCHAR Tau
ENCODING 932
SWIDTH 480 0
DWIDTH 8 0
BBX 8 19 0 -4
BITMAP
00
00
00
00
00
7E
7E
5A
18
18
18
18
18
18
3C
00
00
00
00
ENDCHAR
STARTCHAR Upsilon
ENCODING 933
SWIDTH 480 0
DWIDTH 8 0
BBX 8 19 0 -4
BITMAP
00
00
00
00
00
66
66
66
66
3C
18
18
18
18
3C
00
00
00
00
ENDCHAR
STARTCHAR Phi
ENCODING 934
SWIDTH 480 0
DWIDTH 8 0
BBX 8 19 0 -4
BITMAP
00
00
00
00
00
3C
18
7E
99
99
99
7E
18
18
3C
00
00
00
00
ENDCHAR
STARTCHAR Chi
ENCODING 935
SWIDTH 480 0
DWIDTH 8 0
BBX 8 19 0 -4
BITMAP
00
00
00
00
00
C6
C6
6C
7C
38
38
7C
6C
C6
C6
00
00
00
00
ENDCHAR
STARTCHAR Psi
ENCODING 936
SWIDTH 480 0
DWIDTH 8 0
BBX 8 19 0 -4
BITMAP
00
00
00
00
00
18
DB
DB
DB
DB
DB
7E
18
18
3C
00
00
00
00
ENDCHAR
STARTCHAR uni03A9
ENCODING 937
SWIDTH 480 0
DWIDTH 8 0
BBX 8 19 0 -4
BITMAP
00
00
00
00
00
3C
66
C3
C3
C3
C3
C3
66
24
E7
00
00
00
00
ENDCHAR
STARTCHAR Iotadieresis
ENCODING 938
SWIDTH 480 0
DWIDTH 8 0
BBX 8 19 0 -4
BITMAP
00
00
00
00
C3
18
18
18
18
18
18
18
18
18
18
00
00
00
00
ENDCHAR
STARTCHAR Upsilondieresis
ENCODING 939
SWIDTH 480 0
DWIDTH 8 0
BBX 8 19 0 -4
BITMAP
00
00
00
C3
00
66
66
66
66
3C
18
18
18
18
3C
00
00
00
00
ENDCHAR
STARTCHAR alphatonos
ENCODING 940
SWIDTH 480 0
DWIDTH 8 0
BBX 8 19 0 -4
BITMAP
00
00
00
00
00
38
10
00
7B
CE
CC
CC
CC
CC
7B
00
00
00
00
ENDCHAR
STARTCHAR epsilontonos
ENCODING 941
SWIDTH 480 0
DWIDTH 8 0
BBX 8 19 0 -4
BITMAP
00
00
00
00
00
38
10
00
7C
C6
C0
78
C0
C6
7C
00
00
00
00
ENDCHAR
STARTCHAR etatonos
ENCODING 942
SWIDTH 480 0
DWIDTH 8 0
BBX 8 19 0 -4
BITMAP
00
00
00
00
00
38
10
00
DC
66
66
66
66
66
66
06
06
06
00
ENDCHAR
STARTCHAR iotatonos
ENCODING 943
SWIDTH 480 0
DWIDTH 8 0
BBX 8 19 0 -4
BITMAP
00
00
00
00
00
38
10
00
18
18
18
18
18
18
0E
00
00
00
00
ENDCHAR
STARTCHAR upsilondieresistonos
ENCODING 944
SWIDTH 480 0
DWIDTH 8 0
BBX 8 19 0 -4
BITMAP
00
00
00
00
18
C3
00
00
E7
66
66
66
66
66
3C
00
00
00
00
ENDCHAR
STARTCHAR alpha
ENCODING 945
SWIDTH 480 0
DWIDTH 8 0
BBX 8 19 0 -4
BITMAP
00
00
00
00
00
00
00
00
7B
CE
CC
CC
CC
CC
7B
00
00
00
00
ENDCHAR
STARTCHAR beta
ENCODING 946
SWIDTH 480 0
DWIDTH 8 0
BBX 8 19 0 -4
BITMAP
00
00
00
00
00
7C
C6
C6
C6
C6
FC
C6
C6
C6
FC
C0
C0
C0
00
ENDCHAR
STARTCHAR gamma
ENCODING 947
SWIDTH 480 0
DWIDTH 8 0
BBX 8 19 0 -4
BITMAP
00
00
00
00
00
00
00
00
C3
66
3C
18
3C
66
42
66
3C
00
00
ENDCHAR
STARTCHAR delta
ENCODING 948
SWIDTH 480 0
DWIDTH 8 0
BBX 8 19 0 -4
BITMAP
00
00
00
00
7C
60
30
18
78
CC
CC
CC
CC
CC
78
00
00
00
00
ENDCHAR
STARTCHAR epsilon
ENCODING 949
SWIDTH 480 0
DWIDTH 8 0
BBX 8 19 0 -4
BITMAP
00
00
00
00
00
00
00
00
7C
C6
C0
78
C0
C6
7C
00
00
00
00
ENDCHAR
STARTCHAR zeta
ENCODING 950
SWIDTH 480 0
DWIDTH 8 0
BBX 8 19 0 -4
BITMAP
00
00
00
00
00
FC
0C
18
30
60
C0
C0
C0
C0
78
0C
0C
78
00
ENDCHAR
STARTCHAR eta
ENCODING 951
SWIDTH 480 0
DWIDTH 8 0
BBX 8 19 0 -4
BITMAP
00
00
00
00
00
00
00
00
DC
66
66
66
66
66
66
06
06
06
00
ENDCHAR
STARTCHAR theta
ENCODING 952
SWIDTH 480 0
DWIDTH 8 0
BBX 8 19 0 -4
BITMAP
00
00
00
00
00
3E
63
63
63
7F
63
63
63
63
3E
00
00
00
00
ENDCHAR
STARTCHAR iota
ENCODING 953
SWIDTH 480 0
DWIDTH 8 0
BBX 8 19 0 -4
BITMAP
00
00
00
00
00
00
00
00
18
18
18
18
18
18
0E
00
00
00
00
ENDCHAR
STARTCHAR kappa
ENCODING 954
SWIDTH 480 0
DWIDTH 8 0
BBX 8 19 0 -4
BITMAP
00
00
00
00
00
00
00
00
E6
6C
78
78
6C
66
E6
00
00
00
00
ENDCHAR
STARTCHAR lambda
ENCODING 955
SWIDTH 480 0
DWIDTH 8 0
BBX 8 19 0 -4
BITMAP
00
00
00
00
00
38
6C
0C
0C
0C
36
66
66
66
66
00
00
00
00
ENDCHAR
STARTCHAR uni03BC
ENCODING 956
SWIDTH 480 0
DWIDTH 8 0
BBX 8 19 0 -4
BITMAP
00
00
00
00
00
00
00
00
66
66
66
66
66
66
7F
60
60
60
00
ENDCHAR
STARTCHAR nu
ENCODING 957
SWIDTH 480 0
DWIDTH 8 0
BBX 8 19 0 -4
BITMAP
00
00
00
00
00
00
00
00
82
C6
C6
6C
6C
38
38
00
00
00
00
ENDCHAR
STARTCHAR xi
ENCODING 958
SWIDTH 480 0
DWIDTH 8 0
BBX 8 19 0 -4
BITMAP
00
00
00
00
00
FC
60
C0
78
30
60
C0
C0
C0
7C
06
06
3C
00
ENDCHAR
STARTCHAR omicron
ENCODING 959
SWIDTH 480 0
DWIDTH 8 0
BBX 8 19 0 -4
BITMAP
00
00
00
00
00
00
00
00
7C
C6
C6
C6
C6
C6
7C
00
00
00
00
ENDCHAR
STARTCHAR pi
ENCODING 960
SWIDTH 480 0
DWIDTH 8 0
BBX 8 19 0 -4
BITMAP
00
00
00
00
00
00
00
00
FF
66
66
66
66
66
66
00
00
00
00
ENDCHAR
STARTCHAR rho
ENCODING 961
SWIDTH 480 0
DWIDTH 8 0
BBX 8 19 0 -4
BITMAP
00
00
00
00
00
00
00
00
3C
66
66
66
66
66
7C
60
60
60
00
ENDCHAR
STARTCHAR sigma1
ENCODING 962
SWIDTH 480 0
DWIDTH 8 0
BBX 8 19 0 -4
BITMAP
00
00
00
00
00
00
00
00
3E
63
C0
C0
60
38
0C
C6
7C
00
00
ENDCHAR
STARTCHAR sigma
ENCODING 963
SWIDTH 480 0
DWIDTH 8 0
BBX 8 19 0 -4
BITMAP
00
00
00
00
00
00
00
00
7F
CC
CC
CC
CC
CC
78
00
00
00
00
ENDCHAR
STARTCHAR tau
ENCODING 964
SWIDTH 480 0
DWIDTH 8 0
BBX 8 19 0 -4
BITMAP
00
00
00
00
00
00
00
00
7C
30
30
30
30
36
1C
00
00
00
00
ENDCHAR
STARTCHAR upsilon
ENCODING 965
SWIDTH 480 0
DWIDTH 8 0
BBX 8 19 0 -4
BITMAP
00
00
00
00
00
00
00
00
E7
66
66
66
66
66
3C
00
00
00
00
ENDCHAR
STARTCHAR phi
ENCODING 966
SWIDTH 480 0
DWIDTH 8 0
BBX 8 19 0 -4
BITMAP
00
00
00
00
00
00
00
00
5C
D6
D6
D6
D6
D6
7C
10
10
10
00
ENDCHAR
STARTCHAR chi
ENCODING 967
SWIDTH 480 0
DWIDTH 8 0
BBX 8 19 0 -4
BITMAP
00
00
00
00
00
00
00
00
C6
6C
38
38
38
6C
C6
00
00
00
00
ENDCHAR
STARTCHAR psi
ENCODING 968
SWIDTH 480 0
DWIDTH 8 0
BBX 8 19 0 -4
BITMAP
00
00
00
00
00
00
00
00
D6
D6
D6
D6
D6
D6
7C
10
10
10
00
ENDCHAR
STARTCHAR omega
ENCODING 969
SWIDTH 480 0
DWIDTH 8 0
BBX 8 19 0 -4
BITMAP
00
00
00
00
00
00
00
00
66
C3
C3
C3
DB
FF
66
00
00
00
00
ENDCHAR
STARTCHAR iotadieresis
ENCODING 970
SWIDTH 480 0
DWIDTH 8 0
BBX 8 19 0 -4
BITMAP
00
00
00
00
00
C3
00
00
18
18
18
18
18
18
0E
00
00
00
00
ENDCHAR
STARTCHAR upsilondieresis
ENCODING 971
SWIDTH 480 0
DWIDTH 8 0
BBX 8 19 0 -4
BITMAP
00
00
00
00
00
C3
00
00
E7
66
66
66
66
66
3C
00
00
00
00
ENDCHAR
STARTCHAR omicrontonos
ENCODING 972
SWIDTH 480 0
DWIDTH 8 0
BBX 8 19 0 -4
BITMAP
00
00
00
00
00
38
10
00
7C
C6
C6
C6
C6
C6
7C
00
00
00
00
ENDCHAR
STARTCHAR upsilontonos
ENCODING 973
SWIDTH 480 0
DWIDTH 8 0
BBX 8 19 0 -4
BITMAP
00
00
00
00
00
38
10
00
E7
66
66
66
66
66
3C
00
00
00
00
ENDCHAR
STARTCHAR omegatonos
ENCODING 974
SWIDTH 480 0
DWIDTH 8 0
BBX 8 19 0 -4
BITMAP
00
00
00
00
00
38
10
00
66
C3
C3
C3
DB
FF
66
00
00
00
00
ENDCHAR
STARTCHAR uni0400
ENCODING 1024
SWIDTH 480 0
DWIDTH 8 0
BBX 8 19 0 -4
BITMAP
00
30
18
0C
00
FE
66
62
68
78
68
60
62
66
FE
00
00
00
00
ENDCHAR
STARTCHAR uni0401
ENCODING 1025
SWIDTH 480 0
DWIDTH 8 0
BBX 8 19 0 -4
BITMAP
00
00
00
6C
00
FE
66
62
68
78
68
60
62
66
FE
00
00
00
00
ENDCHAR
STARTCHAR uni0402
ENCODING 1026
SWIDTH 480 0
DWIDTH 8 0
BBX 8 19 0 -4
BITMAP
00
00
00
00
00
F0
60
60
6C
76
66
66
66
66
E6
0C
00
00
00
ENDCHAR
STARTCHAR uni0403
ENCODING 1027
SWIDTH 480 0
DWIDTH 8 0
BBX 8 19 0 -4
BITMAP
00
00
00
18
10
FE
66
62
60
60
60
60
60
60
F0
00
00
00
00
ENDCHAR
STARTCHAR uni0404
ENCODING 1028
SWIDTH 480 0
DWIDTH 8 0
BBX 8 19 0 -4
BITMAP
00
00
00
00
00
7C
C6
C0
C8
F8
C8
C0
C0
C6
7C
00
00
00
00
ENDCHAR
STARTCHAR uni0405
ENCODING 1029
SWIDTH 480 0
DWIDTH 8 0
BBX 8 19 0 -4
BITMAP
00
00
00
00
00
7C
C6
C6
60
38
0C
06
C6
C6
7C
00
00
00
00
ENDCHAR
STARTCHAR uni0406
ENCODING 1030
SWIDTH 480 0
DWIDTH 8 0
BBX 8 19 0 -4
BITMAP
00
00
00
00
00
3C
18
18
18
18
18
18
18
18
3C
00
00
00
00
ENDCHAR
STARTCHAR uni0407
ENCODING 1031
SWIDTH 480 0
DWIDTH 8 0
BBX 8 19 0 -4
BITMAP
00
00
00
66
00
3C
18
18
18
18
18
18
18
18
3C
00
00
00
00
ENDCHAR
STARTCHAR uni0408
ENCODING 1032
SWIDTH 480 0
DWIDTH 8 0
BBX 8 19 0 -4
BITMAP
00
00
00
00
00
1E
0C
0C
0C
0C
0C
CC
CC
CC
78
00
00
00
00
ENDCHAR
STARTCHAR uni0409
ENCODING 1033
SWIDTH 480 0
DWIDTH 8 0
BBX 8 19 0 -4
BITMAP
00
00
00
00
00
7C
6C
6C
6C
6E
6D
6D
6D
6D
CE
00
00
00
00
ENDCHAR
STARTCHAR uni040A
ENCODING 1034
SWIDTH 480 0
DWIDTH 8 0
BBX 8 19 0 -4
BITMAP
00
00
00
00
00
CC
CC
CC
CC
FE
CD
CD
CD
CD
CE
00
00
00
00
ENDCHAR
STARTCHAR uni040B
ENCODING 1035
SWIDTH 480 0
DWIDTH 8 0
BBX 8 19 0 -4
BITMAP
00
00
00
00
F0
60
60
60
7C
66
66
66
66
66
E6
00
00
00
00
ENDCHAR
STARTCHAR uni040C
ENCODING 1036
SWIDTH 480 0
DWIDTH 8 0
BBX 8 19 0 -4
BITMAP
00
00
00
18
10
E6
66
6C
6C
78
78
6C
6C
66
E6
00
00
00
00
ENDCHAR
STARTCHAR uni040D
ENCODING 1037
SWIDTH 480 0
DWIDTH 8 0
BBX 8 19 0 -4
BITMAP
00
00
30
18
0C
C6
C6
C6
CE
DE
F6
E6
C6
C6
C6
00
00
00
00
ENDCHAR
STARTCHAR uni040E
ENCODING 1038
SWIDTH 480 0
DWIDTH 8 0
BBX 8 19 0 -4
BITMAP
00
00
00
6C
38
C6
C6
C6
C6
C6
7E
06
06
C6
7C
00
00
00
00
ENDCHAR
STARTCHAR uni040F
ENCODING 1039
SWIDTH 480 0
DWIDTH 8 0
BBX 8 19 0 -4
BITMAP
00
00
00
00
00
C6
C6
C6
C6
C6
C6
C6
C6
C6
FE
10
10
38
00
ENDCHAR
STARTCHAR uni0410
ENCODING 1040
SWIDTH 480 0
DWIDTH 8 0
BBX 8 19 0 -4
BITMAP
00
00
00
00
00
1E
36
66
C6
C6
FE
C6
C6
C6
C6
00
00
00
00
ENDCHAR
STARTCHAR uni0411
ENCODING 1041
SWIDTH 480 0
DWIDTH 8 0
BBX 8 19 0 -4
BITMAP
00
00
00
00
00
FE
62
60
60
7C
66
66
66
66
FC
00
00
00
00
ENDCHAR
STARTCHAR uni0412
ENCODING 1042
SWIDTH 480 0
DWIDTH 8 0
BBX 8 19 0 -4
BITMAP
00
00
00
00
00
FC
66
66
66
7C
66
66
66
66
FC
00
00
00
00
ENDCHAR
STARTCHAR uni0413
ENCODING 1043
SWIDTH 480 0
DWIDTH 8 0
BBX 8 19 0 -4
BITMAP
00
00
00
00
00
FE
66
62
60
60
60
60
60
60
F0
00
00
00
00
ENDCHAR
STARTCHAR uni0414
ENCODING 1044
SWIDTH 480 0
DWIDTH 8 0
BBX 8 19 0 -4
BITMAP
00
00
00
00
00
1E
36
66
66
66
66
66
66
66
FF
C3
81
00
00
ENDCHAR
STARTCHAR uni0415
ENCODING 1045
SWIDTH 480 0
DWIDTH 8 0
BBX 8 19 0 -4
BITMAP
00
00
00
00
00
FE
66
62
68
78
68
60
62
66
FE
00
00
00
00
ENDCHAR
STARTCHAR uni0416
ENCODING 1046
SWIDTH 480 0
DWIDTH 8 0
BBX 8 19 0 -4
BITMAP
00
00
00
00
00
DB
DB
5A
5A
7E
7E
5A
DB
DB
DB
00
00
00
00
ENDCHAR
STARTCHAR uni0417
ENCODING 1047
SWIDTH 480 0
DWIDTH 8 0
BBX 8 19 0 -4
BITMAP
00
00
00
00
00
7C
C6
06
06
3C
06
06
06
C6
7C
00
00
00
00
ENDCHAR
STARTCHAR uni0418
ENCODING 1048
SWIDTH 480 0
DWIDTH 8 0
BBX 8 19 0 -4
BITMAP
00
00
00
00
00
C6
C6
C6
CE
DE
F6
E6
C6
C6
C6
00
00
00
00
ENDCHAR
STARTCHAR uni0419
ENCODING 1049
SWIDTH 480 0
DWIDTH 8 0
BBX 8 19 0 -4
BITMAP
00
00
00
6C
38
C6
C6
C6
CE
DE
F6
E6
C6
C6
C6
00
00
00
00
ENDCHAR
STARTCHAR uni041A
ENCODING 1050
SWIDTH 480 0
DWIDTH 8 0
BBX 8 19 0 -4
BITMAP
00
00
00
00
00
E6
66
6C
6C
78
78
6C
6C
66
E6
00
00
00
00
ENDCHAR
STARTCHAR uni041B
ENCODING 1051
SWIDTH 480 0
DWIDTH 8 0
BBX 8 19 0 -4
BITMAP
00
00
00
00
00
1F
36
66
66
66
66
66
66
66
CF
00
00
00
00
ENDCHAR
STARTCHAR uni041C
ENCODING 1052
SWIDTH 480 0
DWIDTH 8 0
BBX 8 19 0 -4
BITMAP
00
00
00
00
00
C6
EE
FE
FE
D6
C6
C6
C6
C6
C6
00
00
00
00
ENDCHAR
STARTCHAR uni041D
ENCODING 1053
SWIDTH 480 0
DWIDTH 8 0
BBX 8 19 0 -4
BITMAP
00
00
00
00
00
C6
C6
C6
C6
FE
C6
C6
C6
C6
C6
00
00
00
00
ENDCHAR
STARTCHAR uni041E
ENCODING 1054
SWIDTH 480 0
DWIDTH 8 0
BBX 8 19 0 -4
BITMAP
00
00
00
00
00
7C
C6
C6
C6
C6
C6
C6
C6
C6
7C
00
00
00
00
ENDCHAR
STARTCHAR uni041F
ENCODING 1055
SWIDTH 480 0
DWIDTH 8 0
BBX 8 19 0 -4
BITMAP
00
00
00
00
00
FE
C6
C6
C6
C6
C6
C6
C6
C6
C6
00
00
00
00
ENDCHAR
STARTCHAR uni0420
ENCODING 1056
SWIDTH 480 0
DWIDTH 8 0
BBX 8 19 0 -4
BITMAP
00
00
00
00
00
FC
66
66
66
66
7C
60
60
60
F0
00
00
00
00
ENDCHAR
STARTCHAR uni0421
ENCODING 1057
SWIDTH 480 0
DWIDTH 8 0
BBX 8 19 0 -4
BITMAP
00
00
00
00
00
7C
C6
C6
C0
C0
C0
C0
C2
C6
7C
00
00
00
00
ENDCHAR
STARTCHAR uni0422
ENCODING 1058
SWIDTH 480 0
DWIDTH 8 0
BBX 8 19 0 -4
BITMAP
00
00
00
00
00
FF
DB
99
18
18
18
18
18
18
3C
00
00
00
00
ENDCHAR
STARTCHAR uni0423
ENCODING 1059
SWIDTH 480 0
DWIDTH 8 0
BBX 8 19 0 -4
BITMAP
00
00
00
00
00
C6
C6
C6
C6
C6
7E
06
06
C6
7C
00
00
00
00
ENDCHAR
STARTCHAR uni0424
ENCODING 1060
SWIDTH 480 0
DWIDTH 8 0
BBX 8 19 0 -4
BITMAP
00
00
00
00
00
7E
DB
DB
DB
DB
DB
DB
7E
18
3C
00
00
00
00
ENDCHAR
STARTCHAR uni0425
ENCODING 1061
SWIDTH 480 0
DWIDTH 8 0
BBX 8 19 0 -4
BITMAP
00
00
00
00
00
C6
C6
6C
7C
38
38
7C
6C
C6
C6
00
00
00
00
ENDCHAR
STARTCHAR uni0426
ENCODING 1062
SWIDTH 480 0
DWIDTH 8 0
BBX 8 19 0 -4
BITMAP
00
00
00
00
00
C6
C6
C6
C6
C6
C6
C6
C6
C6
FF
03
03
00
00
ENDCHAR
STARTCHAR uni0427
ENCODING 1063
SWIDTH 480 0
DWIDTH 8 0
BBX 8 19 0 -4
BITMAP
00
00
00
00
00
C6
C6
C6
C6
C6
7E
06
06
06
06
00
00
00
00
ENDCHAR
STARTCHAR uni0428
ENCODING 1064
SWIDTH 480 0
DWIDTH 8 0
BBX 8 19 0 -4
BITMAP
00
00
00
00
00
D6
D6
D6
D6
D6
D6
D6
D6
D6
FE
00
00
00
00
ENDCHAR
STARTCHAR uni0429
ENCODING 1065
SWIDTH 480 0
DWIDTH 8 0
BBX 8 19 0 -4
BITMAP
00
00
00
00
00
D6
D6
D6
D6
D6
D6
D6
D6
D6
FF
03
03
00
00
ENDCHAR
STARTCHAR uni042A
ENCODING 1066
SWIDTH 480 0
DWIDTH 8 0
BBX 8 19 0 -4
BITMAP
00
00
00
00
00
F8
F0
B0
30
3E
33
33
33
33
7E
00
00
00
00
ENDCHAR
STARTCHAR uni042B
ENCODING 1067
SWIDTH 480 0
DWIDTH 8 0
BBX 8 19 0 -4
BITMAP
00
00
00
00
00
C3
C3
C3
C3
F3
DB
DB
DB
DB
F3
00
00
00
00
ENDCHAR
STARTCHAR uni042C
ENCODING 1068
SWIDTH 480 0
DWIDTH 8 0
BBX 8 19 0 -4
BITMAP
00
00
00
00
00
F0
60
60
60
7C
66
66
66
66
FC
00
00
00
00
ENDCHAR
STARTCHAR uni042D
ENCODING 1069
SWIDTH 480 0
DWIDTH 8 0
BBX 8 19 0 -4
BITMAP
00
00
00
00
00
7C
C6
06
26
3E
26
06
06
C6
7C
00
00
00
00
ENDCHAR
STARTCHAR uni042E
ENCODING 1070
SWIDTH 480 0
DWIDTH 8 0
BBX 8 19 0 -4
BITMAP
00
00
00
00
00
CE
DB
DB
DB
FB
DB
DB
DB
DB
CE
00
00
00
00
ENDCHAR
STARTCHAR uni042F
ENCODING 1071
SWIDTH 480 0
DWIDTH 8 0
BBX 8 19 0 -4
BITMAP
00
00
00
00
00
3F
66
66
66
3E
3E
66
66
66
E7
00
00
00
00
ENDCHAR
STARTCHAR uni0430
ENCODING 1072
SWIDTH 480 0
DWIDTH 8 0
BBX 8 19 0 -4
BITMAP
00
00
00
00
00
00
00
00
78
0C
7C
CC
CC
CC
76
00
00
00
00
ENDCHAR
STARTCHAR uni0431
ENCODING 1073
SWIDTH 480 0
DWIDTH 8 0
BBX 8 19 0 -4
BITMAP
00
00
00
00
02
06
7C
C0
C0
FC
C6
C6
C6
C6
7C
00
00
00
00
ENDCHAR
STARTCHAR uni0432
ENCODING 1074
SWIDTH 480 0
DWIDTH 8 0
BBX 8 19 0 -4
BITMAP
00
00
00
00
00
00
00
00
FC
66
66
7C
66
66
FC
00
00
00
00
ENDCHAR
STARTCHAR uni0433
ENCODING 1075
SWIDTH 480 0
DWIDTH 8 0
BBX 8 19 0 -4
BITMAP
00
00
00
00
00
00
00
00
FE
62
62
60
60
60
F0
00
00
00
00
ENDCHAR
STARTCHAR uni0434
ENCODING 1076
SWIDTH 480 0
DWIDTH 8 0
BBX 8 19 0 -4
BITMAP
00
00
00
00
00
00
00
00
1E
36
66
66
66
66
FF
C3
C3
00
00
ENDCHAR
STARTCHAR uni0435
ENCODING 1077
SWIDTH 480 0
DWIDTH 8 0
BBX 8 19 0 -4
BITMAP
00
00
00
00
00
00
00
00
7C
C6
C6
FE
C0
C6
7C
00
00
00
00
ENDCHAR
STARTCHAR uni0436
ENCODING 1078
SWIDTH 480 0
DWIDTH 8 0
BBX 8 19 0 -4
BITMAP
00
00
00
00
00
00
00
00
D6
D6
54
7C
54
D6
D6
00
00
00
00
ENDCHAR
STARTCHAR uni0437
ENCODING 1079
SWIDTH 480 0
DWIDTH 8 0
BBX 8 19 0 -4
BITMAP
00
00
00
00
00
00
00
00
7C
C6
06
3C
06
C6
7C
00
00
00
00
ENDCHAR
STARTCHAR uni0438
ENCODING 1080
SWIDTH 480 0
DWIDTH 8 0
BBX 8 19 0 -4
BITMAP
00
00
00
00
00
00
00
00
C6
C6
CE
D6
E6
C6
C6
00
00
00
00
ENDCHAR
STARTCHAR uni0439
ENCODING 1081
SWIDTH 480 0
DWIDTH 8 0
BBX 8 19 0 -4
BITMAP
00
00
00
00
00
00
6C
38
C6
C6
CE
D6
E6
C6
C6
00
00
00
00
ENDCHAR
STARTCHAR uni043A
ENCODING 1082
SWIDTH 480 0
DWIDTH 8 0
BBX 8 19 0 -4
BITMAP
00
00
00
00
00
00
00
00
E6
6C
78
78
6C
66
E6
00
00
00
00
ENDCHAR
STARTCHAR uni043B
ENCODING 1083
SWIDTH 480 0
DWIDTH 8 0
BBX 8 19 0 -4
BITMAP
00
00
00
00
00
00
00
00
1E
36
66
66
66
66
E6
00
00
00
00
ENDCHAR
STARTCHAR uni043C
ENCODING 1084
SWIDTH 480 0
DWIDTH 8 0
BBX 8 19 0 -4
BITMAP
00
00
00
00
00
00
00
00
C6
EE
FE
FE
D6
D6
C6
00
00
00
00
ENDCHAR
STARTCHAR uni043D
ENCODING 1085
SWIDTH 480 0
DWIDTH 8 0
BBX 8 19 0 -4
BITMAP
00
00
00
00
00
00
00
00
C6
C6
C6
FE
C6
C6
C6
00
00
00
00
ENDCHAR
STARTCHAR uni043E
ENCODING 1086
SWIDTH 480 0
DWIDTH 8 0
BBX 8 19 0 -4
BITMAP
00
00
00
00
00
00
00
00
7C
C6
C6
C6
C6
C6
7C
00
00
00
00
ENDCHAR
STARTCHAR uni043F
ENCODING 1087
SWIDTH 480 0
DWIDTH 8 0
BBX 8 19 0 -4
BITMAP
00
00
00
00
00
00
00
00
FE
C6
C6
C6
C6
C6
C6
00
00
00
00
ENDCHAR
STARTCHAR uni0440
ENCODING 1088
SWIDTH 480 0
DWIDTH 8 0
BBX 8 19 0 -4
BITMAP
00
00
00
00
00
00
00
00
DC
66
66
66
66
66
7C
60
60
F0
00
ENDCHAR
STARTCHAR uni0441
ENCODING 1089
SWIDTH 480 0
DWIDTH 8 0
BBX 8 19 0 -4
BITMAP
00
00
00
00
00
00
00
00
7C
C6
C0
C0
C0
C6
7C
00
00
00
00
ENDCHAR
STARTCHAR uni0442
ENCODING 1090
SWIDTH 480 0
DWIDTH 8 0
BBX 8 19 0 -4
BITMAP
00
00
00
00
00
00
00
00
7E
5A
18
18
18
18
3C
00
00
00
00
ENDCHAR
STARTCHAR uni0443
ENCODING 1091
SWIDTH 480 0
DWIDTH 8 0
BBX 8 19 0 -4
BITMAP
00
00
00
00
00
00
00
00
C6
C6
C6
C6
C6
7E
06
06
C6
7C
00
ENDCHAR
STARTCHAR uni0444
ENCODING 1092
SWIDTH 480 0
DWIDTH 8 0
BBX 8 19 0 -4
BITMAP
00
00
00
00
00
00
3C
18
7E
DB
DB
DB
DB
DB
7E
18
18
3C
00
ENDCHAR
STARTCHAR uni0445
ENCODING 1093
SWIDTH 480 0
DWIDTH 8 0
BBX 8 19 0 -4
BITMAP
00
00
00
00
00
00
00
00
C6
6C
38
38
38
6C
C6
00
00
00
00
ENDCHAR
STARTCHAR uni0446
ENCODING 1094
SWIDTH 480 0
DWIDTH 8 0
BBX 8 19 0 -4
BITMAP
00
00
00
00
00
00
00
00
C6
C6
C6
C6
C6
C6
FF
03
03
00
00
ENDCHAR
STARTCHAR uni0447
ENCODING 1095
SWIDTH 480 0
DWIDTH 8 0
BBX 8 19 0 -4
BITMAP
00
00
00
00
00
00
00
00
C6
C6
C6
C6
7E
06
06
00
00
00
00
ENDCHAR
STARTCHAR uni0448
ENCODING 1096
SWIDTH 480 0
DWIDTH 8 0
BBX 8 19 0 -4
BITMAP
00
00
00
00
00
00
00
00
D6
D6
D6
D6
D6
D6
FE
00
00
00
00
ENDCHAR
STARTCHAR uni0449
ENCODING 1097
SWIDTH 480 0
DWIDTH 8 0
BBX 8 19 0 -4
BITMAP
00
00
00
00
00
00
00
00
D6
D6
D6
D6
D6
D6
FE
03
03
00
00
ENDCHAR
STARTCHAR uni044A
ENCODING 1098
SWIDTH 480 0
DWIDTH 8 0
BBX 8 19 0 -4
BITMAP
00
00
00
00
00
00
00
00
F8
B0
B0
3E
33
33
7E
00
00
00
00
ENDCHAR
STARTCHAR uni044B
ENCODING 1099
SWIDTH 480 0
DWIDTH 8 0
BBX 8 19 0 -4
BITMAP
00
00
00
00
00
00
00
00
C6
C6
C6
F6
DE
DE
F6
00
00
00
00
ENDCHAR
STARTCHAR uni044C
ENCODING 1100
SWIDTH 480 0
DWIDTH 8 0
BBX 8 19 0 -4
BITMAP
00
00
00
00
00
00
00
00
F0
60
60
7C
66
66
FC
00
00
00
00
ENDCHAR
STARTCHAR uni044D
ENCODING 1101
SWIDTH 480 0
DWIDTH 8 0
BBX 8 19 0 -4
BITMAP
00
00
00
00
00
00
00
00
7C
C6
06
3E
06
C6
7C
00
00
00
00
ENDCHAR
STARTCHAR uni044E
ENCODING 1102
SWIDTH 480 0
DWIDTH 8 0
BBX 8 19 0 -4
BITMAP
00
00
00
00
00
00
00
00
CE
DB
DB
FB
DB
DB
CE
00
00
00
00
ENDCHAR
STARTCHAR uni044F
ENCODING 1103
SWIDTH 480 0
DWIDTH 8 0
BBX 8 19 0 -4
BITMAP
00
00
00
00
00
00
00
00
7F
C6
C6
7E
36
66
E7
00
00
00
00
ENDCHAR
STARTCHAR uni0450
ENCODING 1104
SWIDTH 480 0
DWIDTH 8 0
BBX 8 19 0 -4
BITMAP
00
00
00
00
30
18
0C
00
7C
C6
C6
FE
C0
C6
7C
00
00
00
00
ENDCHAR
STARTCHAR uni0451
ENCODING 1105
SWIDTH 480 0
DWIDTH 8 0
BBX 8 19 0 -4
BITMAP
00
00
00
00
00
00
6C
00
7C
C6
C6
FC
C0
C6
7C
00
00
00
00
ENDCHAR
STARTCHAR uni0452
ENCODING 1106
SWIDTH 480 0
DWIDTH 8 0
BBX 8 19 0 -4
BITMAP
00
00
00
00
00
60
F0
60
60
6C
76
66
66
66
66
0C
00
00
00
ENDCHAR
STARTCHAR uni0453
ENCODING 1107
SWIDTH 480 0
DWIDTH 8 0
BBX 8 19 0 -4
BITMAP
00
00
00
00
00
18
10
00
FE
62
62
60
60
60
F0
00
00
00
00
ENDCHAR
STARTCHAR uni0454
ENCODING 1108
SWIDTH 480 0
DWIDTH 8 0
BBX 8 19 0 -4
BITMAP
00
00
00
00
00
00
00
00
7C
C6
C0
F8
C0
C6
7C
00
00
00
00
ENDCHAR
STARTCHAR uni0455
ENCODING 1109
SWIDTH 480 0
DWIDTH 8 0
BBX 8 19 0 -4
BITMAP
00
00
00
00
00
00
00
00
7C
C6
60
38
0C
C6
7C
00
00
00
00
ENDCHAR
STARTCHAR uni0456
ENCODING 1110
SWIDTH 480 0
DWIDTH 8 0
BBX 8 19 0 -4
BITMAP
00
00
00
00
00
18
18
00
38
18
18
18
18
18
3C
00
00
00
00
ENDCHAR
STARTCHAR uni0457
ENCODING 1111
SWIDTH 480 0
DWIDTH 8 0
BBX 8 19 0 -4
BITMAP
00
00
00
00
00
00
6C
00
38
18
18
18
18
18
3C
00
00
00
00
ENDCHAR
STARTCHAR uni0458
ENCODING 1112
SWIDTH 480 0
DWIDTH 8 0
BBX 8 19 0 -4
BITMAP
00
00
00
00
00
06
06
00
0E
06
06
06
06
06
06
66
66
3C
00
ENDCHAR
STARTCHAR uni0459
ENCODING 1113
SWIDTH 480 0
DWIDTH 8 0
BBX 8 19 0 -4
BITMAP
00
00
00
00
00
00
00
00
1C
3C
6C
6E
6D
6D
EE
00
00
00
00
ENDCHAR
STARTCHAR uni045A
ENCODING 1114
SWIDTH 480 0
DWIDTH 8 0
BBX 8 19 0 -4
BITMAP
00
00
00
00
00
00
00
00
CC
CC
CC
FE
CD
CD
CE
00
00
00
00
ENDCHAR
STARTCHAR uni045B
ENCODING 1115
SWIDTH 480 0
DWIDTH 8 0
BBX 8 19 0 -4
BITMAP
00
00
00
00
60
F0
60
60
60
6C
76
66
66
66
66
00
00
00
00
ENDCHAR
STARTCHAR uni045C
ENCODING 1116
SWIDTH 480 0
DWIDTH 8 0
BBX 8 19 0 -4
BITMAP
00
00
00
00
0C
18
30
00
E6
6C
78
78
6C
66
E6
00
00
00
00
ENDCHAR
STARTCHAR uni045D
ENCODING 1117
SWIDTH 480 0
DWIDTH 8 0
BBX 8 19 0 -4
BITMAP
00
00
00
00
30
18
0C
00
C6
C6
CE
D6
E6
C6
C6
00
00
00
00
ENDCHAR
STARTCHAR uni045E
ENCODING 1118
SWIDTH 480 0
DWIDTH 8 0
BBX 8 19 0 -4
BITMAP
00
00
00
00
00
00
6C
38
C6
C6
C6
C6
C6
7E
06
06
C6
7C
00
ENDCHAR
STARTCHAR uni045F
ENCODING 1119
SWIDTH 480 0
DWIDTH 8 0
BBX 8 19 0 -4
BITMAP
00
00
00
00
00
00
00
00
C6
C6
C6
C6
C6
C6
FE
10
10
00
00
ENDCHAR
STARTCHAR uni0480
ENCODING 1152
SWIDTH 480 0
DWIDTH 8 0
BBX 8 19 0 -4
BITMAP
00
00
00
00
00
7C
C6
C6
C0
C0
C0
C0
C0
C0
78
18
18
18
00
ENDCHAR
STARTCHAR uni0481
ENCODING 1153
SWIDTH 480 0
DWIDTH 8 0
BBX 8 19 0 -4
BITMAP
00
00
00
00
00
00
00
00
7C
C6
C0
C0
C0
C0
78
18
18
18
00
ENDCHAR
STARTCHAR uni048A
ENCODING 1162
SWIDTH 480 0
DWIDTH 8 0
BBX 8 19 0 -4
BITMAP
00
00
00
6C
38
C6
C6
C6
CE
DE
F6
E6
C6
C6
C6
02
06
00
00
ENDCHAR
STARTCHAR uni048B
ENCODING 1163
SWIDTH 480 0
DWIDTH 8 0
BBX 8 19 0 -4
BITMAP
00
00
00
00
00
00
6C
38
C6
C6
CE
D6
E6
C6
C6
02
06
00
00
ENDCHAR
STARTCHAR uni048C
ENCODING 1164
SWIDTH 480 0
DWIDTH 8 0
BBX 8 19 0 -4
BITMAP
00
00
00
00
00
30
30
78
30
3E
33
33
33
33
7E
00
00
00
00
ENDCHAR
STARTCHAR uni048D
ENCODING 1165
SWIDTH 480 0
DWIDTH 8 0
BBX 8 19 0 -4
BITMAP
00
00
00
00
00
00
00
00
60
F0
60
7C
66
66
FC
00
00
00
00
ENDCHAR
STARTCHAR uni048E
ENCODING 1166
SWIDTH 480 0
DWIDTH 8 0
BBX 8 19 0 -4
BITMAP
00
00
00
00
00
FC
66
66
76
6E
7C
62
60
60
F0
00
00
00
00
ENDCHAR
STARTCHAR uni048F
ENCODING 1167
SWIDTH 480 0
DWIDTH 8 0
BBX 8 19 0 -4
BITMAP
00
00
00
00
00
00
00
00
DC
66
66
66
76
6E
7C
62
60
F0
00
ENDCHAR
STARTCHAR uni0490
ENCODING 1168
SWIDTH 480 0
DWIDTH 8 0
BBX 8 19 0 -4
BITMAP
00
00
00
02
06
FE
60
60
60
60
60
60
60
60
F0
00
00
00
00
ENDCHAR
STARTCHAR uni0491
ENCODING 1169
SWIDTH 480 0
DWIDTH 8 0
BBX 8 19 0 -4
BITMAP
00
00
00
00
00
00
02
02
FE
60
60
60
60
60
F0
00
00
00
00
ENDCHAR
STARTCHAR uni0492
ENCODING 1170
SWIDTH 480 0
DWIDTH 8 0
BBX 8 19 0 -4
BITMAP
00
00
00
00
00
FE
66
62
60
F8
60
60
60
60
F0
00
00
00
00
ENDCHAR
STARTCHAR uni0493
ENCODING 1171
SWIDTH 480 0
DWIDTH 8 0
BBX 8 19 0 -4
BITMAP
00
00
00
00
00
00
00
00
FE
62
62
F8
60
60
F0
00
00
00
00
ENDCHAR
STARTCHAR uni0494
ENCODING 1172
SWIDTH 480 0
DWIDTH 8 0
BBX 8 19 0 -4
BITMAP
00
00
00
00
00
FE
62
60
60
7C
66
66
66
66
E6
0C
38
00
00
ENDCHAR
STARTCHAR uni0495
ENCODING 1173
SWIDTH 480 0
DWIDTH 8 0
BBX 8 19 0 -4
BITMAP
00
00
00
00
00
00
00
00
FC
44
40
78
4C
4C
CC
18
70
00
00
ENDCHAR
STARTCHAR uni0496
ENCODING 1174
SWIDTH 480 0
DWIDTH 8 0
BBX 8 19 0 -4
BITMAP
00
00
00
00
00
D6
D6
54
54
7C
7C
54
D6
D6
D7
01
01
00
00
ENDCHAR
STARTCHAR uni0497
ENCODING 1175
SWIDTH 480 0
DWIDTH 8 0
BBX 8 19 0 -4
BITMAP
00
00
00
00
00
00
00
00
D6
D6
54
7C
54
D6
D7
01
01
00
00
ENDCHAR
STARTCHAR uni0498
ENCODING 1176
SWIDTH 480 0
DWIDTH 8 0
BBX 8 19 0 -4
BITMAP
00
00
00
00
00
7C
C6
06
06
3C
06
06
06
C6
7C
10
08
10
00
ENDCHAR
STARTCHAR uni0499
ENCODING 1177
SWIDTH 480 0
DWIDTH 8 0
BBX 8 19 0 -4
BITMAP
00
00
00
00
00
00
00
00
7C
C6
06
3C
06
C6
7C
10
08
10
00
ENDCHAR
STARTCHAR uni049A
ENCODING 1178
SWIDTH 480 0
DWIDTH 8 0
BBX 8 19 0 -4
BITMAP
00
00
00
00
00
E6
66
6C
6C
78
78
6C
6C
66
E6
02
02
00
00
ENDCHAR
STARTCHAR uni049B
ENCODING 1179
SWIDTH 480 0
DWIDTH 8 0
BBX 8 19 0 -4
BITMAP
00
00
00
00
00
00
00
00
E6
6C
78
78
6C
66
E6
02
02
00
00
ENDCHAR
STARTCHAR uni049E
ENCODING 1182
SWIDTH 480 0
DWIDTH 8 0
BBX 8 19 0 -4
BITMAP
00
00
00
00
00
E6
66
F4
6C
78
78
6C
64
66
E6
00
00
00
00
ENDCHAR
STARTCHAR uni049F
ENCODING 1183
SWIDTH 480 0
DWIDTH 8 0
BBX 8 19 0 -4
BITMAP
00
00
00
00
00
E0
60
F0
66
6C
78
78
6C
66
E6
00
00
00
00
ENDCHAR
STARTCHAR uni04A2
ENCODING 1186
SWIDTH 480 0
DWIDTH 8 0
BBX 8 19 0 -4
BITMAP
00
00
00
00
00
CC
CC
CC
CC
FC
CC
CC
CC
CC
CE
02
02
00
00
ENDCHAR
STARTCHAR uni04A3
ENCODING 1187
SWIDTH 480 0
DWIDTH 8 0
BBX 8 19 0 -4
BITMAP
00
00
00
00
00
00
00
00
CC
CC
CC
FC
CC
CC
CE
02
02
00
00
ENDCHAR
STARTCHAR uni04A4
ENCODING 1188
SWIDTH 480 0
DWIDTH 8 0
BBX 8 19 0 -4
BITMAP
00
00
00
00
00
CE
CC
CC
CC
FC
CC
CC
CC
CC
CC
00
00
00
00
ENDCHAR
STARTCHAR uni04A5
ENCODING 1189
SWIDTH 480 0
DWIDTH 8 0
BBX 8 19 0 -4
BITMAP
00
00
00
00
00
00
00
00
CE
CC
CC
FC
CC
CC
CC
00
00
00
00
ENDCHAR
STARTCHAR uni04A8
ENCODING 1192
SWIDTH 480 0
DWIDTH 8 0
BBX 8 19 0 -4
BITMAP
00
00
00
00
00
78
C4
C0
CC
DE
D6
D6
D6
D6
7C
08
04
00
00
ENDCHAR
STARTCHAR uni04A9
ENCODING 1193
SWIDTH 480 0
DWIDTH 8 0
BBX 8 19 0 -4
BITMAP
00
00
00
00
00
00
00
00
78
C0
CC
D6
D6
D6
7C
08
04
00
00
ENDCHAR
STARTCHAR uni04AA
ENCODING 1194
SWIDTH 480 0
DWIDTH 8 0
BBX 8 19 0 -4
BITMAP
00
00
00
00
00
7C
C6
C6
C0
C0
C0
C0
C2
C6
7C
10
08
10
00
ENDCHAR
STARTCHAR uni04AB
ENCODING 1195
SWIDTH 480 0
DWIDTH 8 0
BBX 8 19 0 -4
BITMAP
00
00
00
00
00
00
00
00
7C
C6
C0
C0
C0
C6
7C
10
08
10
00
ENDCHAR
STARTCHAR uni04AC
ENCODING 1196
SWIDTH 480 0
DWIDTH 8 0
BBX 8 19 0 -4
BITMAP
00
00
00
00
00
FF
DB
99
18
18
18
18
18
18
3C
04
04
00
00
ENDCHAR
STARTCHAR uni04AD
ENCODING 1197
SWIDTH 480 0
DWIDTH 8 0
BBX 8 19 0 -4
BITMAP
00
00
00
00
00
00
00
00
7E
5A
18
18
18
18
3C
04
04
00
00
ENDCHAR
STARTCHAR uni04AE
ENCODING 1198
SWIDTH 480 0
DWIDTH 8 0
BBX 8 19 0 -4
BITMAP
00
00
00
00
00
42
66
24
3C
18
18
18
18
18
3C
00
00
00
00
ENDCHAR
STARTCHAR uni04AF
ENCODING 1199
SWIDTH 480 0
DWIDTH 8 0
BBX 8 19 0 -4
BITMAP
00
00
00
00
00
00
00
42
66
24
3C
18
18
18
3C
00
00
00
00
ENDCHAR
STARTCHAR uni04B0
ENCODING 1200
SWIDTH 480 0
DWIDTH 8 0
BBX 8 19 0 -4
BITMAP
00
00
00
00
00
42
66
24
3C
18
7E
18
18
18
3C
00
00
00
00
ENDCHAR
STARTCHAR uni04B1
ENCODING 1201
SWIDTH 480 0
DWIDTH 8 0
BBX 8 19 0 -4
BITMAP
00
00
00
00
00
00
00
42
66
24
3C
18
7E
18
3C
00
00
00
00
ENDCHAR
STARTCHAR uni04B2
ENCODING 1202
SWIDTH 480 0
DWIDTH 8 0
BBX 8 19 0 -4
BITMAP
00
00
00
00
00
C6
C6
6C
7C
38
38
7C
6C
C6
C6
02
02
00
00
ENDCHAR
STARTCHAR uni04B3
ENCODING 1203
SWIDTH 480 0
DWIDTH 8 0
BBX 8 19 0 -4
BITMAP
00
00
00
00
00
00
00
00
C6
6C
38
38
38
6C
C6
02
02
00
00
ENDCHAR
STARTCHAR uni04B4
ENCODING 1204
SWIDTH 480 0
DWIDTH 8 0
BBX 8 19 0 -4
BITMAP
00
00
00
00
00
F6
66
66
66
66
66
66
66
66
7F
03
03
00
00
ENDCHAR
STARTCHAR uni04B5
ENCODING 1205
SWIDTH 480 0
DWIDTH 8 0
BBX 8 19 0 -4
BITMAP
00
00
00
00
00
00
00
00
F6
66
66
66
66
66
7F
03
03
00
00
ENDCHAR
STARTCHAR uni04B6
ENCODING 1206
SWIDTH 480 0
DWIDTH 8 0
BBX 8 19 0 -4
BITMAP
00
00
00
00
00
CC
CC
CC
CC
CC
7C
0C
0C
0C
0E
02
02
00
00
ENDCHAR
STARTCHAR uni04B7
ENCODING 1207
SWIDTH 480 0
DWIDTH 8 0
BBX 8 19 0 -4
BITMAP
00
00
00
00
00
00
00
00
CC
CC
CC
CC
7C
0C
0E
02
02
00
00
ENDCHAR
STARTCHAR uni04B8
ENCODING 1208
SWIDTH 480 0
DWIDTH 8 0
BBX 8 19 0 -4
BITMAP
00
00
00
00
00
C6
C6
C6
D6
D6
7E
16
16
06
06
00
00
00
00
ENDCHAR
STARTCHAR uni04B9
ENCODING 1209
SWIDTH 480 0
DWIDTH 8 0
BBX 8 19 0 -4
BITMAP
00
00
00
00
00
00
00
00
C6
C6
C6
D6
7E
16
06
00
00
00
00
ENDCHAR
STARTCHAR uni04BA
ENCODING 1210
SWIDTH 480 0
DWIDTH 8 0
BBX 8 19 0 -4
BITMAP
00
00
00
00
00
C0
C0
C0
C0
FC
C6
C6
C6
C6
C6
00
00
00
00
ENDCHAR
STARTCHAR uni04BB
ENCODING 1211
SWIDTH 480 0
DWIDTH 8 0
BBX 8 19 0 -4
BITMAP
00
00
00
00
00
00
00
00
C0
C0
C0
FC
C6
C6
C6
00
00
00
00
ENDCHAR
STARTCHAR uni04C0
ENCODING 1216
SWIDTH 480 0
DWIDTH 8 0
BBX 8 19 0 -4
BITMAP
00
00
00
00
00
3C
18
18
18
18
18
18
18
18
3C
00
00
00
00
ENDCHAR
STARTCHAR uni04C1
ENCODING 1217
SWIDTH 480 0
DWIDTH 8 0
BBX 8 19 0 -4
BITMAP
00
00
00
66
3C
C3
DB
5A
5A
7E
7E
5A
DB
DB
DB
00
00
00
00
ENDCHAR
STARTCHAR uni04C2
ENCODING 1218
SWIDTH 480 0
DWIDTH 8 0
BBX 8 19 0 -4
BITMAP
00
00
00
00
00
6C
38
00
C6
D6
54
7C
54
D6
D6
00
00
00
00
ENDCHAR
STARTCHAR uni04C3
ENCODING 1219
SWIDTH 480 0
DWIDTH 8 0
BBX 8 19 0 -4
BITMAP
00
00
00
00
00
E6
66
6C
78
7C
66
66
66
66
E6
0C
38
00
00
ENDCHAR
STARTCHAR uni04C4
ENCODING 1220
SWIDTH 480 0
DWIDTH 8 0
BBX 8 19 0 -4
BITMAP
00
00
00
00
00
00
00
00
E6
6C
78
7C
66
66
E6
0C
38
00
00
ENDCHAR
STARTCHAR uni04C5
ENCODING 1221
SWIDTH 480 0
DWIDTH 8 0
BBX 8 19 0 -4
BITMAP
00
00
00
00
00
00
00
00
1E
36
66
66
66
66
E6
02
06
00
00
ENDCHAR
STARTCHAR uni04C6
ENCODING 1222
SWIDTH 480 0
DWIDTH 8 0
BBX 8 19 0 -4
BITMAP
00
00
00
00
00
00
00
00
1E
36
66
66
66
66
E6
02
06
00
00
ENDCHAR
STARTCHAR uni04C7
ENCODING 1223
SWIDTH 480 0
DWIDTH 8 0
BBX 8 19 0 -4
BITMAP
00
00
00
00
00
C6
C6
C6
C6
FE
C6
C6
C6
C6
C6
0C
00
00
00
ENDCHAR
STARTCHAR uni04C8
ENCODING 1224
SWIDTH 480 0
DWIDTH 8 0
BBX 8 19 0 -4
BITMAP
00
00
00
00
00
00
00
00
C6
C6
C6
FE
C6
C6
C6
0C
38
00
00
ENDCHAR
STARTCHAR uni04C9
ENCODING 1225
SWIDTH 480 0
DWIDTH 8 0
BBX 8 19 0 -4
BITMAP
00
00
00
00
00
C6
C6
C6
C6
FE
C6
C6
C6
C6
C6
02
06
00
00
ENDCHAR
STARTCHAR uni04CA
ENCODING 1226
SWIDTH 480 0
DWIDTH 8 0
BBX 8 19 0 -4
BITMAP
00
00
00
00
00
00
00
00
C6
C6
C6
FE
C6
C6
C6
02
06
00
00
ENDCHAR
STARTCHAR uni04CB
ENCODING 1227
SWIDTH 480 0
DWIDTH 8 0
BBX 8 19 0 -4
BITMAP
00
00
00
00
00
C6
C6
C6
C6
C6
7E
06
06
06
0E
08
08
00
00
ENDCHAR
STARTCHAR uni04CC
ENCODING 1228
SWIDTH 480 0
DWIDTH 8 0
BBX 8 19 0 -4
BITMAP
00
00
00
00
00
00
00
00
C6
C6
C6
C6
7E
06
0E
08
08
00
00
ENDCHAR
STARTCHAR uni04CD
ENCODING 1229
SWIDTH 480 0
DWIDTH 8 0
BBX 8 19 0 -4
BITMAP
00
00
00
00
00
C6
EE
FE
FE
D6
C6
C6
C6
C6
C6
02
06
00
00
ENDCHAR
STARTCHAR uni04CE
ENCODING 1230
SWIDTH 480 0
DWIDTH 8 0
BBX 8 19 0 -4
BITMAP
00
00
00
00
00
00
00
00
C6
EE
FE
FE
D6
D6
C6
02
06
00
00
ENDCHAR
STARTCHAR uni04D0
ENCODING 1232
SWIDTH 480 0
DWIDTH 8 0
BBX 8 19 0 -4
BITMAP
00
00
00
6C
38
00
38
6C
44
C6
FE
C6
C6
C6
C6
00
00
00
00
ENDCHAR
STARTCHAR uni04D1
ENCODING 1233
SWIDTH 480 0
DWIDTH 8 0
BBX 8 19 0 -4
BITMAP
00
00
00
00
00
48
30
00
78
0C
7C
CC
CC
CC
76
00
00
00
00
ENDCHAR
STARTCHAR uni04D2
ENCODING 1234
SWIDTH 480 0
DWIDTH 8 0
BBX 8 19 0 -4
BITMAP
00
00
00
28
00
38
6C
44
C6
C6
FE
C6
C6
C6
C6
00
00
00
00
ENDCHAR
STARTCHAR uni04D3
ENCODING 1235
SWIDTH 480 0
DWIDTH 8 0
BBX 8 19 0 -4
BITMAP
00
00
00
00
00
00
28
00
78
0C
7C
CC
CC
CC
76
00
00
00
00
ENDCHAR
STARTCHAR uni04D6
ENCODING 1238
SWIDTH 480 0
DWIDTH 8 0
BBX 8 19 0 -4
BITMAP
00
00
00
6C
38
00
FE
66
6A
78
78
68
62
66
FE
00
00
00
00
ENDCHAR
STARTCHAR uni04D7
ENCODING 1239
SWIDTH 480 0
DWIDTH 8 0
BBX 8 19 0 -4
BITMAP
00
00
00
00
00
48
30
00
7C
C6
C6
FE
C0
C6
7C
00
00
00
00
ENDCHAR
STARTCHAR uni04D8
ENCODING 1240
SWIDTH 480 0
DWIDTH 8 0
BBX 8 19 0 -4
BITMAP
00
00
00
00
00
7C
86
06
06
7E
C6
C6
C6
C6
7C
00
00
00
00
ENDCHAR
STARTCHAR uni04D9
ENCODING 1241
SWIDTH 480 0
DWIDTH 8 0
BBX 8 19 0 -4
BITMAP
00
00
00
00
00
00
00
00
7C
86
06
7E
C6
C6
7C
00
00
00
00
ENDCHAR
STARTCHAR uni04DA
ENCODING 1242
SWIDTH 480 0
DWIDTH 8 0
BBX 8 19 0 -4
BITMAP
00
00
00
28
00
7C
86
06
06
7E
C6
C6
C6
C6
7C
00
00
00
00
ENDCHAR
STARTCHAR uni04DB
ENCODING 1243
SWIDTH 480 0
DWIDTH 8 0
BBX 8 19 0 -4
BITMAP
00
00
00
00
00
00
28
00
7C
86
06
7E
C6
C6
7C
00
00
00
00
ENDCHAR
STARTCHAR uni04DC
ENCODING 1244
SWIDTH 480 0
DWIDTH 8 0
BBX 8 19 0 -4
BITMAP
00
00
00
24
00
DB
DB
5A
5A
7E
7E
5A
DB
DB
DB
00
00
00
00
ENDCHAR
STARTCHAR uni04DD
ENCODING 1245
SWIDTH 480 0
DWIDTH 8 0
BBX 8 19 0 -4
BITMAP
00
00
00
00
00
00
28
00
D6
D6
54
7C
54
D6
D6
00
00
00
00
ENDCHAR
STARTCHAR uni04DE
ENCODING 1246
SWIDTH 480 0
DWIDTH 8 0
BBX 8 19 0 -4
BITMAP
00
00
00
28
00
7C
C6
06
06
3C
06
06
06
C6
7C
00
00
00
00
ENDCHAR
STARTCHAR uni04DF
ENCODING 1247
SWIDTH 480 0
DWIDTH 8 0
BBX 8 19 0 -4
BITMAP
00
00
00
00
00
00
28
00
7C
C6
06
3C
06
C6
7C
00
00
00
00
ENDCHAR
STARTCHAR uni04E0
ENCODING 1248
SWIDTH 480 0
DWIDTH 8 0
BBX 8 19 0 -4
BITMAP
00
00
00
00
00
00
7E
C6
04
0C
06
02
C2
C6
7C
00
00
00
00
ENDCHAR
STARTCHAR uni04E1
ENCODING 1249
SWIDTH 480 0
DWIDTH 8 0
BBX 8 19 0 -4
BITMAP
00
00
00
00
00
00
00
00
00
7C
CC
08
18
0C
04
C4
CC
78
00
ENDCHAR
STARTCHAR uni04E2
ENCODING 1250
SWIDTH 480 0
DWIDTH 8 0
BBX 8 19 0 -4
BITMAP
00
00
00
7C
00
C6
C6
C6
CE
DE
F6
E6
C6
C6
C6
00
00
00
00
ENDCHAR
STARTCHAR uni04E3
ENCODING 1251
SWIDTH 480 0
DWIDTH 8 0
BBX 8 19 0 -4
BITMAP
00
00
00
00
00
00
7C
00
C6
C6
CE
D6
E6
C6
C6
00
00
00
00
ENDCHAR
STARTCHAR uni04E4
ENCODING 1252
SWIDTH 480 0
DWIDTH 8 0
BBX 8 19 0 -4
BITMAP
00
00
00
28
00
C6
C6
C6
CE
DE
F6
E6
C6
C6
C6
00
00
00
00
ENDCHAR
STARTCHAR uni04E5
ENCODING 1253
SWIDTH 480 0
DWIDTH 8 0
BBX 8 19 0 -4
BITMAP
00
00
00
00
00
00
28
00
C6
C6
CE
D6
E6
C6
C6
00
00
00
00
ENDCHAR
STARTCHAR uni04E6
ENCODING 1254
SWIDTH 480 0
DWIDTH 8 0
BBX 8 19 0 -4
BITMAP
00
00
00
28
00
7C
C6
C6
C6
C6
C6
C6
C6
C6
7C
00
00
00
00
ENDCHAR
STARTCHAR uni04E7
ENCODING 1255
SWIDTH 480 0
DWIDTH 8 0
BBX 8 19 0 -4
BITMAP
00
00
00
00
00
00
28
00
7C
C6
C6
C6
C6
C6
7C
00
00
00
00
ENDCHAR
STARTCHAR uni04E8
ENCODING 1256
SWIDTH 480 0
DWIDTH 8 0
BBX 8 19 0 -4
BITMAP
00
00
00
00
00
7C
C6
C6
C6
FE
FE
C6
C6
C6
7C
00
00
00
00
ENDCHAR
STARTCHAR uni04E9
ENCODING 1257
SWIDTH 480 0
DWIDTH 8 0
BBX 8 19 0 -4
BITMAP
00
00
00
00
00
00
00
00
7C
C6
C6
FE
C6
C6
7C
00
00
00
00
ENDCHAR
STARTCHAR uni04EA
ENCODING 1258
SWIDTH 480 0
DWIDTH 8 0
BBX 8 19 0 -4
BITMAP
00
00
00
28
00
7C
C6
C6
C6
FE
FE
C6
C6
C6
7C
00
00
00
00
ENDCHAR
STARTCHAR uni04EB
ENCODING 1259
SWIDTH 480 0
DWIDTH 8 0
BBX 8 19 0 -4
BITMAP
00
00
00
00
00
00
28
00
7C
C6
C6
FE
C6
C6
7C
00
00
00
00
ENDCHAR
STARTCHAR uni04EC
ENCODING 1260
SWIDTH 480 0
DWIDTH 8 0
BBX 8 19 0 -4
BITMAP
00
00
00
28
00
7C
C6
06
26
3E
26
06
06
C6
7C
00
00
00
00
ENDCHAR
STARTCHAR uni04ED
ENCODING 1261
SWIDTH 480 0
DWIDTH 8 0
BBX 8 19 0 -4
BITMAP
00
00
00
00
00
00
28
00
7C
C6
06
3E
06
C6
7C
00
00
00
00
ENDCHAR
STARTCHAR uni04EE
ENCODING 1262
SWIDTH 480 0
DWIDTH 8 0
BBX 8 19 0 -4
BITMAP
00
00
00
7C
00
C6
C6
C6
C6
C6
7E
06
06
C6
7C
00
00
00
00
ENDCHAR
STARTCHAR uni04EF
ENCODING 1263
SWIDTH 480 0
DWIDTH 8 0
BBX 8 19 0 -4
BITMAP
00
00
00
00
00
00
7C
00
C6
C6
C6
C6
C6
7E
06
06
C6
7C
00
ENDCHAR
STARTCHAR uni04F0
ENCODING 1264
SWIDTH 480 0
DWIDTH 8 0
BBX 8 19 0 -4
BITMAP
00
00
00
28
00
C6
C6
C6
C6
C6
7E
06
06
C6
7C
00
00
00
00
ENDCHAR
STARTCHAR uni04F1
ENCODING 1265
SWIDTH 480 0
DWIDTH 8 0
BBX 8 19 0 -4
BITMAP
00
00
00
00
00
00
28
00
C6
C6
C6
C6
C6
7E
06
06
C6
7C
00
ENDCHAR
STARTCHAR uni04F2
ENCODING 1266
SWIDTH 480 0
DWIDTH 8 0
BBX 8 19 0 -4
BITMAP
00
00
00
14
28
C6
C6
C6
C6
C6
7E
06
06
C6
7C
00
00
00
00
ENDCHAR
STARTCHAR uni04F3
ENCODING 1267
SWIDTH 480 0
DWIDTH 8 0
BBX 8 19 0 -4
BITMAP
00
00
00
00
00
00
14
28
C6
C6
C6
C6
C6
7E
06
06
C6
7C
00
ENDCHAR
STARTCHAR uni04F4
ENCODING 1268
SWIDTH 480 0
DWIDTH 8 0
BBX 8 19 0 -4
BITMAP
00
00
00
28
00
C6
C6
C6
C6
C6
7E
06
06
06
06
00
00
00
00
ENDCHAR
STARTCHAR uni04F5
ENCODING 1269
SWIDTH 480 0
DWIDTH 8 0
BBX 8 19 0 -4
BITMAP
00
00
00
00
00
00
28
00
C6
C6
C6
C6
7E
06
06
00
00
00
00
ENDCHAR
STARTCHAR uni04F8
ENCODING 1272
SWIDTH 480 0
DWIDTH 8 0
BBX 8 19 0 -4
BITMAP
00
00
00
14
00
C3
C3
C3
C3
F3
DB
DB
DB
DB
F3
00
00
00
00
ENDCHAR
STARTCHAR uni04F9
ENCODING 1273
SWIDTH 480 0
DWIDTH 8 0
BBX 8 19 0 -4
BITMAP
00
00
00
00
00
00
28
00
C6
C6
C6
F6
DE
DE
F6
00
00
00
00
ENDCHAR
STARTCHAR uni05D0
ENCODING 1488
SWIDTH 480 0
DWIDTH 8 0
BBX 8 19 0 -4
BITMAP
00
00
00
00
00
00
00
C6
C6
66
76
DC
CC
C6
C6
00
00
00
00
ENDCHAR
STARTCHAR uni05D1
ENCODING 1489
SWIDTH 480 0
DWIDTH 8 0
BBX 8 19 0 -4
BITMAP
00
00
00
00
00
00
00
F8
0C
0C
0C
0C
0C
0C
FE
00
00
00
00
ENDCHAR
STARTCHAR uni05D2
ENCODING 1490
SWIDTH 480 0
DWIDTH 8 0
BBX 8 19 0 -4
BITMAP
00
00
00
00
00
00
00
38
0C
0C
0C
0C
1C
36
E6
00
00
00
00
ENDCHAR
STARTCHAR uni05D3
ENCODING 1491
SWIDTH 480 0
DWIDTH 8 0
BBX 8 19 0 -4
BITMAP
00
00
00
00
00
00
00
FE
0C
0C
0C
0C
0C
0C
0C
00
00
00
00
ENDCHAR
STARTCHAR uni05D4
ENCODING 1492
SWIDTH 480 0
DWIDTH 8 0
BBX 8 19 0 -4
BITMAP
00
00
00
00
00
00
00
FC
06
06
06
C6
C6
C6
C6
00
00
00
00
ENDCHAR
STARTCHAR uni05D5
ENCODING 1493
SWIDTH 480 0
DWIDTH 8 0
BBX 8 19 0 -4
BITMAP
00
00
00
00
00
00
00
70
18
18
18
18
18
18
18
00
00
00
00
ENDCHAR
STARTCHAR uni05D6
ENCODING 1494
SWIDTH 480 0
DWIDTH 8 0
BBX 8 19 0 -4
BITMAP
00
00
00
00
00
00
00
FC
30
30
30
18
18
30
60
00
00
00
00
ENDCHAR
STARTCHAR uni05D7
ENCODING 1495
SWIDTH 480 0
DWIDTH 8 0
BBX 8 19 0 -4
BITMAP
00
00
00
00
00
00
00
FC
66
C6
C6
C6
C6
C6
C6
00
00
00
00
ENDCHAR
STARTCHAR uni05D8
ENCODING 1496
SWIDTH 480 0
DWIDTH 8 0
BBX 8 19 0 -4
BITMAP
00
00
00
00
00
00
00
CC
D6
D6
C6
C6
C6
C6
7C
00
00
00
00
ENDCHAR
STARTCHAR uni05D9
ENCODING 1497
SWIDTH 480 0
DWIDTH 8 0
BBX 8 19 0 -4
BITMAP
00
00
00
00
00
00
00
70
18
18
18
30
00
00
00
00
00
00
00
ENDCHAR
STARTCHAR uni05DA
ENCODING 1498
SWIDTH 480 0
DWIDTH 8 0
BBX 8 19 0 -4
BITMAP
00
00
00
00
00
00
00
FC
06
06
06
0C
0C
0C
0C
0C
0C
0E
00
ENDCHAR
STARTCHAR uni05DB
ENCODING 1499
SWIDTH 480 0
DWIDTH 8 0
BBX 8 19 0 -4
BITMAP
00
00
00
00
00
00
00
FC
06
06
06
06
06
06
FC
00
00
00
00
ENDCHAR
STARTCHAR uni05DC
ENCODING 1500
SWIDTH 480 0
DWIDTH 8 0
BBX 8 19 0 -4
BITMAP
00
00
00
00
00
C0
C0
FC
06
06
06
06
0C
18
18
00
00
00
00
ENDCHAR
STARTCHAR uni05DD
ENCODING 1501
SWIDTH 480 0
DWIDTH 8 0
BBX 8 19 0 -4
BITMAP
00
00
00
00
00
00
00
FC
66
C6
C6
C6
C6
C6
FE
00
00
00
00
ENDCHAR
STARTCHAR uni05DE
ENCODING 1502
SWIDTH 480 0
DWIDTH 8 0
BBX 8 19 0 -4
BITMAP
00
00
00
00
00
00
00
DC
76
66
C6
C6
C6
C6
DE
00
00
00
00
ENDCHAR
STARTCHAR uni05DF
ENCODING 1503
SWIDTH 480 0
DWIDTH 8 0
BBX 8 19 0 -4
BITMAP
00
00
00
00
00
00
00
38
0C
0C
18
18
18
18
18
18
18
1C
00
ENDCHAR
STARTCHAR uni05E0
ENCODING 1504
SWIDTH 480 0
DWIDTH 8 0
BBX 8 19 0 -4
BITMAP
00
00
00
00
00
00
00
38
0C
0C
0C
0C
0C
0C
7C
00
00
00
00
ENDCHAR
STARTCHAR uni05E1
ENCODING 1505
SWIDTH 480 0
DWIDTH 8 0
BBX 8 19 0 -4
BITMAP
00
00
00
00
00
00
00
FC
66
C6
C6
C6
C6
CC
78
00
00
00
00
ENDCHAR
STARTCHAR uni05E2
ENCODING 1506
SWIDTH 480 0
DWIDTH 8 0
BBX 8 19 0 -4
BITMAP
00
00
00
00
00
00
00
EE
66
66
66
66
66
2C
F8
00
00
00
00
ENDCHAR
STARTCHAR uni05E3
ENCODING 1507
SWIDTH 480 0
DWIDTH 8 0
BBX 8 19 0 -4
BITMAP
00
00
00
00
00
00
00
F8
4C
CC
CC
EC
0C
0C
0C
0C
0C
0E
00
ENDCHAR
STARTCHAR uni05E4
ENCODING 1508
SWIDTH 480 0
DWIDTH 8 0
BBX 8 19 0 -4
BITMAP
00
00
00
00
00
00
00
FC
46
C6
C6
E6
06
06
FE
00
00
00
00
ENDCHAR
STARTCHAR uni05E5
ENCODING 1509
SWIDTH 480 0
DWIDTH 8 0
BBX 8 19 0 -4
BITMAP
00
00
00
00
00
00
00
EE
66
66
6C
78
60
60
60
60
60
70
00
ENDCHAR
STARTCHAR uni05E6
ENCODING 1510
SWIDTH 480 0
DWIDTH 8 0
BBX 8 19 0 -4
BITMAP
00
00
00
00
00
00
00
EE
66
66
34
18
0C
06
FE
00
00
00
00
ENDCHAR
STARTCHAR uni05E7
ENCODING 1511
SWIDTH 480 0
DWIDTH 8 0
BBX 8 19 0 -4
BITMAP
00
00
00
00
00
00
00
FC
06
06
66
64
6C
6E
60
60
60
60
00
ENDCHAR
STARTCHAR uni05E8
ENCODING 1512
SWIDTH 480 0
DWIDTH 8 0
BBX 8 19 0 -4
BITMAP
00
00
00
00
00
00
00
FC
06
06
06
06
06
06
06
00
00
00
00
ENDCHAR
STARTCHAR uni05E9
ENCODING 1513
SWIDTH 480 0
DWIDTH 8 0
BBX 8 19 0 -4
BITMAP
00
00
00
00
00
00
00
D6
D6
D6
D6
D6
F6
C6
7C
00
00
00
00
ENDCHAR
STARTCHAR uni05EA
ENCODING 1514
SWIDTH 480 0
DWIDTH 8 0
BBX 8 19 0 -4
BITMAP
00
00
00
00
00
00
00
FC
66
66
66
66
66
E6
E6
00
00
00
00
ENDCHAR
STARTCHAR uni060C
ENCODING 1548
SWIDTH 480 0
DWIDTH 8 0
BBX 8 19 0 -4
BITMAP
00
00
00
00
00
00
00
00
08
10
18
18
00
00
00
00
00
00
00
ENDCHAR
STARTCHAR uni061B
ENCODING 1563
SWIDTH 480 0
DWIDTH 8 0
BBX 8 19 0 -4
BITMAP
00
00
00
00
00
00
00
00
08
10
18
00
18
00
00
00
00
00
00
ENDCHAR
STARTCHAR uni061F
ENCODING 1567
SWIDTH 480 0
DWIDTH 8 0
BBX 8 19 0 -4
BITMAP
00
00
00
00
3E
41
40
20
10
08
08
00
08
00
00
00
00
00
00
ENDCHAR
STARTCHAR uni0621
ENCODING 1569
SWIDTH 480 0
DWIDTH 8 0
BBX 8 19 0 -4
BITMAP
00
00
00
00
00
00
00
00
0E
10
16
08
10
00
00
00
00
00
00
ENDCHAR
STARTCHAR uni0622
ENCODING 1570
SWIDTH 480 0
DWIDTH 8 0
BBX 8 19 0 -4
BITMAP
00
00
00
1E
60
08
0C
0C
08
08
08
08
00
00
00
00
00
00
00
ENDCHAR
STARTCHAR uni0623
ENCODING 1571
SWIDTH 480 0
DWIDTH 8 0
BBX 8 19 0 -4
BITMAP
00
00
00
30
40
24
46
04
04
04
04
04
00
00
00
00
00
00
00
ENDCHAR
STARTCHAR uni0624
ENCODING 1572
SWIDTH 480 0
DWIDTH 8 0
BBX 8 19 0 -4
BITMAP
00
00
00
00
30
40
30
40
06
09
09
0F
01
02
44
38
00
00
00
ENDCHAR
STARTCHAR uni0625
ENCODING 1573
SWIDTH 480 0
DWIDTH 8 0
BBX 8 19 0 -4
BITMAP
00
00
00
00
00
04
06
04
04
34
44
24
40
00
00
00
00
00
00
ENDCHAR
STARTCHAR uni0626
ENCODING 1574
SWIDTH 480 0
DWIDTH 8 0
BBX 8 19 0 -4
BITMAP
00
00
00
00
00
00
03
04
02
04
00
0C
58
8C
84
78
00
00
00
ENDCHAR
STARTCHAR uni0627
ENCODING 1575
SWIDTH 480 0
DWIDTH 8 0
BBX 8 19 0 -4
BITMAP
00
00
00
00
10
18
18
10
10
10
10
10
00
00
00
00
00
00
00
ENDCHAR
STARTCHAR uni0628
ENCODING 1576
SWIDTH 480 0
DWIDTH 8 0
BBX 8 19 0 -4
BITMAP
00
00
00
00
00
00
00
00
02
41
81
7E
00
00
10
00
00
00
00
ENDCHAR
STARTCHAR uni0629
ENCODING 1577
SWIDTH 480 0
DWIDTH 8 0
BBX 8 19 0 -4
BITMAP
00
00
00
00
12
00
00
0C
12
11
11
0E
00
00
00
00
00
00
00
ENDCHAR
STARTCHAR uni062A
ENCODING 1578
SWIDTH 480 0
DWIDTH 8 0
BBX 8 19 0 -4
BITMAP
00
00
00
00
00
24
00
00
02
41
81
7E
00
00
00
00
00
00
00
ENDCHAR
STARTCHAR uni062B
ENCODING 1579
SWIDTH 480 0
DWIDTH 8 0
BBX 8 19 0 -4
BITMAP
00
00
00
10
00
24
00
00
02
41
81
7E
00
00
00
00
00
00
00
ENDCHAR
STARTCHAR uni062C
ENCODING 1580
SWIDTH 480 0
DWIDTH 8 0
BBX 8 19 0 -4
BITMAP
00
00
00
00
00
00
00
00
00
FC
23
40
80
88
80
41
3E
00
00
ENDCHAR
STARTCHAR uni062D
ENCODING 1581
SWIDTH 480 0
DWIDTH 8 0
BBX 8 19 0 -4
BITMAP
00
00
00
00
00
00
00
00
00
FC
23
40
80
80
80
41
3E
00
00
ENDCHAR
STARTCHAR uni062E
ENCODING 1582
SWIDTH 480 0
DWIDTH 8 0
BBX 8 19 0 -4
BITMAP
00
00
00
00
00
00
10
00
00
FC
23
40
80
80
80
41
3E
00
00
ENDCHAR
STARTCHAR uni062F
ENCODING 1583
SWIDTH 480 0
DWIDTH 8 0
BBX 8 19 0 -4
BITMAP
00
00
00
00
00
00
00
04
02
01
21
3E
00
00
00
00
00
00
00
ENDCHAR
STARTCHAR uni0630
ENCODING 1584
SWIDTH 480 0
DWIDTH 8 0
BBX 8 19 0 -4
BITMAP
00
00
00
00
00
10
00
04
02
01
21
3E
00
00
00
00
00
00
00
ENDCHAR
STARTCHAR uni0631
ENCODING 1585
SWIDTH 480 0
DWIDTH 8 0
BBX 8 19 0 -4
BITMAP
00
00
00
00
00
00
00
00
00
02
01
01
01
02
44
38
00
00
00
ENDCHAR
STARTCHAR uni0632
ENCODING 1586
SWIDTH 480 0
DWIDTH 8 0
BBX 8 19 0 -4
BITMAP
00
00
00
00
00
00
08
00
00
02
01
01
01
02
44
38
00
00
00
ENDCHAR
STARTCHAR uni0633
ENCODING 1587
SWIDTH 480 0
DWIDTH 8 0
BBX 8 19 0 -4
BITMAP
00
00
00
00
00
00
00
00
02
91
49
76
40
40
80
00
00
00
00
ENDCHAR
STARTCHAR uni0634
ENCODING 1588
SWIDTH 480 0
DWIDTH 8 0
BBX 8 19 0 -4
BITMAP
00
00
00
00
20
00
48
00
02
91
49
76
40
40
80
00
00
00
00
ENDCHAR
STARTCHAR uni0635
ENCODING 1589
SWIDTH 480 0
DWIDTH 8 0
BBX 8 19 0 -4
BITMAP
00
00
00
00
00
00
00
00
0E
91
61
7E
40
40
80
00
00
00
00
ENDCHAR
STARTCHAR uni0636
ENCODING 1590
SWIDTH 480 0
DWIDTH 8 0
BBX 8 19 0 -4
BITMAP
00
00
00
00
00
00
20
00
0E
91
61
7E
40
40
80
00
00
00
00
ENDCHAR
STARTCHAR uni0637
ENCODING 1591
SWIDTH 480 0
DWIDTH 8 0
BBX 8 19 0 -4
BITMAP
00
00
00
00
20
20
20
20
2E
31
21
FE
00
00
00
00
00
00
00
ENDCHAR
STARTCHAR uni0638
ENCODING 1592
SWIDTH 480 0
DWIDTH 8 0
BBX 8 19 0 -4
BITMAP
00
00
00
00
20
24
20
20
2E
31
21
FE
00
00
00
00
00
00
00
ENDCHAR
STARTCHAR uni0639
ENCODING 1593
SWIDTH 480 0
DWIDTH 8 0
BBX 8 19 0 -4
BITMAP
00
00
00
00
00
00
0E
11
10
08
1F
20
40
80
80
80
41
3E
00
ENDCHAR
STARTCHAR uni063A
ENCODING 1594
SWIDTH 480 0
DWIDTH 8 0
BBX 8 19 0 -4
BITMAP
00
00
00
00
04
00
0E
11
10
08
1F
20
40
80
80
80
41
3E
00
ENDCHAR
STARTCHAR uni0640
ENCODING 1600
SWIDTH 480 0
DWIDTH 8 0
BBX 8 19 0 -4
BITMAP
00
00
00
00
00
00
00
00
00
00
00
FF
00
00
00
00
00
00
00
ENDCHAR
STARTCHAR uni0641
ENCODING 1601
SWIDTH 480 0
DWIDTH 8 0
BBX 8 19 0 -4
BITMAP
00
00
00
00
04
00
00
0E
09
45
83
7E
00
00
00
00
00
00
00
ENDCHAR
STARTCHAR uni0642
ENCODING 1602
SWIDTH 480 0
DWIDTH 8 0
BBX 8 19 0 -4
BITMAP
00
00
00
00
00
12
00
00
0E
09
45
83
81
82
7C
00
00
00
00
ENDCHAR
STARTCHAR uni0643
ENCODING 1603
SWIDTH 480 0
DWIDTH 8 0
BBX 8 19 0 -4
BITMAP
00
00
00
00
01
09
11
09
41
81
81
7E
00
00
00
00
00
00
00
ENDCHAR
STARTCHAR uni0644
ENCODING 1604
SWIDTH 480 0
DWIDTH 8 0
BBX 8 19 0 -4
BITMAP
00
00
00
00
01
01
01
01
01
01
41
81
81
82
7C
00
00
00
00
ENDCHAR
STARTCHAR uni0645
ENCODING 1605
SWIDTH 480 0
DWIDTH 8 0
BBX 8 19 0 -4
BITMAP
00
00
00
00
00
00
00
0E
11
09
7F
80
80
40
40
20
20
00
00
ENDCHAR
STARTCHAR uni0646
ENCODING 1606
SWIDTH 480 0
DWIDTH 8 0
BBX 8 19 0 -4
BITMAP
00
00
00
00
00
00
08
00
00
02
41
81
81
82
7C
00
00
00
00
ENDCHAR
STARTCHAR uni0647
ENCODING 1607
SWIDTH 480 0
DWIDTH 8 0
BBX 8 19 0 -4
BITMAP
00
00
00
00
00
00
00
0C
12
11
11
0E
00
00
00
00
00
00
00
ENDCHAR
STARTCHAR uni0648
ENCODING 1608
SWIDTH 480 0
DWIDTH 8 0
BBX 8 19 0 -4
BITMAP
00
00
00
00
00
00
00
00
06
09
09
0F
01
02
44
38
00
00
00
ENDCHAR
STARTCHAR uni0649
ENCODING 1609
SWIDTH 480 0
DWIDTH 8 0
BBX 8 19 0 -4
BITMAP
00
00
00
00
00
00
00
00
06
09
08
46
81
81
82
7C
00
00
00
ENDCHAR
STARTCHAR uni064A
ENCODING 1610
SWIDTH 480 0
DWIDTH 8 0
BBX 8 19 0 -4
BITMAP
00
00
00
00
00
00
00
00
06
09
08
46
81
81
82
7C
00
48
00
ENDCHAR
STARTCHAR uni064B
ENCODING 1611
SWIDTH 480 0
DWIDTH 8 0
BBX 8 19 0 -4
BITMAP
00
00
00
0C
38
60
0C
38
60
00
00
00
00
00
00
00
00
00
00
ENDCHAR
STARTCHAR uni064C
ENCODING 1612
SWIDTH 480 0
DWIDTH 8 0
BBX 8 19 0 -4
BITMAP
00
00
00
00
36
36
12
12
24
00
00
00
00
00
00
00
00
00
00
ENDCHAR
STARTCHAR uni064D
ENCODING 1613
SWIDTH 480 0
DWIDTH 8 0
BBX 8 19 0 -4
BITMAP
00
00
00
00
00
00
00
00
00
00
00
00
0C
38
60
0C
38
60
00
ENDCHAR
STARTCHAR uni064E
ENCODING 1614
SWIDTH 480 0
DWIDTH 8 0
BBX 8 19 0 -4
BITMAP
00
00
00
00
0C
38
60
00
00
00
00
00
00
00
00
00
00
00
00
ENDCHAR
STARTCHAR uni064F
ENCODING 1615
SWIDTH 480 0
DWIDTH 8 0
BBX 8 19 0 -4
BITMAP
00
00
00
00
18
18
08
08
10
00
00
00
00
00
00
00
00
00
00
ENDCHAR
STARTCHAR uni0650
ENCODING 1616
SWIDTH 480 0
DWIDTH 8 0
BBX 8 19 0 -4
BITMAP
00
00
00
00
00
00
00
00
00
00
00
00
00
00
00
0C
38
60
00
ENDCHAR
STARTCHAR uni0651
ENCODING 1617
SWIDTH 480 0
DWIDTH 8 0
BBX 8 19 0 -4
BITMAP
00
00
00
22
49
36
00
00
00
00
00
00
00
00
00
00
00
00
00
ENDCHAR
STARTCHAR uni0652
ENCODING 1618
SWIDTH 480 0
DWIDTH 8 0
BBX 8 19 0 -4
BITMAP
00
00
00
00
00
00
00
06
09
11
12
0C
00
00
00
00
00
00
00
ENDCHAR
STARTCHAR uni2015
ENCODING 8213
SWIDTH 480 0
DWIDTH 8 0
BBX 8 19 0 -4
BITMAP
00
00
00
00
00
00
00
00
00
00
FF
00
00
00
00
00
00
00
00
ENDCHAR
STARTCHAR underscoredbl
ENCODING 8215
SWIDTH 480 0
DWIDTH 8 0
BBX 8 19 0 -4
BITMAP
00
00
00
00
00
00
00
00
00
00
00
00
00
00
00
FF
00
FF
00
ENDCHAR
STARTCHAR quoteleft
ENCODING 8216
SWIDTH 480 0
DWIDTH 8 0
BBX 8 19 0 -4
BITMAP
00
00
00
00
30
60
60
30
00
00
00
00
00
00
00
00
00
00
00
ENDCHAR
STARTCHAR quoteright
ENCODING 8217
SWIDTH 480 0
DWIDTH 8 0
BBX 8 19 0 -4
BITMAP
00
00
00
00
0C
06
06
0C
00
00
00
00
00
00
00
00
00
00
00
ENDCHAR
STARTCHAR bullet
ENCODING 8226
SWIDTH 480 0
DWIDTH 8 0
BBX 8 19 0 -4
BITMAP
00
00
00
00
00
00
00
00
00
18
3C
3C
18
00
00
00
00
00
00
ENDCHAR
STARTCHAR exclamdbl
ENCODING 8252
SWIDTH 480 0
DWIDTH 8 0
BBX 8 19 0 -4
BITMAP
00
00
00
00
00
66
66
66
66
66
66
66
00
66
66
00
00
00
00
ENDCHAR
STARTCHAR uni203E
ENCODING 8254
SWIDTH 480 0
DWIDTH 8 0
BBX 8 19 0 -4
BITMAP
00
00
00
00
FF
00
00
00
00
00
00
00
00
00
00
00
00
00
00
ENDCHAR
STARTCHAR Euro
ENCODING 8364
SWIDTH 480 0
DWIDTH 8 0
BBX 8 19 0 -4
BITMAP
00
00
00
00
00
3C
66
60
FC
60
FC
60
60
66
3C
00
00
00
00
ENDCHAR
STARTCHAR uni2116
ENCODING 8470
SWIDTH 480 0
DWIDTH 8 0
BBX 8 19 0 -4
BITMAP
00
00
00
00
00
CF
CD
EF
EC
FF
DC
DC
CC
CC
CC
00
00
00
00
ENDCHAR
STARTCHAR arrowleft
ENCODING 8592
SWIDTH 480 0
DWIDTH 8 0
BBX 8 19 0 -4
BITMAP
00
00
00
00
00
00
00
00
30
60
FE
60
30
00
00
00
00
00
00
ENDCHAR
STARTCHAR arrowup
ENCODING 8593
SWIDTH 480 0
DWIDTH 8 0
BBX 8 19 0 -4
BITMAP
00
00
00
00
00
18
3C
7E
18
18
18
18
18
18
18
00
00
00
00
ENDCHAR
STARTCHAR arrowright
ENCODING 8594
SWIDTH 480 0
DWIDTH 8 0
BBX 8 19 0 -4
BITMAP
00
00
00
00
00
00
00
00
18
0C
FE
0C
18
00
00
00
00
00
00
ENDCHAR
STARTCHAR arrowdown
ENCODING 8595
SWIDTH 480 0
DWIDTH 8 0
BBX 8 19 0 -4
BITMAP
00
00
00
00
00
18
18
18
18
18
18
18
7E
3C
18
00
00
00
00
ENDCHAR
STARTCHAR arrowboth
ENCODING 8596
SWIDTH 480 0
DWIDTH 8 0
BBX 8 19 0 -4
BITMAP
00
00
00
00
00
00
00
00
28
6C
FE
6C
28
00
00
00
00
00
00
ENDCHAR
STARTCHAR arrowupdn
ENCODING 8597
SWIDTH 480 0
DWIDTH 8 0
BBX 8 19 0 -4
BITMAP
00
00
00
00
00
18
3C
7E
18
18
18
7E
3C
18
00
00
00
00
00
ENDCHAR
STARTCHAR arrowupdnbse
ENCODING 8616
SWIDTH 480 0
DWIDTH 8 0
BBX 8 19 0 -4
BITMAP
00
00
00
00
00
18
3C
7E
18
18
18
7E
3C
18
7E
00
00
00
00
ENDCHAR
STARTCHAR uni2219
ENCODING 8729
SWIDTH 480 0
DWIDTH 8 0
BBX 8 19 0 -4
BITMAP
00
00
00
00
00
00
00
00
00
00
18
18
00
00
00
00
00
00
00
ENDCHAR
STARTCHAR radical
ENCODING 8730
SWIDTH 480 0
DWIDTH 8 0
BBX 8 19 0 -4
BITMAP
00
00
00
00
0E
0C
0C
0C
0C
0C
0C
EC
6C
3C
1C
00
00
00
00
ENDCHAR
STARTCHAR orthogonal
ENCODING 8735
SWIDTH 480 0
DWIDTH 8 0
BBX 8 19 0 -4
BITMAP
00
00
00
00
00
00
00
00
00
C0
C0
C0
FE
00
00
00
00
00
00
ENDCHAR
STARTCHAR uni239C
ENCODING 9116
SWIDTH 480 0
DWIDTH 8 0
BBX 8 19 0 -4
BITMAP
00
00
00
18
18
18
18
18
18
18
18
18
18
18
18
18
18
18
18
ENDCHAR
STARTCHAR uni239F
ENCODING 9119
SWIDTH 480 0
DWIDTH 8 0
BBX 8 19 0 -4
BITMAP
00
00
00
18
18
18
18
18
18
18
18
18
18
18
18
18
18
18
18
ENDCHAR
STARTCHAR uni23A2
ENCODING 9122
SWIDTH 480 0
DWIDTH 8 0
BBX 8 19 0 -4
BITMAP
00
00
00
18
18
18
18
18
18
18
18
18
18
18
18
18
18
18
18
ENDCHAR
STARTCHAR uni23A5
ENCODING 9125
SWIDTH 480 0
DWIDTH 8 0
BBX 8 19 0 -4
BITMAP
00
00
00
18
18
18
18
18
18
18
18
18
18
18
18
18
18
18
18
ENDCHAR
STARTCHAR uni23A9
ENCODING 9129
SWIDTH 480 0
DWIDTH 8 0
BBX 8 19 0 -4
BITMAP
00
00
00
18
18
18
18
18
18
18
18
18
1B
1B
0E
00
00
00
00
ENDCHAR
STARTCHAR uni23AA
ENCODING 9130
SWIDTH 480 0
DWIDTH 8 0
BBX 8 19 0 -4
BITMAP
00
00
00
18
18
18
18
18
18
18
18
18
18
18
18
18
18
18
18
ENDCHAR
STARTCHAR uni23AB
ENCODING 9131
SWIDTH 480 0
DWIDTH 8 0
BBX 8 19 0 -4
BITMAP
00
00
00
00
00
70
D8
D8
18
18
18
18
18
18
18
18
18
18
18
ENDCHAR
STARTCHAR uni23AE
ENCODING 9134
SWIDTH 480 0
DWIDTH 8 0
BBX 8 19 0 -4
BITMAP
00
00
00
18
18
18
18
18
18
18
18
18
18
18
18
18
18
18
18
ENDCHAR
STARTCHAR SF100000
ENCODING 9472
SWIDTH 480 0
DWIDTH 8 0
BBX 8 19 0 -4
BITMAP
00
00
00
00
00
00
00
00
00
00
FF
00
00
00
00
00
00
00
00
ENDCHAR
STARTCHAR SF110000
ENCODING 9474
SWIDTH 480 0
DWIDTH 8 0
BBX 8 19 0 -4
BITMAP
00
00
00
18
18
18
18
18
18
18
18
18
18
18
18
18
18
18
18
ENDCHAR
STARTCHAR SF010000
ENCODING 9484
SWIDTH 480 0
DWIDTH 8 0
BBX 8 19 0 -4
BITMAP
00
00
00
00
00
00
00
00
00
00
1F
18
18
18
18
18
18
18
18
ENDCHAR
STARTCHAR SF030000
ENCODING 9488
SWIDTH 480 0
DWIDTH 8 0
BBX 8 19 0 -4
BITMAP
00
00
00
00
00
00
00
00
00
00
F8
18
18
18
18
18
18
18
18
ENDCHAR
STARTCHAR SF020000
ENCODING 9492
SWIDTH 480 0
DWIDTH 8 0
BBX 8 19 0 -4
BITMAP
00
00
00
18
18
18
18
18
18
18
1F
00
00
00
00
00
00
00
00
ENDCHAR
STARTCHAR SF040000
ENCODING 9496
SWIDTH 480 0
DWIDTH 8 0
BBX 8 19 0 -4
BITMAP
00
00
00
18
18
18
18
18
18
18
F8
00
00
00
00
00
00
00
00
ENDCHAR
STARTCHAR SF080000
ENCODING 9500
SWIDTH 480 0
DWIDTH 8 0
BBX 8 19 0 -4
BITMAP
00
00
00
18
18
18
18
18
18
18
1F
18
18
18
18
18
18
18
18
ENDCHAR
STARTCHAR SF090000
ENCODING 9508
SWIDTH 480 0
DWIDTH 8 0
BBX 8 19 0 -4
BITMAP
00
00
00
18
18
18
18
18
18
18
F8
18
18
18
18
18
18
18
18
ENDCHAR
STARTCHAR SF060000
ENCODING 9516
SWIDTH 480 0
DWIDTH 8 0
BBX 8 19 0 -4
BITMAP
00
00
00
00
00
00
00
00
00
00
FF
18
18
18
18
18
18
18
18
ENDCHAR
STARTCHAR SF070000
ENCODING 9524
SWIDTH 480 0
DWIDTH 8 0
BBX 8 19 0 -4
BITMAP
00
00
00
18
18
18
18
18
18
18
FF
00
00
00
00
00
00
00
00
ENDCHAR
STARTCHAR SF050000
ENCODING 9532
SWIDTH 480 0
DWIDTH 8 0
BBX 8 19 0 -4
BITMAP
00
00
00
18
18
18
18
18
18
18
FF
18
18
18
18
18
18
18
18
ENDCHAR
STARTCHAR SF430000
ENCODING 9552
SWIDTH 480 0
DWIDTH 8 0
BBX 8 19 0 -4
BITMAP
00
00
00
00
00
00
00
00
FF
00
FF
00
00
00
00
00
00
00
00
ENDCHAR
STARTCHAR SF240000
ENCODING 9553
SWIDTH 480 0
DWIDTH 8 0
BBX 8 19 0 -4
BITMAP
00
00
00
36
36
36
36
36
36
36
36
36
36
36
36
36
36
36
36
ENDCHAR
STARTCHAR SF510000
ENCODING 9554
SWIDTH 480 0
DWIDTH 8 0
BBX 8 19 0 -4
BITMAP
00
00
00
00
00
00
00
00
1F
18
1F
18
18
18
18
18
18
18
18
ENDCHAR
STARTCHAR SF520000
ENCODING 9555
SWIDTH 480 0
DWIDTH 8 0
BBX 8 19 0 -4
BITMAP
00
00
00
00
00
00
00
00
00
00
3F
36
36
36
36
36
36
36
36
ENDCHAR
STARTCHAR SF390000
ENCODING 9556
SWIDTH 480 0
DWIDTH 8 0
BBX 8 19 0 -4
BITMAP
00
00
00
00
00
00
00
00
3F
30
37
36
36
36
36
36
36
36
36
ENDCHAR
STARTCHAR SF220000
ENCODING 9557
SWIDTH 480 0
DWIDTH 8 0
BBX 8 19 0 -4
BITMAP
00
00
00
00
00
00
00
00
F8
18
F8
18
18
18
18
18
18
18
18
ENDCHAR
STARTCHAR SF210000
ENCODING 9558
SWIDTH 480 0
DWIDTH 8 0
BBX 8 19 0 -4
BITMAP
00
00
00
00
00
00
00
00
00
00
FE
36
36
36
36
36
36
36
36
ENDCHAR
STARTCHAR SF250000
ENCODING 9559
SWIDTH 480 0
DWIDTH 8 0
BBX 8 19 0 -4
BITMAP
00
00
00
00
00
00
00
00
FE
06
F6
36
36
36
36
36
36
36
36
ENDCHAR
STARTCHAR SF500000
ENCODING 9560
SWIDTH 480 0
DWIDTH 8 0
BBX 8 19 0 -4
BITMAP
00
00
00
18
18
18
18
18
1F
18
1F
00
00
00
00
00
00
00
00
ENDCHAR
STARTCHAR SF490000
ENCODING 9561
SWIDTH 480 0
DWIDTH 8 0
BBX 8 19 0 -4
BITMAP
00
00
00
36
36
36
36
36
36
36
3F
00
00
00
00
00
00
00
00
ENDCHAR
STARTCHAR SF380000
ENCODING 9562
SWIDTH 480 0
DWIDTH 8 0
BBX 8 19 0 -4
BITMAP
00
00
00
36
36
36
36
36
37
30
3F
00
00
00
00
00
00
00
00
ENDCHAR
STARTCHAR SF280000
ENCODING 9563
SWIDTH 480 0
DWIDTH 8 0
BBX 8 19 0 -4
BITMAP
00
00
00
18
18
18
18
18
F8
18
F8
00
00
00
00
00
00
00
00
ENDCHAR
STARTCHAR SF270000
ENCODING 9564
SWIDTH 480 0
DWIDTH 8 0
BBX 8 19 0 -4
BITMAP
00
00
00
36
36
36
36
36
36
36
FE
00
00
00
00
00
00
00
00
ENDCHAR
STARTCHAR SF260000
ENCODING 9565
SWIDTH 480 0
DWIDTH 8 0
BBX 8 19 0 -4
BITMAP
00
00
00
36
36
36
36
36
F6
06
FE
00
00
00
00
00
00
00
00
ENDCHAR
STARTCHAR SF360000
ENCODING 9566
SWIDTH 480 0
DWIDTH 8 0
BBX 8 19 0 -4
BITMAP
00
00
00
18
18
18
18
18
1F
18
1F
18
18
18
18
18
18
18
18
ENDCHAR
STARTCHAR SF370000
ENCODING 9567
SWIDTH 480 0
DWIDTH 8 0
BBX 8 19 0 -4
BITMAP
00
00
00
36
36
36
36
36
36
36
37
36
36
36
36
36
36
36
36
ENDCHAR
STARTCHAR SF420000
ENCODING 9568
SWIDTH 480 0
DWIDTH 8 0
BBX 8 19 0 -4
BITMAP
00
00
00
36
36
36
36
36
37
30
37
36
36
36
36
36
36
36
36
ENDCHAR
STARTCHAR SF190000
ENCODING 9569
SWIDTH 480 0
DWIDTH 8 0
BBX 8 19 0 -4
BITMAP
00
00
00
18
18
18
18
18
F8
18
F8
18
18
18
18
18
18
18
18
ENDCHAR
STARTCHAR SF200000
ENCODING 9570
SWIDTH 480 0
DWIDTH 8 0
BBX 8 19 0 -4
BITMAP
00
00
00
36
36
36
36
36
36
36
F6
36
36
36
36
36
36
36
36
ENDCHAR
STARTCHAR SF230000
ENCODING 9571
SWIDTH 480 0
DWIDTH 8 0
BBX 8 19 0 -4
BITMAP
00
00
00
36
36
36
36
36
F6
06
F6
36
36
36
36
36
36
36
36
ENDCHAR
STARTCHAR SF470000
ENCODING 9572
SWIDTH 480 0
DWIDTH 8 0
BBX 8 19 0 -4
BITMAP
00
00
00
00
00
00
00
00
FF
00
FF
18
18
18
18
18
18
18
18
ENDCHAR
STARTCHAR SF480000
ENCODING 9573
SWIDTH 480 0
DWIDTH 8 0
BBX 8 19 0 -4
BITMAP
00
00
00
00
00
00
00
00
00
00
FF
36
36
36
36
36
36
36
36
ENDCHAR
STARTCHAR SF410000
ENCODING 9574
SWIDTH 480 0
DWIDTH 8 0
BBX 8 19 0 -4
BITMAP
00
00
00
00
00
00
00
00
FF
00
F7
36
36
36
36
36
36
36
36
ENDCHAR
STARTCHAR SF450000
ENCODING 9575
SWIDTH 480 0
DWIDTH 8 0
BBX 8 19 0 -4
BITMAP
00
00
00
18
18
18
18
18
FF
00
FF
00
00
00
00
00
00
00
00
ENDCHAR
STARTCHAR SF460000
ENCODING 9576
SWIDTH 480 0
DWIDTH 8 0
BBX 8 19 0 -4
BITMAP
00
00
00
36
36
36
36
36
36
36
FF
00
00
00
00
00
00
00
00
ENDCHAR
STARTCHAR SF400000
ENCODING 9577
SWIDTH 480 0
DWIDTH 8 0
BBX 8 19 0 -4
BITMAP
00
00
00
36
36
36
36
36
F7
00
FF
00
00
00
00
00
00
00
00
ENDCHAR
STARTCHAR SF540000
ENCODING 9578
SWIDTH 480 0
DWIDTH 8 0
BBX 8 19 0 -4
BITMAP
00
00
00
18
18
18
18
18
FF
18
FF
18
18
18
18
18
18
18
18
ENDCHAR
STARTCHAR SF530000
ENCODING 9579
SWIDTH 480 0
DWIDTH 8 0
BBX 8 19 0 -4
BITMAP
00
00
00
36
36
36
36
36
36
36
FF
36
36
36
36
36
36
36
36
ENDCHAR
STARTCHAR SF440000
ENCODING 9580
SWIDTH 480 0
DWIDTH 8 0
BBX 8 19 0 -4
BITMAP
00
00
00
36
36
36
36
36
F7
00
F7
36
36
36
36
36
36
36
36
ENDCHAR
STARTCHAR upblock
ENCODING 9600
SWIDTH 480 0
DWIDTH 8 0
BBX 8 19 0 -4
BITMAP
00
00
00
FF
FF
FF
FF
FF
FF
FF
00
00
00
00
00
00
00
00
00
ENDCHAR
STARTCHAR dnblock
ENCODING 9604
SWIDTH 480 0
DWIDTH 8 0
BBX 8 19 0 -4
BITMAP
00
00
00
00
00
00
00
00
00
00
FF
FF
FF
FF
FF
FF
FF
FF
FF
ENDCHAR
STARTCHAR block
ENCODING 9608
SWIDTH 480 0
DWIDTH 8 0
BBX 8 19 0 -4
BITMAP
00
00
00
FF
FF
FF
FF
FF
FF
FF
FF
FF
FF
FF
FF
FF
FF
FF
FF
ENDCHAR
STARTCHAR lfblock
ENCODING 9612
SWIDTH 480 0
DWIDTH 8 0
BBX 8 19 0 -4
BITMAP
00
00
00
F0
F0
F0
F0
F0
F0
F0
F0
F0
F0
F0
F0
F0
F0
F0
F0
ENDCHAR
STARTCHAR rtblock
ENCODING 9616
SWIDTH 480 0
DWIDTH 8 0
BBX 8 19 0 -4
BITMAP
00
00
00
0F
0F
0F
0F
0F
0F
0F
0F
0F
0F
0F
0F
0F
0F
0F
0F
ENDCHAR
STARTCHAR ltshade
ENCODING 9617
SWIDTH 480 0
DWIDTH 8 0
BBX 8 19 0 -4
BITMAP
00
00
00
11
44
11
44
11
44
11
44
11
44
11
44
11
44
11
44
ENDCHAR
STARTCHAR shade
ENCODING 9618
SWIDTH 480 0
DWIDTH 8 0
BBX 8 19 0 -4
BITMAP
00
00
00
55
AA
55
AA
55
AA
55
AA
55
AA
55
AA
55
AA
55
AA
ENDCHAR
STARTCHAR dkshade
ENCODING 9619
SWIDTH 480 0
DWIDTH 8 0
BBX 8 19 0 -4
BITMAP
00
00
00
DD
77
DD
77
DD
77
DD
77
DD
77
DD
77
DD
77
DD
77
ENDCHAR
STARTCHAR filledbox
ENCODING 9632
SWIDTH 480 0
DWIDTH 8 0
BBX 8 19 0 -4
BITMAP
00
00
00
00
00
00
00
7E
7E
7E
7E
7E
7E
7E
00
00
00
00
00
ENDCHAR
STARTCHAR filledrect
ENCODING 9644
SWIDTH 480 0
DWIDTH 8 0
BBX 8 19 0 -4
BITMAP
00
00
00
00
00
00
00
00
00
00
00
FE
FE
FE
FE
00
00
00
00
ENDCHAR
STARTCHAR triagup
ENCODING 9650
SWIDTH 480 0
DWIDTH 8 0
BBX 8 19 0 -4
BITMAP
00
00
00
00
00
00
00
10
38
38
7C
7C
FE
FE
00
00
00
00
00
ENDCHAR
STARTCHAR triagrt
ENCODING 9658
SWIDTH 480 0
DWIDTH 8 0
BBX 8 19 0 -4
BITMAP
00
00
00
00
80
C0
E0
F0
F8
FE
F8
F0
E0
C0
80
00
00
00
00
ENDCHAR
STARTCHAR triagdn
ENCODING 9660
SWIDTH 480 0
DWIDTH 8 0
BBX 8 19 0 -4
BITMAP
00
00
00
00
00
00
00
FE
FE
7C
7C
38
38
10
00
00
00
00
00
ENDCHAR
STARTCHAR triaglf
ENCODING 9668
SWIDTH 480 0
DWIDTH 8 0
BBX 8 19 0 -4
BITMAP
00
00
00
00
02
06
0E
1E
3E
FE
3E
1E
0E
06
02
00
00
00
00
ENDCHAR
STARTCHAR circle
ENCODING 9675
SWIDTH 480 0
DWIDTH 8 0
BBX 8 19 0 -4
BITMAP
00
00
00
00
00
00
00
00
3C
66
42
42
66
3C
00
00
00
00
00
ENDCHAR
STARTCHAR invbullet
ENCODING 9688
SWIDTH 480 0
DWIDTH 8 0
BBX 8 19 0 -4
BITMAP
00
00
00
FF
FF
FF
FF
FF
FF
E7
C3
C3
E7
FF
FF
FF
FF
FF
FF
ENDCHAR
STARTCHAR invcircle
ENCODING 9689
SWIDTH 480 0
DWIDTH 8 0
BBX 8 19 0 -4
BITMAP
00
00
00
FF
FF
FF
FF
FF
C3
99
BD
BD
99
C3
FF
FF
FF
FF
FF
ENDCHAR
STARTCHAR smileface
ENCODING 9786
SWIDTH 480 0
DWIDTH 8 0
BBX 8 19 0 -4
BITMAP
00
00
00
00
00
7E
81
A5
81
81
BD
99
81
81
7E
00
00
00
00
ENDCHAR
STARTCHAR invsmileface
ENCODING 9787
SWIDTH 480 0
DWIDTH 8 0
BBX 8 19 0 -4
BITMAP
00
00
00
00
00
7E
FF
DB
FF
FF
C3
E7
FF
FF
7E
00
00
00
00
ENDCHAR
STARTCHAR sun
ENCODING 9788
SWIDTH 480 0
DWIDTH 8 0
BBX 8 19 0 -4
BITMAP
00
00
00
00
00
00
18
18
DB
3C
E7
3C
DB
18
18
00
00
00
00
ENDCHAR
STARTCHAR female
ENCODING 9792
SWIDTH 480 0
DWIDTH 8 0
BBX 8 19 0 -4
BITMAP
00
00
00
00
00
3C
66
66
66
66
3C
18
7E
18
18
00
00
00
00
ENDCHAR
STARTCHAR male
ENCODING 9794
SWIDTH 480 0
DWIDTH 8 0
BBX 8 19 0 -4
BITMAP
00
00
00
00
00
1E
0E
1A
32
78
CC
CC
CC
CC
78
00
00
00
00
ENDCHAR
STARTCHAR spade
ENCODING 9824
SWIDTH 480 0
DWIDTH 8 0
BBX 8 19 0 -4
BITMAP
00
00
00
00
00
00
18
3C
7E
FF
FF
7E
18
18
3C
00
00
00
00
ENDCHAR
STARTCHAR club
ENCODING 9827
SWIDTH 480 0
DWIDTH 8 0
BBX 8 19 0 -4
BITMAP
00
00
00
00
00
00
18
3C
3C
E7
E7
E7
18
18
3C
00
00
00
00
ENDCHAR
STARTCHAR heart
ENCODING 9829
SWIDTH 480 0
DWIDTH 8 0
BBX 8 19 0 -4
BITMAP
00
00
00
00
00
00
00
6C
FE
FE
FE
FE
7C
38
10
00
00
00
00
ENDCHAR
STARTCHAR diamond
ENCODING 9830
SWIDTH 480 0
DWIDTH 8 0
BBX 8 19 0 -4
BITMAP
00
00
00
00
00
00
00
10
38
7C
FE
7C
38
10
00
00
00
00
00
ENDCHAR
STARTCHAR musicalnote
ENCODING 9834
SWIDTH 480 0
DWIDTH 8 0
BBX 8 19 0 -4
BITMAP
00
00
00
00
00
3F
33
3F
30
30
30
30
70
F0
E0
00
00
00
00
ENDCHAR
STARTCHAR musicalnotedbl
ENCODING 9835
SWIDTH 480 0
DWIDTH 8 0
BBX 8 19 0 -4
BITMAP
00
00
00
00
00
7F
63
7F
63
63
63
63
67
E7
E6
C0
00
00
00
ENDCHAR
STARTCHAR uniFFFD
ENCODING 65533
SWIDTH 480 0
DWIDTH 8 0
BBX 8 19 0 -4
BITMAP
00
00
00
00
00
00
00
10
38
6C
C6
C6
C6
FE
00
00
00
00
00
ENDCHAR
ENDFONT
